<?xml version="1.0" encoding="UTF-8"?>
<!DOCTYPE svg  PUBLIC '-//W3C//DTD SVG 1.1//EN'  'http://www.w3.org/Graphics/SVG/1.1/DTD/svg11.dtd'>
<svg version="1.1" xmlns="http://www.w3.org/2000/svg">
<defs>
<font id="BroshK" horiz-adv-x="507">
<font-face font-family="BroshK" font-weight="500" ascent="742" bbox="-81 -291 794 730" cap-height="525" descent="-282" panose-1="2 0 6 3 0 0 0 0 0 0" underline-position="-110" underline-thickness="37" unicode-range="U+0020-1E9E" units-per-em="1024" x-height="525"/>
<missing-glyph/>
<glyph glyph-name="space" horiz-adv-x="240" unicode=" "/>
<glyph d="M26 -4v124h126v-124h-126zM15 525h147l-4 -150l-16 -210h-108l-14 210z" glyph-name="exclam" horiz-adv-x="177" unicode="!"/>
<glyph d="M12 366l10 106v68h124v-75q0 -9 -4 -17l-38 -102zM162 366l10 106v68h124v-75q0 -9 -4 -17l-38 -102z" glyph-name="quotedbl" horiz-adv-x="304" unicode='"'/>
<glyph d="M12 117v108h52v-108h-52zM366 300v108h52v-108h-52zM202 117v108h210v-108h-210zM18 300v108h210v-108h-210zM350 30h-108v72h108v-72zM188 423h-108v73h108v-73zM350 240h-108v264h108v-264zM188 20h-108v265h108v-265z" glyph-name="numbersign" horiz-adv-x="430" unicode="#"/>
<glyph d="M274 181v-286h-90v315q81 -24 90 -29zM184 370v260h90v-289q-13 4 -34 10t-34.5 10.5t-21.5 8.5zM290 394v123q69 -20 109 -71l-89 -72q-9 13 -20 20zM170 112v-112q-110 15 -161 80l89 71q19 -25 72 -39zM290 6v120q18 14 18 33q0 15 -16 27t-32 17.5t-50 15.5 q-40 11 -63 19.5t-54 27t-46 47.5t-15 69q0 55 37.5 93.5t100.5 49.5v-116q-17 -10 -17 -23q0 -10 12.5 -19t27 -14.5t43.5 -14.5q31 -10 43.5 -14.5t41.5 -16.5t43 -23.5t32 -29t25.5 -41t7.5 -51.5q0 -58 -37 -99t-102 -57z" glyph-name="dollar" horiz-adv-x="438" unicode="$"/>
<glyph d="M60 54l440 472l54 -56l-438 -472zM6 416q0 58 42 100t100 42q54 0 95 -37t47 -91h-103q-10 29 -39 29q-17 0 -28.5 -12.5t-11.5 -30.5t12 -31t28 -13q17 0 29 13t12 31h102q0 -58 -42.5 -100.5t-100.5 -42.5t-100 42t-42 101zM322 110q0 58 42 100t101 42q54 0 95 -37 t47 -91h-104q-10 29 -38 29q-17 0 -29 -12.5t-12 -30.5t12 -31t29 -13t29 13t12 31h102q0 -58 -42 -100.5t-101 -42.5t-101 42.5t-42 100.5z" glyph-name="percent" horiz-adv-x="616" unicode="%"/>
<glyph d="M368 489v-288q0 -36 19 -62.5t53 -26.5h10l-16 -112q-69 0 -122.5 60t-53.5 135v198zM247 155q12 -59 53 -104q-48 -51 -122 -51q-71 0 -120 46t-49 112q0 42 28 75.5t73 50.5q-64 34 -64 94q0 52 42.5 89t101.5 37q72 0 115 -49l-61 -54q-15 7 -36 7q-17 0 -29.5 -9.5 t-12.5 -22.5q0 -16 12.5 -28t27.5 -12h37v-111h-37q-31 0 -54 -17t-23 -43q0 -20 14.5 -34.5t34.5 -14.5q46 0 69 39zM382 336h68v-111h-68v111z" glyph-name="ampersand" horiz-adv-x="453" unicode="&amp;"/>
<glyph d="M12 366l10 106v68h124v-75q0 -9 -4 -17l-38 -102z" glyph-name="quotesingle" horiz-adv-x="154" unicode="'"/>
<glyph d="M129 262q0 -155 96 -216l-60 -94q-74 48 -115 130t-41 180h120zM129 278h-120q3 93 43.5 171t112.5 124l60 -95q-92 -58 -96 -200z" glyph-name="parenleft" horiz-adv-x="231" unicode="("/>
<glyph d="M102 262q0 155 -96 216l60 95q74 -47 115 -130t41 -181h-120zM222 248q-3 -94 -43.5 -172t-112.5 -124l-60 94q42 26 68 78.5t28 123.5h120z" glyph-name="parenright" horiz-adv-x="231" unicode=")"/>
<glyph d="M213 410l117 67l32 -96l-136 -15zM186 332l39 24l99 -90l-82 -60zM39 266l101 90l37 -24l-55 -126zM2 381l31 96l117 -67l-14 -44zM130 548h102l-28 -132h-45z" glyph-name="asterisk" horiz-adv-x="363" unicode="*"/>
<glyph d="M147 208h-141v108h141v-108zM285 316h126v-108h-126v108zM162 60v405h108v-405h-108z" glyph-name="plus" horiz-adv-x="417" unicode="+"/>
<glyph d="M-22 -117l34 132v113h132v-118q0 -13 -6 -25l-70 -138z" glyph-name="comma" horiz-adv-x="153" unicode=","/>
<glyph d="M6 207v117h312v-117h-312z" glyph-name="hyphen" horiz-adv-x="324" unicode="-"/>
<glyph d="M9 -8v136h132v-136h-132z" glyph-name="period" horiz-adv-x="150" unicode="."/>
<glyph d="M-14 -33l264 637l98 -43l-264 -636z" glyph-name="slash" horiz-adv-x="333" unicode="/"/>
<glyph d="M204 417q-32 0 -55 -45.5t-23 -109.5t23 -109t55 -45q33 0 56.5 45t23.5 109q0 56 -18.5 98.5t-46.5 53.5v113q76 -8 128 -84t52 -181q0 -110 -57 -187.5t-138 -77.5t-138 77.5t-57 187.5t57 188t138 78v-111z" glyph-name="zero" horiz-adv-x="408" unicode="0"/>
<glyph d="M174 525q0 -75 -50 -128t-121 -53v108q31 0 53 21t22 52h96zM54 336q40 12 71.5 41.5t48.5 70.5v-448h-120v336z" glyph-name="one" horiz-adv-x="195" unicode="1"/>
<glyph d="M138 374q0 -20 13 -33.5t32 -13.5h8q-17 -43 -75 -101q-44 19 -71 59t-27 89q0 60 42.5 104t103.5 49v-117q-26 -10 -26 -36zM65 0l2 2q13 11 60 47.5t73 58.5h145v-108h-280zM178 528q65 -1 111.5 -45t46.5 -105q0 -42 -14 -81.5t-31.5 -68t-51.5 -62.5t-56.5 -53 t-65 -52t-59.5 -47l-17 -14h-33v111q108 89 158 147.5t50 121.5q0 14 -11 23.5t-27 9.5v115z" glyph-name="two" horiz-adv-x="354" unicode="2"/>
<glyph d="M176 -2q-70 5 -118.5 54t-48.5 116h120q0 -19 13.5 -35t33.5 -20v-115zM190 -3v114q25 0 44.5 18.5t19.5 42.5q0 23 -16 39.5t-38 16.5h-113v105h85q90 0 146 -47.5t56 -117.5t-54.5 -120.5t-129.5 -50.5zM178 420q-18 0 -30.5 -13.5t-12.5 -32.5h-114q0 64 46.5 109 t112.5 45q65 0 110.5 -37t45.5 -91q0 -44 -38 -82q-38 22 -93 28q15 15 15 34q0 16 -12.5 28t-29.5 12z" glyph-name="three" horiz-adv-x="385" unicode="3"/>
<glyph d="M9 82v116l63 111q69 122 69 216h120q0 -51 -15.5 -105t-34 -91t-52.5 -97l-85 -150h-65zM330 69v-69h-117v69h117zM213 210v38l117 199v-237h-117zM92 84l63 111h214v-111h-277z" glyph-name="four" horiz-adv-x="375" unicode="4"/>
<glyph d="M24 525h309v-117h-309v117zM27 242v151h120v-151h-120zM363 177q0 -74 -55 -127t-134 -53q-70 0 -119 49t-49 119h105q0 -22 18.5 -37.5t44.5 -15.5q30 0 49.5 19t19.5 46t-19.5 46.5t-46.5 19.5h-15v109h21q75 0 127.5 -51t52.5 -124z" glyph-name="five" horiz-adv-x="372" unicode="5"/>
<glyph d="M212 232q-20 0 -36.5 -12t-24.5 -31q-10 33 -10 73q0 36 9 63q32 17 69 17q70 0 119 -50t49 -120q0 -69 -47.5 -119t-117.5 -55v112q20 5 32.5 22.5t12.5 39.5q0 25 -15.5 42.5t-39.5 17.5zM243 416v112q73 -5 123 -50l-66 -84q-22 17 -57 22zM207 -3q-81 0 -139.5 77.5 t-58.5 187.5t64 188t155 78v-111q-42 0 -72 -45.5t-30 -109.5t23.5 -109t57.5 -45v-111z" glyph-name="six" horiz-adv-x="393" unicode="6"/>
<glyph d="M320 416h-314v109h350v-57zM182 400h124l-12 -16q-96 -132 -96 -384h-120q0 241 104 400z" glyph-name="seven" horiz-adv-x="361" unicode="7"/>
<glyph d="M200 528q62 0 106 -35.5t44 -84.5q0 -53 -49 -89l-14 7q-7 4 -31 13t-37 16q25 15 25 39q0 13 -13 22.5t-31 9.5q-19 0 -32.5 -9.5t-13.5 -22.5q0 -10 8.5 -19.5t24.5 -19t29.5 -16t34.5 -15t29 -12.5q107 -51 107 -147q0 -70 -54.5 -119t-132.5 -49v109q29 0 49.5 21 t20.5 51q0 17 -8 31t-27 27t-32 20.5t-43 22t-41 19.5q-33 17 -51 46.5t-18 63.5q0 49 44 84.5t106 35.5zM184 -2q-72 5 -122 53t-50 114q0 41 22.5 74.5t61.5 54.5q3 -2 8.5 -5t7.5 -4q13 -7 37 -18.5t34 -16.5l-3 -1q-51 -26 -51 -71q0 -25 15.5 -45t39.5 -25v-110z" glyph-name="eight" horiz-adv-x="399" unicode="8"/>
<glyph d="M182 292q42 0 60 44q10 -33 10 -74q0 -35 -9 -62q-32 -17 -69 -17q-70 0 -119 49.5t-49 119.5h120q0 -25 16 -42.5t40 -17.5zM150 109v-112q-74 5 -123 49l66 84q21 -16 57 -21zM7 368q6 68 57.5 114t121.5 46q81 0 139.5 -78t58.5 -188t-64 -187.5t-155 -77.5v111 q42 0 72 45t30 109q0 65 -23.5 110t-57.5 45q-21 0 -37 -14t-21 -35h-121z" glyph-name="nine" horiz-adv-x="393" unicode="9"/>
<glyph d="M12 262v136h132v-136h-132zM9 -8v136h132v-136h-132z" glyph-name="colon" horiz-adv-x="159" unicode=":"/>
<glyph d="M12 262v136h132v-136h-132zM-22 -117l34 132v113h132v-118q0 -13 -6 -25l-70 -138z" glyph-name="semicolon" horiz-adv-x="159" unicode=";"/>
<glyph d="M194 72l-191 192l84 84l192 -190zM176 281l-78 77l102 102l79 -79z" glyph-name="less" horiz-adv-x="288" unicode="&lt;"/>
<glyph d="M9 126v108h345v-108h-345zM9 294v108h345v-108h-345z" glyph-name="equal" horiz-adv-x="363" unicode="="/>
<glyph d="M94 72l-85 86l192 190l84 -84zM190 358l-78 -77l-103 100l79 79z" glyph-name="greater" horiz-adv-x="288" unicode="&gt;"/>
<glyph d="M186 528q65 0 115 -36t50 -94q0 -44 -18.5 -71.5t-50.5 -51.5q-20 -15 -30.5 -24.5t-20 -28t-9.5 -40.5v-17h-114v11q0 41 14.5 74.5t29.5 49t39 34.5q41 32 41 55q0 13 -13.5 23t-32.5 10v106zM102 -4v124h126v-124h-126zM171 528v-107q-53 -5 -85 -45l-83 68 q62 78 168 84z" glyph-name="question" horiz-adv-x="360" unicode="?"/>
<glyph d="M126 262q0 -119 80 -202.5t193 -83.5q82 0 153 39l44 -105q-80 -51 -197 -51q-111 0 -202.5 57.5t-141 149.5t-49.5 196h120zM6 278q4 102 54.5 190t140 143t198.5 55q162 0 278.5 -110t116.5 -264q0 -103 -46.5 -166.5t-121.5 -63.5q-53 0 -89 52q37 46 49 99 q15 -35 44 -35q44 0 44 114q0 107 -80.5 182t-194.5 75q-109 0 -188.5 -79t-84.5 -192h-120zM442 315q-24 39 -64 39q-32 0 -55 -27t-23 -65q0 -37 23 -63.5t55 -26.5t55 26.5t23 63.5l3 206l117 -9v-197q0 -86 -58 -147t-140 -61t-140 61.5t-58 146.5t58 147t140 62 q35 0 66 -14q0 -24 -1 -71.5t-1 -70.5z" glyph-name="at" horiz-adv-x="799" unicode="@"/>
<glyph d="M325 525h1l180 -525h-128l-117 339zM166 108l-37 -108h-127l180 525h127l-107 -312h86l37 -105h-159z" glyph-name="A" unicode="A"/>
<glyph d="M265 346q15 15 15 34q0 16 -11 27t-25 11h-226v107h246q54 0 93 -37.5t39 -89.5q0 -46 -37 -81q-40 23 -94 29zM434 168q0 -70 -50 -119t-120 -49h-108v117h108q21 0 35.5 15.5t14.5 39.5q0 23 -15 39.5t-35 16.5h-45h-63v105h60h16q90 0 146 -47.5t56 -117.5zM21 -3v407 h120v-407h-120z" glyph-name="B" horiz-adv-x="445" unicode="B"/>
<glyph d="M132 262q0 -62 32.5 -106t78.5 -44q57 0 88 42l91 -74q-65 -83 -179 -83q-97 0 -165.5 77.5t-68.5 187.5h123zM331 371q-31 41 -88 41q-43 0 -74 -38.5t-36 -95.5h-124q5 105 72.5 177.5t161.5 72.5q115 0 179 -82z" glyph-name="C" horiz-adv-x="433" unicode="C"/>
<glyph d="M21 -3v396h120v-396h-120zM156 117h15q58 0 98.5 42.5t40.5 102.5t-40.5 103t-98.5 43h-153v117h153q109 0 186 -76.5t77 -186.5q0 -109 -76.5 -185.5t-186.5 -76.5h-15v117z" glyph-name="D" horiz-adv-x="442" unicode="D"/>
<glyph d="M21 132v261h120v-261h-120zM156 324h165v-117h-165v117zM18 117h340v-117h-340v117zM18 525h340v-117h-340v117z" glyph-name="E" horiz-adv-x="367" unicode="E"/>
<glyph d="M21 0v393h120v-393h-120zM156 306h188v-117h-188v117zM18 525h340v-117h-340v117z" glyph-name="F" horiz-adv-x="367" unicode="F"/>
<glyph d="M318 80v115h120v-199zM444 210h-220v105h220v-105zM331 371q-31 41 -88 41q-43 0 -74 -38.5t-36 -95.5h-124q5 105 72.5 177.5t161.5 72.5q115 0 179 -82zM132 262q0 -62 32.5 -106t78.5 -44q35 0 60 16v-56l61 -43q-54 -32 -121 -32q-97 0 -165.5 77.5t-68.5 187.5h123z " glyph-name="G" horiz-adv-x="453" unicode="G"/>
<glyph d="M141 0h-120v192h120v-192zM276 207h-258v117h258v-117zM141 339h-120v186h120v-186zM291 525h120v-525h-120v525z" glyph-name="H" horiz-adv-x="432" unicode="H"/>
<glyph d="M21 0v525h120v-525h-120z" glyph-name="I" horiz-adv-x="162" unicode="I"/>
<glyph d="M369 393v-216q0 -74 -53.5 -127t-129.5 -53q-115 0 -180 83l92 74q32 -42 88 -42q26 0 44.5 19t18.5 46v216h120zM372 408h-352v117h352v-117z" glyph-name="J" horiz-adv-x="384" unicode="J"/>
<glyph d="M154 321h60l230 -321h-154l-132 216h-4v105zM21 0v525h120v-525h-120zM261 281l-39 55h-58l124 189h150z" glyph-name="K" horiz-adv-x="447" unicode="K"/>
<glyph d="M21 132v393h120v-393h-120zM18 117h340v-117h-340v117z" glyph-name="L" horiz-adv-x="364" unicode="L"/>
<glyph d="M219 525l163 -525h-121l-161 525h119zM21 0v525h64l53 -174v-351h-117zM424 525h118l-152 -499l-60 191zM504 349l53 176h64v-525h-117v349z" glyph-name="M" horiz-adv-x="642" unicode="M"/>
<glyph d="M158 525l230 -525h-120l-118 273v252h8zM21 0v525h114v-525h-114zM291 260v265h114v-525z" glyph-name="N" horiz-adv-x="426" unicode="N"/>
<glyph d="M222 527v-116q-38 -8 -64 -50t-26 -99h-123q0 105 61.5 181.5t151.5 83.5zM342 262q0 62 -30.5 106t-74.5 44v116q95 0 161.5 -78t66.5 -188t-66.5 -187.5t-161.5 -77.5q-91 0 -157 73t-71 178h124q4 -57 34 -96.5t70 -39.5q44 0 74.5 44t30.5 106z" glyph-name="O" horiz-adv-x="474" unicode="O"/>
<glyph d="M21 0v393h120v-393h-120zM314 338q0 29 -20.5 49.5t-47.5 20.5h-228v117h228q78 0 133 -54.5t55 -132.5t-55 -133t-133 -55h-90v117h90q27 0 47.5 21t20.5 50z" glyph-name="P" horiz-adv-x="442" unicode="P"/>
<glyph d="M346 -105l-157 307l97 53l162 -306zM225 411q-37 -8 -62 -47t-25 -90q0 -50 20 -90t51 -54l62 -121q-15 -3 -31 -3q-93 0 -159 78.5t-66 189.5q0 100 61 173t149 80v-116zM240 412v116q93 0 159 -74.5t66 -179.5q0 -114 -69 -193l-66 123q12 36 12 70q0 57 -30 97.5 t-72 40.5z" glyph-name="Q" horiz-adv-x="480" unicode="Q"/>
<glyph d="M186 315q79 0 144.5 -49t65.5 -108v-158h-120v141q0 31 -22 53t-53 22h-45v99h30zM21 0v396h120v-396h-120zM337 280q-43 30 -92 42q31 17 31 50q0 16 -10 27.5t-23 11.5h-225v114h228q62 0 106 -44.5t44 -105.5q0 -60 -59 -95z" glyph-name="R" horiz-adv-x="408" unicode="R"/>
<glyph d="M212 418q-25 0 -42 -9.5t-17 -22.5q0 -9 7 -16.5t22 -13.5t30 -11t39 -12.5t40 -13.5q62 -23 100 -59t38 -98q0 -74 -59.5 -119.5t-157.5 -45.5v109q43 0 69.5 14.5t26.5 38.5q0 12 -7 20.5t-22.5 15.5t-29 11.5t-39.5 11.5t-40 12q-63 20 -100.5 54t-37.5 98 q0 65 49.5 105.5t130.5 40.5v-110zM196 107v-110q-57 3 -108 25.5t-79 57.5l89 71q10 -13 37.5 -27t60.5 -17zM226 418v110q113 -6 173 -82l-89 -72q-30 38 -84 44z" glyph-name="S" horiz-adv-x="438" unicode="S"/>
<glyph d="M268 399v-399h-122v399h122zM6 414v111h400v-111h-400z" glyph-name="T" horiz-adv-x="412" unicode="T"/>
<glyph d="M204 0q-78 0 -133.5 55t-55.5 133v337h120v-337q0 -27 20.5 -49t48.5 -22v-117zM219 1v118q24 6 39.5 26t15.5 43v337h116v-337q0 -73 -49.5 -127t-121.5 -60z" glyph-name="U" horiz-adv-x="405" unicode="U"/>
<glyph d="M2 525h127l187 -525h-126zM381 525h125l-182 -503l-61 171z" glyph-name="V" unicode="V"/>
<glyph d="M273 0h-121l-150 525h128zM596 0l-57 209l87 316h122l-150 -525h-2zM444 497l136 -497h-116l-80 286zM288 1l-58 216l85 308h121z" glyph-name="W" horiz-adv-x="750" unicode="W"/>
<glyph d="M14 525h144l128 -204l209 -321h-144l-137 228zM327 287l-28 42l-40 63l85 133h144zM175 260l27 -40l40 -67l-92 -153h-144z" glyph-name="X" horiz-adv-x="501" unicode="X"/>
<glyph d="M2 525h139l165 -299v-226h-120v213zM319 235l-64 115l96 175h139z" glyph-name="Y" horiz-adv-x="492" unicode="Y"/>
<glyph d="M170 0l54 116h169v-116h-223zM12 410v115h392l-54 -115h-338zM340 394l-187 -394h-156l198 394h145z" glyph-name="Z" horiz-adv-x="405" unicode="Z"/>
<glyph d="M18 600h183v-112h-183v112zM21 -75v547h120v-434h60v-113h-180z" glyph-name="bracketleft" horiz-adv-x="213" unicode="["/>
<glyph d="M-14 558l98 40l264 -636l-98 -42z" glyph-name="backslash" horiz-adv-x="333" unicode="\"/>
<glyph d="M195 -75h-183v113h183v-113zM192 600v-548h-120v436h-60v112h180z" glyph-name="bracketright" horiz-adv-x="213" unicode="]"/>
<glyph d="M6 497l159 86h6l159 -86l-32 -78l-130 42l-130 -42z" glyph-name="asciicircum" horiz-adv-x="336" unicode="^"/>
<glyph d="M6 -288v117h312v-117h-312z" glyph-name="underscore" horiz-adv-x="324" unicode="_"/>
<glyph d="M232 494l-20 -72l-206 36l30 118z" glyph-name="grave" horiz-adv-x="237" unicode="`"/>
<glyph d="M325 525h1l180 -525h-128l-117 339zM166 108l-37 -108h-127l180 525h127l-107 -312h86l37 -105h-159z" glyph-name="a" unicode="a"/>
<glyph d="M265 346q15 15 15 34q0 16 -11 27t-25 11h-226v107h246q54 0 93 -37.5t39 -89.5q0 -46 -37 -81q-40 23 -94 29zM434 168q0 -70 -50 -119t-120 -49h-108v117h108q21 0 35.5 15.5t14.5 39.5q0 23 -15 39.5t-35 16.5h-45h-63v105h60h16q90 0 146 -47.5t56 -117.5zM21 -3v407 h120v-407h-120z" glyph-name="b" horiz-adv-x="445" unicode="b"/>
<glyph d="M132 262q0 -62 32.5 -106t78.5 -44q57 0 88 42l91 -74q-65 -83 -179 -83q-97 0 -165.5 77.5t-68.5 187.5h123zM331 371q-31 41 -88 41q-43 0 -74 -38.5t-36 -95.5h-124q5 105 72.5 177.5t161.5 72.5q115 0 179 -82z" glyph-name="c" horiz-adv-x="433" unicode="c"/>
<glyph d="M21 -3v396h120v-396h-120zM156 117h15q58 0 98.5 42.5t40.5 102.5t-40.5 103t-98.5 43h-153v117h153q109 0 186 -76.5t77 -186.5q0 -109 -76.5 -185.5t-186.5 -76.5h-15v117z" glyph-name="d" horiz-adv-x="442" unicode="d"/>
<glyph d="M21 132v261h120v-261h-120zM156 324h165v-117h-165v117zM18 117h340v-117h-340v117zM18 525h340v-117h-340v117z" glyph-name="e" horiz-adv-x="367" unicode="e"/>
<glyph d="M21 0v393h120v-393h-120zM156 306h188v-117h-188v117zM18 525h340v-117h-340v117z" glyph-name="f" horiz-adv-x="367" unicode="f"/>
<glyph d="M318 80v115h120v-199zM444 210h-220v105h220v-105zM331 371q-31 41 -88 41q-43 0 -74 -38.5t-36 -95.5h-124q5 105 72.5 177.5t161.5 72.5q115 0 179 -82zM132 262q0 -62 32.5 -106t78.5 -44q35 0 60 16v-56l61 -43q-54 -32 -121 -32q-97 0 -165.5 77.5t-68.5 187.5h123z " glyph-name="g" horiz-adv-x="453" unicode="g"/>
<glyph d="M141 0h-120v192h120v-192zM276 207h-258v117h258v-117zM141 339h-120v186h120v-186zM291 525h120v-525h-120v525z" glyph-name="h" horiz-adv-x="432" unicode="h"/>
<glyph d="M21 0v525h120v-525h-120z" glyph-name="i" horiz-adv-x="162" unicode="i"/>
<glyph d="M369 393v-216q0 -74 -53.5 -127t-129.5 -53q-115 0 -180 83l92 74q32 -42 88 -42q26 0 44.5 19t18.5 46v216h120zM372 408h-352v117h352v-117z" glyph-name="j" horiz-adv-x="384" unicode="j"/>
<glyph d="M154 321h60l230 -321h-154l-132 216h-4v105zM21 0v525h120v-525h-120zM261 281l-39 55h-58l124 189h150z" glyph-name="k" horiz-adv-x="447" unicode="k"/>
<glyph d="M21 132v393h120v-393h-120zM18 117h340v-117h-340v117z" glyph-name="l" horiz-adv-x="364" unicode="l"/>
<glyph d="M504 0v356l14 40h103v-396h-117zM219 525l163 -525h-121l-161 525h119zM21 0v525h64l53 -174v-351h-117zM424 525h200v-114h-117l-117 -385l-60 191z" glyph-name="m" horiz-adv-x="642" unicode="m"/>
<glyph d="M291 0v525h114v-525h-114zM21 396h59l55 -126v-270h-114v396zM276 256v-256h-8l-178 411h-72v114h140z" glyph-name="n" horiz-adv-x="426" unicode="n"/>
<glyph d="M222 527v-116q-38 -8 -64 -50t-26 -99h-123q0 105 61.5 181.5t151.5 83.5zM342 262q0 62 -30.5 106t-74.5 44v116q95 0 161.5 -78t66.5 -188t-66.5 -187.5t-161.5 -77.5q-91 0 -157 73t-71 178h124q4 -57 34 -96.5t70 -39.5q44 0 74.5 44t30.5 106z" glyph-name="o" horiz-adv-x="474" unicode="o"/>
<glyph d="M21 0v393h120v-393h-120zM314 338q0 29 -20.5 49.5t-47.5 20.5h-228v117h228q78 0 133 -54.5t55 -132.5t-55 -133t-133 -55h-90v117h90q27 0 47.5 21t20.5 50z" glyph-name="p" horiz-adv-x="442" unicode="p"/>
<glyph d="M346 -105l-157 307l97 53l162 -306zM225 411q-37 -8 -62 -47t-25 -90q0 -50 20 -90t51 -54l62 -121q-15 -3 -31 -3q-93 0 -159 78.5t-66 189.5q0 100 61 173t149 80v-116zM240 412v116q93 0 159 -74.5t66 -179.5q0 -114 -69 -193l-66 123q12 36 12 70q0 57 -30 97.5 t-72 40.5z" glyph-name="q" horiz-adv-x="480" unicode="q"/>
<glyph d="M186 315q79 0 144.5 -49t65.5 -108v-158h-120v141q0 31 -22 53t-53 22h-45v99h30zM21 0v396h120v-396h-120zM337 280q-43 30 -92 42q31 17 31 50q0 16 -10 27.5t-23 11.5h-225v114h228q62 0 106 -44.5t44 -105.5q0 -60 -59 -95z" glyph-name="r" horiz-adv-x="408" unicode="r"/>
<glyph d="M212 418q-25 0 -42 -9.5t-17 -22.5q0 -9 7 -16.5t22 -13.5t30 -11t39 -12.5t40 -13.5q62 -23 100 -59t38 -98q0 -74 -59.5 -119.5t-157.5 -45.5v109q43 0 69.5 14.5t26.5 38.5q0 12 -7 20.5t-22.5 15.5t-29 11.5t-39.5 11.5t-40 12q-63 20 -100.5 54t-37.5 98 q0 65 49.5 105.5t130.5 40.5v-110zM196 107v-110q-57 3 -108 25.5t-79 57.5l89 71q10 -13 37.5 -27t60.5 -17zM226 418v110q113 -6 173 -82l-89 -72q-30 38 -84 44z" glyph-name="s" horiz-adv-x="438" unicode="s"/>
<glyph d="M268 399v-399h-122v399h122zM6 414v111h400v-111h-400z" glyph-name="t" horiz-adv-x="412" unicode="t"/>
<glyph d="M204 0q-78 0 -133.5 55t-55.5 133v337h120v-337q0 -27 20.5 -49t48.5 -22v-117zM219 1v118q24 6 39.5 26t15.5 43v337h116v-337q0 -73 -49.5 -127t-121.5 -60z" glyph-name="u" horiz-adv-x="405" unicode="u"/>
<glyph d="M2 525h127l187 -525h-126zM381 525h125l-182 -503l-61 171z" glyph-name="v" unicode="v"/>
<glyph d="M273 0h-121l-150 525h128zM596 0l-57 209l87 316h122l-150 -525h-2zM444 497l136 -497h-116l-80 286zM288 1l-58 216l85 308h121z" glyph-name="w" horiz-adv-x="750" unicode="w"/>
<glyph d="M14 525h144l128 -204l209 -321h-144l-137 228zM327 287l-28 42l-40 63l85 133h144zM175 260l27 -40l40 -67l-92 -153h-144z" glyph-name="x" horiz-adv-x="501" unicode="x"/>
<glyph d="M2 525h139l165 -299v-226h-120v213zM319 235l-64 115l96 175h139z" glyph-name="y" horiz-adv-x="492" unicode="y"/>
<glyph d="M170 0l54 116h169v-116h-223zM12 410v115h392l-54 -115h-338zM340 394l-187 -394h-156l198 394h145z" glyph-name="z" horiz-adv-x="405" unicode="z"/>
<glyph d="M46 220h-46v84h38q16 0 26.5 11t10.5 27v147q0 46 32.5 78.5t78.5 32.5h69v-106h-23q-16 0 -26.5 -11t-10.5 -27v-104q0 -54 -44.5 -93t-104.5 -39zM67 207q57 6 98 45q30 -35 30 -80v-103q0 -16 10.5 -26.5t26.5 -10.5h23v-107h-69q-46 0 -78.5 32.5t-32.5 78.5v147 q0 14 -8 24z" glyph-name="braceleft" horiz-adv-x="261" unicode="{"/>
<glyph d="M24 -75v675h120v-675h-120z" glyph-name="bar" horiz-adv-x="168" unicode="|"/>
<glyph d="M214 304h47v-84h-37q-16 0 -27 -10.5t-11 -26.5v-147q0 -46 -32.5 -78.5t-78.5 -32.5h-69v107h22q16 0 27 10.5t11 26.5v103q0 54 44 93t104 39zM194 318q-57 -6 -98 -45q-30 35 -30 79v104q0 16 -11 27t-27 11h-22v106h69q46 0 78.5 -32.5t32.5 -78.5v-147q0 -14 8 -24z " glyph-name="braceright" horiz-adv-x="261" unicode="}"/>
<glyph d="M3 254l57 55q48 48 114 48q65 0 123 -55q24 -23 36 -23q10 0 21 11l56 54l94 -95l-57 -55q-48 -48 -114 -48t-125 56q-26 22 -34 22q-10 0 -21 -11l-55 -54z" glyph-name="asciitilde" unicode="~"/>
<glyph d="M152 530v-125h-126v125h126zM162 0h-147l5 150l14 210h108l16 -210z" glyph-name="exclamdown" horiz-adv-x="177" unicode="¡"/>
<glyph d="M170 354q-38 -36 -38 -92q0 -50 31 -85t74 -35q57 0 88 42l91 -74q-65 -83 -179 -83q-95 0 -161.5 69t-66.5 166q0 78 45 140t116 85v-133zM290 493q78 -16 126 -77l-91 -75q-16 20 -35 30v122zM274 164q-15 -6 -37 -6q-31 0 -53 19v453h90v-466zM184 18q26 -6 53 -6 q25 0 37 2v-119h-90v123z" glyph-name="cent" horiz-adv-x="427" unicode="¢"/>
<glyph d="M10 495v117h118v-117h-118zM173 495v117h119v-117h-119z" glyph-name="dieresis" horiz-adv-x="300" unicode="¨"/>
<glyph d="M343 207q36 42 48 98q17 -33 44 -33v-116q-54 0 -92 51zM267 340v194l114 -9v-173q0 -83 -54.5 -141t-131.5 -58t-131.5 54.5t-54.5 132.5t54.5 133t131.5 55q28 0 57 -13v-126q-21 31 -57 31q-30 0 -51 -23.5t-21 -56.5t21 -56t51 -23t51 23t21 56z" glyph-name="ordfeminine" horiz-adv-x="441" unicode="ª"/>
<glyph d="M183 262l189 190l76 -77l-190 -187zM3 262l75 76l186 -185l-76 -77zM162 275l-73 72l105 106l74 -75zM269 177l73 72l100 -97l-74 -76z" glyph-name="guillemotleft" horiz-adv-x="453" unicode="«"/>
<glyph d="M177 539v-106q-25 -5 -41 -25t-16 -46q0 -31 21 -52.5t51 -21.5t51 21.5t21 52.5t-21 52t-51 21v105q76 0 129.5 -52t53.5 -126t-53.5 -126.5t-129.5 -52.5t-129.5 52.5t-53.5 126.5q0 70 48.5 121t119.5 56z" glyph-name="degree" horiz-adv-x="384" unicode="°"/>
<glyph d="M6 568l195 82l30 -118l-206 -36z" glyph-name="acute" horiz-adv-x="237" unicode="´"/>
<glyph d="M117 -120h-96l41 162l90 -16zM130 -132l21 88q36 -14 58.5 -45t22.5 -70q0 -55 -38 -93.5t-94 -38.5q-57 0 -94 37l66 66q10 -10 28 -10q17 0 28.5 11.5t11.5 27.5q0 15 -10 27z" glyph-name="cedilla" horiz-adv-x="235" unicode="¸"/>
<glyph d="M180 527v-109q-25 -6 -41 -28t-16 -50q0 -33 21 -56t51 -23t51 23t21 56t-21 56.5t-51 23.5v108q77 0 131.5 -55t54.5 -133t-54.5 -132.5t-131.5 -54.5t-131.5 54.5t-54.5 132.5q0 73 49.5 127t121.5 60z" glyph-name="ordmasculine" horiz-adv-x="390" unicode="º"/>
<glyph d="M268 262l-188 -188l-77 76l191 188zM448 262l-74 -74l-186 184l76 76zM290 250l72 -72l-104 -106l-75 75zM182 348l-73 -72l-100 98l75 74z" glyph-name="guillemotright" horiz-adv-x="453" unicode="»"/>
<glyph d="M171 -8q-65 0 -115 36t-50 95q0 44 18.5 71t50.5 51q20 15 30.5 24.5t20 28.5t9.5 41v17h114v-11q0 -41 -14.5 -74.5t-29.5 -49t-39 -34.5q-41 -32 -41 -56q0 -13 13.5 -22.5t32.5 -9.5v-107zM255 525v-125h-126v125h126zM186 -7v107q53 5 85 45l83 -69q-61 -77 -168 -83 z" glyph-name="questiondown" horiz-adv-x="360" unicode="¿"/>
<glyph d="M348 628l-20 -72l-206 36l30 118zM325 525h1l180 -525h-128l-117 339zM166 108l-37 -108h-127l180 525h127l-107 -312h86l37 -105h-159z" glyph-name="Agrave" unicode="À"/>
<glyph d="M151 628l195 82l30 -118l-206 -36zM325 525h1l180 -525h-128l-117 339zM166 108l-37 -108h-127l180 525h127l-107 -312h86l37 -105h-159z" glyph-name="Aacute" unicode="Á"/>
<glyph d="M84 632l159 86h6l159 -86l-32 -78l-130 42l-130 -42zM325 525h1l180 -525h-128l-117 339zM166 108l-37 -108h-127l180 525h127l-107 -312h86l37 -105h-159z" glyph-name="Acircumflex" unicode="Â"/>
<glyph d="M88 659q40 52 104 52q33 0 65.5 -20.5t39.5 -20.5t13 8l21 28l95 -71l-22 -28q-40 -52 -104 -52q-33 0 -66 19.5t-40 19.5q-8 0 -12 -6l-21 -28l-95 71zM325 525h1l180 -525h-128l-117 339zM166 108l-37 -108h-127l180 525h127l-107 -312h86l37 -105h-159z" glyph-name="Atilde" unicode="Ã"/>
<glyph d="M106 570v117h118v-117h-118zM269 570v117h119v-117h-119zM325 525h1l180 -525h-128l-117 339zM166 108l-37 -108h-127l180 525h127l-107 -312h86l37 -105h-159z" glyph-name="Adieresis" unicode="Ä"/>
<glyph d="M132 610q0 50 35 85t85 35t85 -35t35 -85t-35 -85t-85 -35t-85 35t-35 85zM213 610q0 -17 11.5 -28.5t27.5 -11.5t27.5 11.5t11.5 28.5t-11.5 28.5t-27.5 11.5t-27.5 -11.5t-11.5 -28.5zM166 108l-37 -108h-127l171 501q34 -25 79 -25q22 0 42 6l-92 -269h86l37 -105 h-159zM313 490q14 8 20 13l173 -503h-128l-117 339z" glyph-name="Aring" unicode="Å"/>
<glyph d="M466 117h194v-117h-194v117zM466 324h156v-117h-156v117zM332 -2v395h120v-395h-120zM180 525h480v-117h-520zM202 213h114v-105h-150l-37 -108h-127l134 393h128z" glyph-name="AE" horiz-adv-x="669" unicode="Æ"/>
<glyph d="M132 262q0 -62 32.5 -106t78.5 -44q57 0 88 42l91 -74q-65 -83 -179 -83q-97 0 -165.5 77.5t-68.5 187.5h123zM268 -132l21 88q36 -14 58.5 -45t22.5 -70q0 -55 -38 -93.5t-94 -38.5q-57 0 -94 37l66 66q10 -10 28 -10q17 0 28.5 11.5t11.5 27.5q0 15 -10 27zM255 -120 h-96l27 109q25 -7 57 -7q25 0 37 2zM331 371q-31 41 -88 41q-43 0 -74 -38.5t-36 -95.5h-124q5 105 72.5 177.5t161.5 72.5q115 0 179 -82z" glyph-name="Ccedilla" horiz-adv-x="433" unicode="Ç"/>
<glyph d="M290 628l-20 -72l-206 36l30 118zM21 132v261h120v-261h-120zM156 324h165v-117h-165v117zM18 117h340v-117h-340v117zM18 525h340v-117h-340v117z" glyph-name="Egrave" horiz-adv-x="367" unicode="È"/>
<glyph d="M93 628l195 82l30 -118l-206 -36zM21 132v261h120v-261h-120zM156 324h165v-117h-165v117zM18 117h340v-117h-340v117zM18 525h340v-117h-340v117z" glyph-name="Eacute" horiz-adv-x="367" unicode="É"/>
<glyph d="M26 632l159 86h6l159 -86l-32 -78l-130 42l-130 -42zM21 132v261h120v-261h-120zM156 324h165v-117h-165v117zM18 117h340v-117h-340v117zM18 525h340v-117h-340v117z" glyph-name="Ecircumflex" horiz-adv-x="367" unicode="Ê"/>
<glyph d="M48 570v117h118v-117h-118zM211 570v117h119v-117h-119zM21 132v261h120v-261h-120zM156 324h165v-117h-165v117zM18 117h340v-117h-340v117zM18 525h340v-117h-340v117z" glyph-name="Edieresis" horiz-adv-x="367" unicode="Ë"/>
<glyph d="M183 628l-20 -72l-206 36l30 118zM21 0v525h120v-525h-120z" glyph-name="Igrave" horiz-adv-x="162" unicode="Ì"/>
<glyph d="M-14 628l195 82l30 -118l-206 -36zM21 0v525h120v-525h-120z" glyph-name="Iacute" horiz-adv-x="162" unicode="Í"/>
<glyph d="M-81 632l159 86h6l159 -86l-32 -78l-130 42l-130 -42zM21 0v525h120v-525h-120z" glyph-name="Icircumflex" horiz-adv-x="162" unicode="Î"/>
<glyph d="M-59 570v117h118v-117h-118zM104 570v117h119v-117h-119zM21 0v525h120v-525h-120z" glyph-name="Idieresis" horiz-adv-x="162" unicode="Ï"/>
<glyph d="M51 -3v396h120v-396h-120zM186 117h15q58 0 98.5 42.5t40.5 102.5t-40.5 103t-98.5 43h-153v117h153q109 0 186 -76.5t77 -186.5q0 -109 -76.5 -185.5t-186.5 -76.5h-15v117zM186 318h81v-96h-81v96zM36 222h-30v96h30v-96z" glyph-name="Eth" horiz-adv-x="472" unicode="Ð"/>
<glyph d="M46 659q40 52 104 52q33 0 65.5 -20.5t39.5 -20.5t13 8l21 28l95 -71l-22 -28q-40 -52 -104 -52q-33 0 -66 19.5t-40 19.5q-8 0 -12 -6l-21 -28l-95 71zM158 525l230 -525h-120l-118 273v252h8zM21 0v525h114v-525h-114zM291 260v265h114v-525z" glyph-name="Ntilde" horiz-adv-x="426" unicode="Ñ"/>
<glyph d="M339 628l-20 -72l-206 36l30 118zM222 527v-116q-38 -8 -64 -50t-26 -99h-123q0 105 61.5 181.5t151.5 83.5zM342 262q0 62 -30.5 106t-74.5 44v116q95 0 161.5 -78t66.5 -188t-66.5 -187.5t-161.5 -77.5q-91 0 -157 73t-71 178h124q4 -57 34 -96.5t70 -39.5 q44 0 74.5 44t30.5 106z" glyph-name="Ograve" horiz-adv-x="474" unicode="Ò"/>
<glyph d="M143 628l195 82l30 -118l-206 -36zM222 527v-116q-38 -8 -64 -50t-26 -99h-123q0 105 61.5 181.5t151.5 83.5zM342 262q0 62 -30.5 106t-74.5 44v116q95 0 161.5 -78t66.5 -188t-66.5 -187.5t-161.5 -77.5q-91 0 -157 73t-71 178h124q4 -57 34 -96.5t70 -39.5 q44 0 74.5 44t30.5 106z" glyph-name="Oacute" horiz-adv-x="474" unicode="Ó"/>
<glyph d="M75 632l159 86h6l159 -86l-32 -78l-130 42l-130 -42zM222 527v-116q-38 -8 -64 -50t-26 -99h-123q0 105 61.5 181.5t151.5 83.5zM342 262q0 62 -30.5 106t-74.5 44v116q95 0 161.5 -78t66.5 -188t-66.5 -187.5t-161.5 -77.5q-91 0 -157 73t-71 178h124q4 -57 34 -96.5 t70 -39.5q44 0 74.5 44t30.5 106z" glyph-name="Ocircumflex" horiz-adv-x="474" unicode="Ô"/>
<glyph d="M79 659q40 52 104 52q33 0 65.5 -20.5t39.5 -20.5t13 8l21 28l95 -71l-22 -28q-40 -52 -104 -52q-33 0 -66 19.5t-40 19.5q-8 0 -12 -6l-21 -28l-95 71zM222 527v-116q-38 -8 -64 -50t-26 -99h-123q0 105 61.5 181.5t151.5 83.5zM342 262q0 62 -30.5 106t-74.5 44v116 q95 0 161.5 -78t66.5 -188t-66.5 -187.5t-161.5 -77.5q-91 0 -157 73t-71 178h124q4 -57 34 -96.5t70 -39.5q44 0 74.5 44t30.5 106z" glyph-name="Otilde" horiz-adv-x="474" unicode="Õ"/>
<glyph d="M96 570v117h118v-117h-118zM259 570v117h119v-117h-119zM222 527v-116q-38 -8 -64 -50t-26 -99h-123q0 105 61.5 181.5t151.5 83.5zM342 262q0 62 -30.5 106t-74.5 44v116q95 0 161.5 -78t66.5 -188t-66.5 -187.5t-161.5 -77.5q-91 0 -157 73t-71 178h124q4 -57 34 -96.5 t70 -39.5q44 0 74.5 44t30.5 106z" glyph-name="Odieresis" horiz-adv-x="474" unicode="Ö"/>
<glyph d="M295 535l31 73l86 -38l-33 -80q-37 32 -84 45zM314 332l-165 -399l-87 36l177 428q23 -1 43 -18t32 -47zM465 248q-5 -105 -71 -178t-157 -73q-21 0 -44 5l46 111q40 2 69 40.5t33 94.5h124zM342 262q0 62 -30.5 106t-74.5 44t-74.5 -44t-30.5 -106q0 -33 9 -61l-56 -136 q-76 81 -76 197q0 110 66.5 188t161.5 78t161.5 -78t66.5 -188h-123z" glyph-name="Oslash" horiz-adv-x="474" unicode="Ø"/>
<glyph d="M304 628l-20 -72l-206 36l30 118zM204 0q-78 0 -133.5 55t-55.5 133v337h120v-337q0 -27 20.5 -49t48.5 -22v-117zM219 1v118q24 6 39.5 26t15.5 43v337h116v-337q0 -73 -49.5 -127t-121.5 -60z" glyph-name="Ugrave" horiz-adv-x="405" unicode="Ù"/>
<glyph d="M107 628l195 82l30 -118l-206 -36zM204 0q-78 0 -133.5 55t-55.5 133v337h120v-337q0 -27 20.5 -49t48.5 -22v-117zM219 1v118q24 6 39.5 26t15.5 43v337h116v-337q0 -73 -49.5 -127t-121.5 -60z" glyph-name="Uacute" horiz-adv-x="405" unicode="Ú"/>
<glyph d="M40 632l159 86h6l159 -86l-32 -78l-130 42l-130 -42zM204 0q-78 0 -133.5 55t-55.5 133v337h120v-337q0 -27 20.5 -49t48.5 -22v-117zM219 1v118q24 6 39.5 26t15.5 43v337h116v-337q0 -73 -49.5 -127t-121.5 -60z" glyph-name="Ucircumflex" horiz-adv-x="405" unicode="Û"/>
<glyph d="M62 570v117h118v-117h-118zM225 570v117h119v-117h-119zM204 0q-78 0 -133.5 55t-55.5 133v337h120v-337q0 -27 20.5 -49t48.5 -22v-117zM219 1v118q24 6 39.5 26t15.5 43v337h116v-337q0 -73 -49.5 -127t-121.5 -60z" glyph-name="Udieresis" horiz-adv-x="405" unicode="Ü"/>
<glyph d="M151 628l195 82l30 -118l-206 -36zM2 525h139l165 -299v-226h-120v213zM319 235l-64 115l96 175h139z" glyph-name="Yacute" horiz-adv-x="492" unicode="Ý"/>
<glyph d="M21 495v30h120v-30h-120zM21 0v348h120v-348h-120zM156 237h75q28 0 47.5 18.5t19.5 44.5t-19.5 44.5t-47.5 18.5h-213v117h213q78 0 132.5 -53t54.5 -127t-54.5 -127t-132.5 -53h-75v117z" glyph-name="Thorn" horiz-adv-x="427" unicode="Þ"/>
<glyph d="M18 338q0 78 55 131.5t133 55.5h135l-91 -113h-43q-29 0 -49 -21.5t-20 -52.5v-338h-120v338zM294 320q68 0 116.5 -45.5t48.5 -109.5q0 -70 -54 -119t-131 -49q-67 0 -112 48l60 83q27 -16 52 -16q27 0 46 17.5t19 42.5q0 19 -18 35.5t-42 16.5h-84v96h99zM399 525v-91 l-77 -102q-18 2 -28 2h-87l153 191h39z" glyph-name="germandbls" horiz-adv-x="468" unicode="ß"/>
<glyph d="M348 628l-20 -72l-206 36l30 118zM325 525h1l180 -525h-128l-117 339zM166 108l-37 -108h-127l180 525h127l-107 -312h86l37 -105h-159z" glyph-name="agrave" unicode="à"/>
<glyph d="M151 628l195 82l30 -118l-206 -36zM325 525h1l180 -525h-128l-117 339zM166 108l-37 -108h-127l180 525h127l-107 -312h86l37 -105h-159z" glyph-name="aacute" unicode="á"/>
<glyph d="M84 632l159 86h6l159 -86l-32 -78l-130 42l-130 -42zM325 525h1l180 -525h-128l-117 339zM166 108l-37 -108h-127l180 525h127l-107 -312h86l37 -105h-159z" glyph-name="acircumflex" unicode="â"/>
<glyph d="M88 659q40 52 104 52q33 0 65.5 -20.5t39.5 -20.5t13 8l21 28l95 -71l-22 -28q-40 -52 -104 -52q-33 0 -66 19.5t-40 19.5q-8 0 -12 -6l-21 -28l-95 71zM325 525h1l180 -525h-128l-117 339zM166 108l-37 -108h-127l180 525h127l-107 -312h86l37 -105h-159z" glyph-name="atilde" unicode="ã"/>
<glyph d="M106 570v117h118v-117h-118zM269 570v117h119v-117h-119zM325 525h1l180 -525h-128l-117 339zM166 108l-37 -108h-127l180 525h127l-107 -312h86l37 -105h-159z" glyph-name="adieresis" unicode="ä"/>
<glyph d="M132 610q0 50 35 85t85 35t85 -35t35 -85t-35 -85t-85 -35t-85 35t-35 85zM213 610q0 -17 11.5 -28.5t27.5 -11.5t27.5 11.5t11.5 28.5t-11.5 28.5t-27.5 11.5t-27.5 -11.5t-11.5 -28.5zM166 108l-37 -108h-127l171 501q34 -25 79 -25q22 0 42 6l-92 -269h86l37 -105 h-159zM313 490q14 8 20 13l173 -503h-128l-117 339z" glyph-name="aring" unicode="å"/>
<glyph d="M466 117h194v-117h-194v117zM466 324h156v-117h-156v117zM332 -2v395h120v-395h-120zM180 525h480v-117h-520zM202 213h114v-105h-150l-37 -108h-127l134 393h128z" glyph-name="ae" horiz-adv-x="669" unicode="æ"/>
<glyph d="M132 262q0 -62 32.5 -106t78.5 -44q57 0 88 42l91 -74q-65 -83 -179 -83q-97 0 -165.5 77.5t-68.5 187.5h123zM268 -132l21 88q36 -14 58.5 -45t22.5 -70q0 -55 -38 -93.5t-94 -38.5q-57 0 -94 37l66 66q10 -10 28 -10q17 0 28.5 11.5t11.5 27.5q0 15 -10 27zM255 -120 h-96l27 109q25 -7 57 -7q25 0 37 2zM331 371q-31 41 -88 41q-43 0 -74 -38.5t-36 -95.5h-124q5 105 72.5 177.5t161.5 72.5q115 0 179 -82z" glyph-name="ccedilla" horiz-adv-x="433" unicode="ç"/>
<glyph d="M290 628l-20 -72l-206 36l30 118zM21 132v261h120v-261h-120zM156 324h165v-117h-165v117zM18 117h340v-117h-340v117zM18 525h340v-117h-340v117z" glyph-name="egrave" horiz-adv-x="367" unicode="è"/>
<glyph d="M93 628l195 82l30 -118l-206 -36zM21 132v261h120v-261h-120zM156 324h165v-117h-165v117zM18 117h340v-117h-340v117zM18 525h340v-117h-340v117z" glyph-name="eacute" horiz-adv-x="367" unicode="é"/>
<glyph d="M26 632l159 86h6l159 -86l-32 -78l-130 42l-130 -42zM21 132v261h120v-261h-120zM156 324h165v-117h-165v117zM18 117h340v-117h-340v117zM18 525h340v-117h-340v117z" glyph-name="ecircumflex" horiz-adv-x="367" unicode="ê"/>
<glyph d="M48 570v117h118v-117h-118zM211 570v117h119v-117h-119zM21 132v261h120v-261h-120zM156 324h165v-117h-165v117zM18 117h340v-117h-340v117zM18 525h340v-117h-340v117z" glyph-name="edieresis" horiz-adv-x="367" unicode="ë"/>
<glyph d="M183 628l-20 -72l-206 36l30 118zM21 0v525h120v-525h-120z" glyph-name="igrave" horiz-adv-x="162" unicode="ì"/>
<glyph d="M-14 628l195 82l30 -118l-206 -36zM21 0v525h120v-525h-120z" glyph-name="iacute" horiz-adv-x="162" unicode="í"/>
<glyph d="M-81 632l159 86h6l159 -86l-32 -78l-130 42l-130 -42zM21 0v525h120v-525h-120z" glyph-name="icircumflex" horiz-adv-x="162" unicode="î"/>
<glyph d="M-59 570v117h118v-117h-118zM104 570v117h119v-117h-119zM21 0v525h120v-525h-120z" glyph-name="idieresis" horiz-adv-x="162" unicode="ï"/>
<glyph d="M51 -3v396h120v-396h-120zM186 117h15q58 0 98.5 42.5t40.5 102.5t-40.5 103t-98.5 43h-153v117h153q109 0 186 -76.5t77 -186.5q0 -109 -76.5 -185.5t-186.5 -76.5h-15v117zM186 318h81v-96h-81v96zM36 222h-30v96h30v-96z" glyph-name="eth" horiz-adv-x="472" unicode="ð"/>
<glyph d="M46 659q40 52 104 52q33 0 65.5 -20.5t39.5 -20.5t13 8l21 28l95 -71l-22 -28q-40 -52 -104 -52q-33 0 -66 19.5t-40 19.5q-8 0 -12 -6l-21 -28l-95 71zM158 525l230 -525h-120l-118 273v252h8zM21 0v525h114v-525h-114zM291 260v265h114v-525z" glyph-name="ntilde" horiz-adv-x="426" unicode="ñ"/>
<glyph d="M339 628l-20 -72l-206 36l30 118zM222 527v-116q-38 -8 -64 -50t-26 -99h-123q0 105 61.5 181.5t151.5 83.5zM342 262q0 62 -30.5 106t-74.5 44v116q95 0 161.5 -78t66.5 -188t-66.5 -187.5t-161.5 -77.5q-91 0 -157 73t-71 178h124q4 -57 34 -96.5t70 -39.5 q44 0 74.5 44t30.5 106z" glyph-name="ograve" horiz-adv-x="474" unicode="ò"/>
<glyph d="M143 628l195 82l30 -118l-206 -36zM222 527v-116q-38 -8 -64 -50t-26 -99h-123q0 105 61.5 181.5t151.5 83.5zM342 262q0 62 -30.5 106t-74.5 44v116q95 0 161.5 -78t66.5 -188t-66.5 -187.5t-161.5 -77.5q-91 0 -157 73t-71 178h124q4 -57 34 -96.5t70 -39.5 q44 0 74.5 44t30.5 106z" glyph-name="oacute" horiz-adv-x="474" unicode="ó"/>
<glyph d="M75 632l159 86h6l159 -86l-32 -78l-130 42l-130 -42zM222 527v-116q-38 -8 -64 -50t-26 -99h-123q0 105 61.5 181.5t151.5 83.5zM342 262q0 62 -30.5 106t-74.5 44v116q95 0 161.5 -78t66.5 -188t-66.5 -187.5t-161.5 -77.5q-91 0 -157 73t-71 178h124q4 -57 34 -96.5 t70 -39.5q44 0 74.5 44t30.5 106z" glyph-name="ocircumflex" horiz-adv-x="474" unicode="ô"/>
<glyph d="M79 659q40 52 104 52q33 0 65.5 -20.5t39.5 -20.5t13 8l21 28l95 -71l-22 -28q-40 -52 -104 -52q-33 0 -66 19.5t-40 19.5q-8 0 -12 -6l-21 -28l-95 71zM222 527v-116q-38 -8 -64 -50t-26 -99h-123q0 105 61.5 181.5t151.5 83.5zM342 262q0 62 -30.5 106t-74.5 44v116 q95 0 161.5 -78t66.5 -188t-66.5 -187.5t-161.5 -77.5q-91 0 -157 73t-71 178h124q4 -57 34 -96.5t70 -39.5q44 0 74.5 44t30.5 106z" glyph-name="otilde" horiz-adv-x="474" unicode="õ"/>
<glyph d="M96 570v117h118v-117h-118zM259 570v117h119v-117h-119zM222 527v-116q-38 -8 -64 -50t-26 -99h-123q0 105 61.5 181.5t151.5 83.5zM342 262q0 62 -30.5 106t-74.5 44v116q95 0 161.5 -78t66.5 -188t-66.5 -187.5t-161.5 -77.5q-91 0 -157 73t-71 178h124q4 -57 34 -96.5 t70 -39.5q44 0 74.5 44t30.5 106z" glyph-name="odieresis" horiz-adv-x="474" unicode="ö"/>
<glyph d="M295 535l31 73l86 -38l-33 -80q-37 32 -84 45zM314 332l-165 -399l-87 36l177 428q23 -1 43 -18t32 -47zM465 248q-5 -105 -71 -178t-157 -73q-21 0 -44 5l46 111q40 2 69 40.5t33 94.5h124zM342 262q0 62 -30.5 106t-74.5 44t-74.5 -44t-30.5 -106q0 -33 9 -61l-56 -136 q-76 81 -76 197q0 110 66.5 188t161.5 78t161.5 -78t66.5 -188h-123z" glyph-name="oslash" horiz-adv-x="474" unicode="ø"/>
<glyph d="M304 628l-20 -72l-206 36l30 118zM204 0q-78 0 -133.5 55t-55.5 133v337h120v-337q0 -27 20.5 -49t48.5 -22v-117zM219 1v118q24 6 39.5 26t15.5 43v337h116v-337q0 -73 -49.5 -127t-121.5 -60z" glyph-name="ugrave" horiz-adv-x="405" unicode="ù"/>
<glyph d="M107 628l195 82l30 -118l-206 -36zM204 0q-78 0 -133.5 55t-55.5 133v337h120v-337q0 -27 20.5 -49t48.5 -22v-117zM219 1v118q24 6 39.5 26t15.5 43v337h116v-337q0 -73 -49.5 -127t-121.5 -60z" glyph-name="uacute" horiz-adv-x="405" unicode="ú"/>
<glyph d="M40 632l159 86h6l159 -86l-32 -78l-130 42l-130 -42zM204 0q-78 0 -133.5 55t-55.5 133v337h120v-337q0 -27 20.5 -49t48.5 -22v-117zM219 1v118q24 6 39.5 26t15.5 43v337h116v-337q0 -73 -49.5 -127t-121.5 -60z" glyph-name="ucircumflex" horiz-adv-x="405" unicode="û"/>
<glyph d="M62 570v117h118v-117h-118zM225 570v117h119v-117h-119zM204 0q-78 0 -133.5 55t-55.5 133v337h120v-337q0 -27 20.5 -49t48.5 -22v-117zM219 1v118q24 6 39.5 26t15.5 43v337h116v-337q0 -73 -49.5 -127t-121.5 -60z" glyph-name="udieresis" horiz-adv-x="405" unicode="ü"/>
<glyph d="M151 628l195 82l30 -118l-206 -36zM2 525h139l165 -299v-226h-120v213zM319 235l-64 115l96 175h139z" glyph-name="yacute" horiz-adv-x="492" unicode="ý"/>
<glyph d="M21 495v30h120v-30h-120zM21 0v348h120v-348h-120zM156 237h75q28 0 47.5 18.5t19.5 44.5t-19.5 44.5t-47.5 18.5h-213v117h213q78 0 132.5 -53t54.5 -127t-54.5 -127t-132.5 -53h-75v117z" glyph-name="thorn" horiz-adv-x="427" unicode="þ"/>
<glyph d="M290 628l-20 -72l-206 36l30 118z" glyph-name="gravecomb" horiz-adv-x="352" unicode="̀"/>
<glyph d="M63 628l195 82l30 -118l-206 -36z" glyph-name="acutecomb" horiz-adv-x="352" unicode="́"/>
<glyph d="M18 632l159 86h6l159 -86l-32 -78l-130 42l-130 -42z" glyph-name="uni0302" horiz-adv-x="360" unicode="̂"/>
<glyph d="M22 659q40 52 104 52q33 0 65.5 -20.5t39.5 -20.5t13 8l21 28l95 -71l-22 -28q-40 -52 -104 -52q-33 0 -66 19.5t-40 19.5q-8 0 -12 -6l-21 -28l-95 71z" glyph-name="tildecomb" horiz-adv-x="360" unicode="̃"/>
<glyph d="M32 570v117h118v-117h-118zM195 570v117h119v-117h-119z" glyph-name="uni0308" horiz-adv-x="345" unicode="̈"/>
<glyph d="M18 338q0 78 55 131.5t133 55.5h135l-91 -113h-43q-29 0 -49 -21.5t-20 -52.5v-338h-120v338zM294 320q68 0 116.5 -45.5t48.5 -109.5q0 -70 -54 -119t-131 -49q-67 0 -112 48l60 83q27 -16 52 -16q27 0 46 17.5t19 42.5q0 19 -18 35.5t-42 16.5h-84v96h99zM399 525v-91 l-77 -102q-18 2 -28 2h-87l153 191h39z" glyph-name="uni1E9E" horiz-adv-x="468" unicode="ẞ"/>
</font>
</defs>
</svg>
