<?xml version="1.0" encoding="UTF-8"?>
<!DOCTYPE svg  PUBLIC '-//W3C//DTD SVG 1.1//EN'  'http://www.w3.org/Graphics/SVG/1.1/DTD/svg11.dtd'>
<svg version="1.1" xmlns="http://www.w3.org/2000/svg">
<defs>
<font id="Redemption-Italic" horiz-adv-x="550">
<font-face font-family="Redemption" font-style="italic" font-weight="400" ascent="750" bbox="-46 -125 873 759" cap-height="695" descent="-250" panose-1="0 0 0 0 0 0 0 0 0 0" underline-position="-100" underline-thickness="50" unicode-range="U+0020-007A" units-per-em="1000" x-height="695"/>
<missing-glyph/>
<glyph glyph-name="space" horiz-adv-x="190" unicode=" "/>
<glyph d="M25 0l16 117h185l-16 -117h-185zM76 358l177 -56l-3 -18l-177 56zM73 337l177 -57l-3 -18l-177 57zM79 380l177 -57l-3 -18l-177 57zM82 401l177 -57l-3 -18l-177 57zM88 444l177 -57l-3 -18l-177 56zM85 422l177 -56l-3 -19l-177 57zM61 252l177 -57v0h-58l-122 39z M70 316l177 -57l-3 -18l-177 57zM91 465l177 -57l-3 -18l-177 57zM307 688l-22 7h23zM55 209l45 -14h-47zM58 231l112 -36h-59l-56 18zM64 273l177 -56l-3 -19l-177 57zM67 295l177 -57l-3 -18l-177 56zM136 695l165 -53l-3 -18l-177 57l2 14h13zM121 678l177 -57l-3 -18 l-177 57zM118 656l177 -56l-3 -18l-177 56zM115 635l177 -57l-3 -18l-177 57zM206 695l98 -31l-3 -19l-155 50h60zM275 695l32 -10l-3 -18l-88 28h59zM112 614l177 -57l-3 -18l-177 57zM103 550l177 -57l-3 -18l-177 57zM100 529l177 -57l-3 -18l-177 57zM94 486l177 -57 l-3 -18l-177 57zM97 507l177 -56l-3 -18l-177 56zM109 593l177 -57l-3 -18l-177 56zM106 571l177 -56l-3 -19l-177 57z" glyph-name="exclam" horiz-adv-x="257" unicode="!"/>
<glyph d="M281 695h162l-23 -165l-86 -119h-56l19 131h-37zM98 451l-3 -18l53 -17l11 15zM107 515l-3 -18l83 -27l11 16zM104 494l-3 -19l73 -23l11 16zM101 472l-3 -18l62 -20l12 15zM80 590l-2 -18l148 -48l4 6l2 12zM253 694v1h-4zM95 430l-3 -18l2 -1h50l2 2zM74 547v-5h18z M89 654l-2 -18l151 -49l3 18zM92 675l-2 -18l151 -48l3 18zM169 695h-59l137 -44l3 18zM100 695h-5l-2 -17l151 -48l3 18zM239 695h-59l70 -23l3 19zM77 569l-2 -18l27 -9h9l-1 -3l103 -33l11 16zM110 536l-3 -18l93 -30l11 16zM83 611l-2 -18l151 -48l3 18zM86 633l-2 -19 l151 -48l3 18z" glyph-name="quotedbl" horiz-adv-x="358" unicode='"'/>
<glyph d="M615 695l-24 -171l-506 2q1 10 3 20t3 21q18 128 171 128h39l9 64h123l-9 -64h191zM197 -69v-1h3zM200 -48l-3 -18l13 -4h59zM34 139l-3 -19l368 -117q8 2 17 3.5t17 4.5zM28 96l-3 -18l302 -97l3 19zM95 434l444 -143q-2 5 -5 9l-6 8l-4.5 4.5t-6.5 5.5l-428 136 q2 -5 3 -10t3 -10zM206 -5l-3 -19l118 -37l2 18zM25 75l-2 -18l177 -57h7l-1 -2l118 -38l2 18zM22 53l-3 -18l111 -35h60zM37 160l-3 -18l404 -129l10 3q4 2 7.5 3.5t7.5 3.5zM121 178h-60l427 -137q5 3 8.5 6.5t6.5 7.5zM19 32l-3 -18l45 -14h59zM363 189l-2 -12h-20 l193 -62l1 10l1 8zM16 11l-1 -11h36zM203 -27l-3 -18l79 -25h41l1 6zM31 117l-3 -18l311 -99h33q5 0 10 0.5t10 1.5zM237 296l43 -33l263 -84l2 18zM87 500v-9.5v-9.5l377 -121l-20 16t-22 17zM87 478q1 -5 1 -10t1 -10l422 -135q-7 6 -17 14t-23 17zM96 430q2 -6 5 -11.5 t6 -10.5l440 -141q-2 9 -5 20zM51 178h-11l-3 -15l430 -137q5 2 9 5.5t10 6.5zM131 508h-44l-1 -5l328 -105q-9 8 -20.5 16.5t-23.5 16.5zM211 508l97 -32q-9 8 -20 16l-22 16h-55zM109 404q8 -14 22 -26l419 -134q-2 5 -1.5 9.5t-1.5 9.5zM200 508h-59l221 -71 q-11 8 -22 16.5t-23 17.5zM260 177h-60l318 -101q3 4 4.5 7.5t3.5 8.5zM330 177h-60l258 -82q2 5 3 8.5t1 8.5zM137 373l42 -33l370 -118q-1 5 0 9.5t0 8.5zM190 177l-59 1l375 -120q4 6 11 15zM187 334l43 -32l316 -102l2 19zM337 219l27 -20l-1 -7l174 -55l2 18zM288 258 l42 -33l210 -67l2 18z" glyph-name="dollar" horiz-adv-x="546" unicode="$"/>
<glyph d="M93 695h158l-21 -150l-76 -107h-60l17 120h-37z" glyph-name="ampersand" horiz-adv-x="165" unicode="&amp;"/>
<glyph d="M0 159h168l-24 -171l-87 -101h-63l15 113h-31z" glyph-name="comma" horiz-adv-x="158" unicode=","/>
<glyph d="M-17 0l24 173h178l-24 -173h-178z" glyph-name="period" horiz-adv-x="177" unicode="."/>
<glyph d="M67 237l151 -48l-8 -16l-151 48zM48 199l151 -48l-9 -17l-150 48zM57 218l151 -48l-8 -17l-150 49zM76 257l152 -49l-9 -16l-151 48zM112 334l155 -49l-9 -17l-153 49zM104 314l153 -49l-9 -16l-153 49zM85 276l152 -49l-8 -16l-152 48zM39 179l150 -48l-8 -16l-150 48z M94 295l153 -49l-8 -16l-152 49zM-16 64l147 -47l-8 -17l-146 47zM-24 44l139 -44h-60l-88 28zM-43 6l19 -6h-22zM471 689l-17 6h20zM30 160l149 -48l-8 -16l-149 48zM122 353l154 -49l-8 -17l-154 50zM20 141l150 -48l-9 -16l-148 47zM-6 83l147 -47l-9 -17l-146 47z M12 122l148 -48l-8 -16l-149 47zM2 102l148 -47l-8 -16l-146 47zM-34 25l79 -25h-59l-27 9zM260 642l162 -51l-9 -17l-161 52zM251 623l161 -51l-8 -17l-161 52zM241 604l161 -51l-8 -17l-160 51zM131 372l155 -49l-8 -16l-154 49zM270 662l161 -52l-8 -16l-162 51zM278 681 l163 -52l-8 -16l-162 52zM223 565l160 -51l-9 -16l-158 51zM375 695l85 -28l-8 -16l-137 44h60zM444 695l26 -8l-8 -17l-77 25h59zM305 695l146 -47l-9 -16l-162 52l5 11h20zM233 585l159 -52l-8 -16l-160 51zM149 411l156 -50l-8 -16l-155 49zM159 430l156 -50l-8 -16 l-156 50zM168 450l157 -51l-9 -16l-156 50zM141 392l155 -50l-9 -16l-155 49zM196 507l158 -50l-9 -16l-157 50zM205 527l158 -51l-8 -16l-158 50zM177 469l157 -50l-8 -17l-157 50zM214 546l159 -51l-8 -16l-159 51zM186 488l158 -50l-8 -17l-157 51z" glyph-name="slash" horiz-adv-x="359" unicode="/"/>
<glyph d="M351 0h-186q-156 0 -135 156l54 384q22 155 178 155h16l-77 -546h170zM391 170l-2 -18l162 -52q1 5 2 8.5t3 8.5zM388 149l-2 -18l156 -50q5 9 7 16zM385 128l-2 -19l147 -47q3 4 5.5 7.5t4.5 8.5zM409 298l-2 -18l167 -54l3 18zM403 255l-2 -18l167 -54l3 19zM406 277 l-2 -19l167 -53l3 18zM400 234l-2 -18l167 -54l3 18zM382 106l-2 -18l136 -43q2 3 5.5 6.5t6.5 8.5zM394 191l-2 -18l165 -53q1 5 2 9t2 9zM379 85l-2 -18l119 -38q11 7 16 13zM287 629l329 -105l2 16l1 2l-329 106zM397 213l-2 -18l167 -54l2 15l1 3zM486 695h-58l181 -57 q-8 14 -18 24l-104 33h-1zM281 584l-3 -18l69 -23h60zM370 21l-2 -18l8 -3h13q20 0 38 3zM373 42l-2 -18l62 -20q17 3 32 9zM376 64l-2 -18l96 -31q10 4 22 11zM277 562l-2 -18l3 -1h59zM418 362l-2 -18l167 -54l3 18zM286 626l-2 -18l329 -105l3 18zM293 669l-3 -18 l329 -106q1 5 1.5 9.5t0.5 9.5zM412 319l-2 -18l167 -54l3 18zM442 532l-2 -18l167 -54l3 18zM295 690l-2 -18l328 -105v9.5v9.5zM348 695h-52v-2l324 -104q1 9 -2 20zM585 667q-30 25 -87 28zM418 695h-59l259 -82q-2 5 -3.5 10.5t-3.5 10.5zM284 605l-3 -18l136 -44h27 l-1 -8l167 -54l3 19zM439 511l-2 -19l167 -53l3 18zM421 383l-2 -18l167 -54l3 18zM424 404l-2 -18l167 -54l3 19zM415 340l-2 -18l167 -53l3 18zM427 426l-2 -19l167 -53l3 18zM436 489l-2 -18l167 -53l3 18zM430 447l-2 -18l167 -54l3 18zM433 468l-2 -18l167 -54l3 18z " glyph-name="zero" unicode="0"/>
<glyph d="M430 115l-3 -18l-178 57l3 18zM421 52l-3 -19l-178 57l3 19zM451 264l-3 -18l-178 57l3 18zM424 73l-3 -18l-178 57l3 18zM427 94l-3 -18l-178 57l3 18zM442 201l-3 -19l-178 57l3 19zM445 222l-3 -18l-178 57l3 18zM436 158l-3 -18l-178 57l3 18zM439 179l-3 -18 l-178 57l3 18zM433 137l-3 -18l-178 57l3 18zM415 9l-1 -9h-30l-150 48l3 18zM243 442q-15 -6 -31 -9l-21 7q-2 5 -4 10.5t-4 10.5zM207 431q-2 0 -12 -2q-1 3 -2 7zM505 695h6v-2zM272 455q-6 -3 -12.5 -6t-12.5 -5l-65 21q-2 6 -4.5 11.5t-4.5 10.5zM374 0h-60l-83 27 l3 18zM304 0h-59l-17 5l3 18zM235 0h-7v2zM418 30l-3 -18l-178 57l3 18zM448 243l-3 -18l-178 57l3 18zM492 562l-2 -18l-246 79q5 4 8.5 7t8.5 7zM496 584l-3 -18l-230 73l6 5l10 9zM484 499l-3 -19l-303 98l10 6l10 6zM490 541l-3 -18l-263 84q4 4 8.5 7t9.5 7zM487 520 l-3 -18l-282 90q5 3 9.5 6.5t9.5 6.5zM499 605l-3 -18l-214 68l7.5 7.5l7.5 7.5zM510 690l-2 -18l-73 23h60zM501 626l-2 -18l-200 64l14 15zM508 669l-3 -18l-139 44h59zM505 648l-3 -19l-187 60l4 6h37zM457 307l-3 -18l-178 57l3 18zM463 350l-3 -19l-178 57l3 19z M460 328l-3 -18l-178 57l3 18zM454 286l-3 -18l-178 57l3 18zM466 371l-3 -18l-178 57l3 18zM478 456l-3 -18l-324 104l-4 10t-5 10q1 0 1.5 0.5t1.5 0.5zM475 435l-3 -18l-311 99q-2 5 -4.5 11t-4.5 11zM481 477l-3 -18l-329 106q6 2 12.5 4.5t11.5 6.5zM472 413l-3 -18 l-178 57l2 13l-8 -4l-8 -4l-105 34q-3 5 -5 10.5t-4 11.5zM469 392l-3 -18l-178 57l3 18z" glyph-name="one" unicode="1"/>
<glyph d="M531 683l-182 -165l-237 -1l24 177h321q43 0 71 -11h3zM72 190q-1 -5 -2.5 -9t-1.5 -9l448 -143l2 18zM78 210q-2 -4 -3 -8t-2 -9l446 -143l2 18zM66 169l-2 -18l448 -144l3 18zM56 106l-2 -19l272 -87h60zM59 127l-2 -18l339 -109h59zM133 285l181 -58q5 3 8.5 6.5 l7.5 7.5l-182 58zM166 315l-15 -14l182 -58l16 14zM343 169h-59l240 -77l3 19zM413 169h-60l175 -55l2 18zM274 169h-25l7 6l-169 54q-3 -4 -4 -7.5t-4 -8.5l442 -142l3 18zM482 169h-59l107 -34l3 18zM533 156l2 13h-43zM62 148v-5l-2 -13l405 -130h47v4zM451 583l136 -44 l3 19l-124 39zM274 192l-177 56q-1 -2 -2.5 -4.5t-3.5 -5.5q0 -2 -3 -6l171 -54q8 6 15 14zM50 63l-2 -18l139 -45h60zM53 84l-2 -18l206 -66h59zM47 42l-2 -18l73 -24h59zM44 20l-2 -18l6 -2h60zM113 266l-2 -2q-3 -2 -6 -5.5t-5 -7.5l178 -57q3 4 7 7t8 7zM130 282 l-15 -14l181 -58q4 4 8 7.5t7 6.5zM431 564l-15 -14l160 -51q2 4 3 8t3 9zM449 581l-16 -15l149 -47q4 10 5 17zM395 531l-15 -14l175 -56q3 4 5 8t5 8zM484 614l-15 -14l121 -39q0 5 0.5 9.5t0.5 9.5zM413 547l-15 -14l168 -54q6 9 8 17zM519 647l-15 -14l86 -27 q-2 9 -6 20zM537 664l-15 -15l62 -19q-2 6 -5 11.5t-6 10.5zM502 630l-15 -14l103 -33q0 12 -1 19zM549 675l-9 -9l30 -10q-7 11 -21 19zM378 514l-15 -14l179 -57l11 15zM254 398l-16 -14l186 -59q5 4 8.5 7t6.5 7zM183 332l-15 -14l183 -59l7.5 7.5t8.5 6.5zM236 382 l-15 -14l185 -60l7.5 7.5t8.5 6.5zM201 349l-16 -15l184 -58q5 3 8.5 6.5l7.5 7.5zM360 498l-14 -14l181 -59q3 5 6.5 8.5t5.5 6.5zM272 415l-15 -14l185 -60q4 4 8 7.5t7 6.5zM219 365l-15 -14l184 -59l16 14zM325 465l-15 -15l184 -59l15 15zM289 431l-15 -14l186 -59 q4 4 7.5 7t7.5 7zM342 481l-15 -14l184 -59l14 15zM307 448l-15 -14l185 -60q5 4 8.5 7.5t6.5 7.5z" glyph-name="two" unicode="2"/>
<glyph d="M569 199q-11 -85 -66.5 -139.5t-150.5 -59.5h-336l21 151h276q23 2 37.5 16t19.5 32h199zM190 271h-59l-26 8l2 18zM567 217h-59l-394 126l2 18zM121 271h-17v5zM260 271h-59l-93 30l2 18zM307 545h-60l-145 47l2 18zM428 217h-51q-1 10 -2 17zM498 217h-60l-63 20 q-7 17 -17 25zM573 237v-9.5v-9.5l-456 146l2 19zM237 545h-59l-79 25l2 18zM259 427l259 -83q8 -7 15 -13.5t13 -14.5l-346 111h59zM394 695l145 -46q12 -12 22 -26l-226 72h59zM529 385q-8 -8 -16 -14l-174 56h4q14 1 26 9zM270 271l-159 51l2 18l216 -69h-59zM168 545 h-60l-12 4l2 18zM98 545h-3v1zM110 652l478 -153q-1 -5 -1.5 -9t-2.5 -8l-476 152zM589 544q0 -5 0.5 -10t-0.5 -10l-475 153l2 18zM585 567q1 -5 1.5 -10t1.5 -10l-462 148h59zM570 261q1 -5 1.5 -10t0.5 -10l-452 145l2 18zM584 479l-6 -18l-181 58q-4 11 -13 18.5 t-25 7.5h-42l-212 68l2 18zM577 592q2 -5 3.5 -10.5t3.5 -10.5l-388 124h59zM409 695q40 0 70.5 -11t52.5 -30l-128 41h5zM563 618q9 -11 12 -22l-310 99h59zM590 521q0 -5 -0.5 -9t-1.5 -9l-477 152l2 19zM548 312q5 -6 8 -11.5t5 -11.5l-431 138h59zM563 285q4 -11 6 -21 l-446 143l2 18zM577 458q-2 -4 -3.5 -8t-2.5 -8l-170 54q0 5 -0.5 9.5t-1.5 9.5zM509 369q-6 -6 -14 -10q5 -2 8 -4.5t7 -4.5l-241 77h59zM569 439q-3 -5 -4.5 -8.5t-4.5 -7.5l-163 52q2 3 2.5 6.5t0.5 6.5l1 5zM558 420q-3 -4 -5.5 -7.5t-5.5 -7.5l-159 50q3 5 4.5 8.5 t3.5 8.5zM545 402q-4 -4 -7 -7.5t-6 -7.5l-160 51q8 6 14 15z" glyph-name="three" unicode="3"/>
<glyph d="M341 145h179l-19 -145h-179zM281 620l-3 -18l-172 55l2 18zM284 641l-3 -18l-172 55l2 17h4zM278 598l-3 -18l-172 55l2 19zM287 662l-3 -18l-159 51h59zM269 535l-3 -19l-172 56l2 18zM275 577l-3 -18l-172 55l2 18zM272 556l-3 -18l-172 55l2 18zM524 164h-59l-406 130 v9.5t-1 9.5zM385 163h-59l-259 83q-1 5 -2.5 10.5t-2.5 10.5zM177 164q-37 3 -61 19zM316 163h-58l-179 57q-6 12 -10 23zM290 684l-3 -19l-93 30h60zM455 164l-60 -1l-333 108q-3 11 -3 19zM264 695h27l-1 -8zM247 381q-1 -10 -1 -14l-173 56l2 18l173 -55zM247 163h-55h-4 l-81 26q-7 6 -13 12.5t-12 14.5zM573 170v-6h-39l-475 152q0 5 0.5 9t0.5 9zM266 513l-3 -18l-172 55l2 18zM583 326h12v-4zM260 471l-3 -18l-172 55l2 18zM263 492l-3 -18l-172 55l2 18zM254 428l-3 -18l-172 55l2 18zM257 449l-3 -18l-172 55l2 19zM251 407l-3 -18 l-172 55l2 18zM246 364q0 -13 4 -20l-180 57l2 18zM576 525l-2 -18l-172 55l3 18zM579 546l-2 -18l-172 55l3 18zM582 568l-2 -19l-172 55l3 18zM585 589l-2 -18l-172 55l3 18zM570 482l-2 -18l-172 55l3 18zM573 504l-2 -18l-172 54l3 19zM594 653l-2 -18l-172 54l1 7h38z M597 674l-2 -18l-126 40h59zM600 695l-2 -18l-59 19h59zM591 631l-2 -18l-172 55l3 18zM567 461l-2 -18l-172 55l3 18zM588 610l-2 -18l-172 55l3 18zM558 397l-2 -18l-172 55l3 18zM585 255l-2 -18l-275 88h59zM591 298l-2 -18l-216 69l2 18zM588 276l-2 -18l-216 70l2 18z M582 234l-2 -18l-513 164l2 18l182 -58q8 -15 31 -15h16zM579 213l-2 -19l-513 165l2 18zM555 376l-2 -18l-171 55l2 18zM561 419l-2 -19l-172 55l3 18zM594 319l-2 -18l-216 69l2 18l171 -55l-1 -6v-2l26 1zM576 191l-2 -18l-513 164v1l3 18zM381 410l171 -55l-2 -18 l-172 54zM564 440l-2 -18l-171 55l2 18z" glyph-name="four" unicode="4"/>
<glyph d="M551 164l-2 -12q-11 -77 -63 -114.5t-128 -37.5h-326l23 168zM497 182h-60l-63 20l2 18zM552 208l-3 -18l-169 54l2 19zM276 456l-169 54l3 18l168 -54zM427 182h-56l2 17zM557 340q3 -11 2 -20l-458 147l3 18zM560 317q1 -5 1 -9.5v-9.5l-463 148l3 18zM558 251l-3 -18 l-466 149l3 18zM555 230l-3 -18l-169 54l2 12h-39l-260 83l3 18zM561 294v-9t-1 -9l-465 149l3 18zM336 278h-60l-193 61l3 19zM301 534h-14l-2 -14l-169 54l3 18zM572 695h38l-2 -12zM95 421l466 -149l-1 -3l-2 -15l-466 149zM265 278h-59l-126 40l3 18zM195 278h-60 l-58 19l3 18zM549 187l-1 -5h-41l-130 41l2 18zM125 278l-50 1l2 15zM579 534h-60l-391 125l3 18zM596 595l-3 -19l-369 119h60zM599 616l-2 -18l-303 97h59zM590 552l-2 -18l-457 146l2 15h12zM593 573l-2 -18l-436 140h59zM608 680l-2 -18l-104 33h59zM605 658l-3 -18 l-169 55h59zM602 637l-3 -18l-236 76h60zM534 392q4 -5 7 -11t7 -12l-219 70h59zM509 534h-59l-325 103l3 19zM113 549l168 -54l-2 -18l-169 54zM550 365l6 -21l-452 144l3 19l168 -54l-2 -14h46zM412 439q38 0 68 -10t50 -33l-131 43h13zM284 517l-3 -19l-168 54l3 18z M440 534h-60l-258 82l3 18zM370 534h-59l-192 61l3 18z" glyph-name="five" unicode="5"/>
<glyph d="M638 696l-24 -170l-324 -1l24 171h324zM71 408l-3 -18l268 -86h59zM35 152q-1 -5 -1 -9t-1 -9l405 -130q17 4 31 9zM59 326l69 -22h59l-125 40zM272 477l-183 59l-3 -19l183 -58zM65 365l-3 -18l135 -43h60zM68 387l-3 -19l202 -64h59zM41 195l-3 -18l462 -148q5 3 9 6.5 t9 7.5zM36 86q2 -12 6 -21l201 -65l59 1zM178 285h-60l121 -39l3 18zM93 557q-1 -4 -2 -7.5t-1 -7.5l-1 -3l183 -59l2 18zM62 33q33 -33 103 -33zM33 109q1 -5 1 -10t1 -10l277 -88h58zM108 285h-54l-1 -2l183 -58l3 18zM33 131v-9.5v-9.5l347 -111h27q7 0 13 0.5t12 1.5z M38 174l-3 -18l440 -141q1 1 1.5 1t1.5 1q5 2 9.5 4.5t8.5 5.5zM80 475l506 -162l2 10l1 8l-506 162zM302 693v2h-6zM437 450l138 -44q-14 19 -34 29h1l-41 13q-4 1 -9.5 1.5t-11.5 0.5h-43zM390 194l-3 -18l173 -55v4l2 14zM242 267l3 18h-57zM50 259l-3 -18l183 -59l3 18z M53 280l-3 -18l183 -59l3 19zM59 323l-3 -18l2 -1h60zM230 179l-183 59l-3 -19l183 -58zM43 61q5 -14 15 -24l117 -37h58zM105 598q-3 -5 -4 -9t-3 -9l180 -57l3 18zM113 617q-2 -4 -3.5 -8t-4.5 -9l176 -56l2 18zM125 635q-3 -4 -5.5 -7.5t-4.5 -7.5l169 -55l2 18zM93 560 l182 -59l3 19l-180 57q-4 -10 -5 -17zM359 449h-59l291 -93q-2 5 -2 10t-2 10zM427 450l-58 -1l217 -69q-3 11 -9 22zM290 449h-22l1 7l-183 58l-3 -18l506 -162q1 5 1 9.5v9.5zM225 692q-10 -2 -18 -3.5t-15 -4.5l104 -34l3 19zM251 150h-25l1 8l-183 58l-3 -18l479 -153 q7 6 14 15zM160 669q-5 -3 -9.5 -6.5t-7.5 -7.5l147 -47l2 18zM186 682q-6 -2 -12 -5t-11 -6l130 -42l2 18zM139 653q-3 -4 -6 -7.5t-7 -7.5l161 -51l3 18zM286 695h-24q-8 0 -15 -0.5t-15 -1.5l67 -21l2 18zM387 173l-3 -18l171 -54q3 10 4 17zM393 216l-3 -18l172 -56 l3 19zM319 151l-58 -1l274 -88q3 4 5.5 7.5t4.5 8.5zM384 152v-1h-55l218 -70q5 9 7 17zM396 237l-3 -18l173 -55l2 18zM405 301l-3 -18l173 -55l2 18zM77 450l-3 -18l506 -162l3 18zM74 429l-3 -18l506 -162l3 18zM402 280l-3 -19l172 -55l3 18zM80 472l-3 -18l506 -163 l3 19zM399 258l-3 -18l173 -55l2 18z" glyph-name="six" unicode="6"/>
<glyph d="M397 695l-71 -175h-206l24 175h253zM235 239l-6 -17l176 -56l6 17zM212 180l-8 -17l178 -56l6 17zM227 220l-6 -17l176 -57l6 17zM220 200l-8 -17l177 -56l7 16zM243 259l-6 -17l176 -56l7 17zM252 279l-8 -17l176 -57l8 17zM275 338l-6 -17l176 -56l6 16zM267 318 l-6 -17l176 -56l6 17zM283 357l-7 -16l176 -57l7 17zM259 298l-7 -16l177 -57l7 17zM140 3l-1 -3h9zM148 23l-8 -17l18 -6h60zM163 62l-6 -17l140 -45h42l1 5zM203 161l-6 -17l177 -57l6 17zM155 42l-6 -16l79 -26h59zM195 141l-6 -17l176 -57l7 17zM188 121l-8 -17l177 -56 l8 17zM180 101l-8 -16l177 -57l8 17zM172 82l-7 -17l177 -57l6 17zM478 695h-58v0l174 -56l8 17zM403 653l-7 -17l175 -56l6 17zM394 633l-6 -17l175 -56l7 17zM387 613l-7 -16l176 -56l6 16zM291 377l-7 -17l176 -56l7 17zM411 672l-7 -16l175 -56l6 16zM617 695h-60 l54 -16l6 16v0zM371 574l-7 -17l175 -56l7 17zM547 695h-59l114 -36l8 17zM419 692l-7 -17l174 -56l8 17zM379 594l-6 -17l175 -56l6 17zM315 436l-7 -17l176 -56l7 17zM307 416l-6 -16l175 -57l7 17zM299 397l-7 -17l176 -56l7 17zM324 456l-8 -17l176 -56l7 17zM331 476 l-7 -17l176 -56l6 16zM355 535l-7 -17l175 -56l7 16zM347 515l-7 -17l176 -56l6 17zM339 495l-6 -17l175 -56l6 17zM363 554l-7 -17l175 -56l7 17z" glyph-name="seven" unicode="7"/>
<glyph d="M285 133l-2 -19l-270 87q1 7 4 17l207 -66q14 -11 34 -11zM209 224q-2 -4 -3 -11l-1 -7l-172 55q3 4 5 8l4 8zM282 111l-2 -18l-271 87q1 5 1.5 9t1.5 9zM269 141h17v-5zM268 8l-253 81q-5 9 -6 21l261 -84zM273 47l-2 -18l-263 84q-1 5 -1.5 10t-0.5 10zM279 90l-2 -18 l-271 86l2 15v4zM253 499q-1 -5 -1 -9.5v-9.5l-172 55q0 5 1.5 9t2.5 9zM257 520q-2 -5 -2.5 -8.5t-1.5 -8.5v-1l-168 54q1 5 2 8.5t3 8.5zM23 239l184 -59q4 -14 12 -23l-201 64zM253 477q2 -15 7 -22l-183 59l2 13v5zM205 203v-10t1 -10l-181 59q1 7 7 16zM227 262 q-2 -4 -4.5 -7.5t-5.5 -8.5l-159 51l14 15zM216 244q-3 -7 -7 -17l-165 53q2 4 5 7.5t7 7.5zM266 539q-6 -8 -8 -16l-167 53q2 5 3.5 8.5t4.5 7.5zM405 231q-1 5 -1.5 10t-1.5 10l200 -64l-2 -16l-1 -2zM539 51q-6 -6 -17 -13l-221 71l2 18zM76 470q-1 5 -0.5 9.5t-0.5 9.5 l476 -153q14 -12 27 -27zM168 663q12 6 23 11l440 -140l-1 -7l-2 -12zM439 695q11 0 21 -0.5t21 -1.5l92 -30q17 -11 33 -29l-192 61h25zM578 395q-7 -8 -16 -14l-183 58q17 3 27 11zM417 2q-5 -1 -10.5 -1.5t-10.5 -0.5h-34l-73 23l2 19zM289 287h-7q-17 0 -31 -7l-155 50 q4 3 9 6t11 7zM359 287h-4h-56l-180 58q5 3 11 6t12 5zM248 278q-6 -2 -10 -5.5t-8 -7.5l-154 49q3 4 7 7t10 7zM283 556q-5 -3 -8.5 -6.5t-6.5 -7.5l-168 53q3 5 5.5 8.5t4.5 7.5zM213 0h-44q-5 0 -10 0.5t-10 0.5l-85 27q-10 7 -17.5 14t-13.5 16zM267 5v-5h-43l-195 62 q-4 5 -6.5 11t-6.5 12zM392 565q-3 1 -9 1h-52l-204 65l7.5 7.5t7.5 6.5zM276 69l-2 -18l-268 85q-1 5 -0.5 9.5t0.5 9.5zM618 471q-2 -5 -3 -9t-3 -8l-177 56q0 13 -1 20zM602 431l-4 -8l-4 -8l-170 55q2 4 3.5 7.5t3.5 8.5zM611 451q-2 -8 -8 -17l-172 55q2 5 3 14l1 4z M591 412l-11 -15l-171 55q8 7 13 15zM595 278q4 -11 6 -21l-511 164q-7 11 -9 22zM560 378q-6 -3 -11 -6l-10 -6l-225 72h51h7zM535 364q-9 -4 -13 -5q6 -5 12 -9t11 -8l-469 150q-1 5 0 9.5t0 9.5l189 -61q13 -12 38 -12h1zM580 305q9 -12 13 -23l-514 164q-1 5 -1.5 10 t-1.5 10zM623 603l6 -21l-350 112q8 1 15.5 1h15.5h24zM609 629q7 -11 13 -23l-277 89h59zM499 690q35 -6 60 -19zM632 555q0 -5 -0.5 -9t-0.5 -9l-434 139q14 6 29 9zM627 512q0 -5 -1 -9t-2 -9l-478 154q4 3 8.5 6.5t9.5 6.5zM624 491q-2 -5 -3 -9l-2 -8l-187 59 q-3 17 -17 25zM630 578q1 -7 1 -19l-399 128q19 4 39 6zM130 4q-15 3 -27.5 7t-24.5 10zM492 21q-6 -2 -12.5 -5t-13.5 -5l-171 55l2 18zM519 36q-6 -4 -11.5 -7t-10.5 -6l-199 64l2 18zM556 68q-4 -4 -7 -7.5t-7 -6.5l-238 76l1 11h23zM321 566q-19 0 -34 -8l-174 56 q2 4 5 7.5t7 7.5zM569 86q-5 -8 -12 -15l-219 70q18 2 31 9zM352 0h-59l-7 2l2 18zM460 10q-8 -2 -17.5 -4t-18.5 -4l-132 43l2 18zM580 105q-2 -5 -4 -8.5t-5 -7.5l-199 63q8 6 14 15zM601 254q1 -5 1.5 -10t0.5 -10l-489 157q-12 10 -23 26zM599 166q-1 -5 -2 -9t-2 -9 l-192 61v4q2 10 2 15zM604 231v-9.5t-1 -9.5l-457 146q5 4 14 7q-10 5 -20 9.5t-18 10.5zM603 209q0 -5 -0.5 -9.5t-0.5 -9.5l-201 64q-5 15 -18 25zM588 124q-2 -7 -7 -16l-193 61q5 7 9 17zM594 145q-1 -5 -2 -9t-3 -9l-191 62q3 10 4 17z" glyph-name="eight" unicode="8"/>
<glyph d="M28 0l23 170l297 1l-24 -171h-296zM408 410h-5v1zM477 410h-59l-14 4l2 18zM258 502l-2 -18l-173 55l3 18zM83 536l172 -55l-2 -18l-173 55zM252 460l-3 -19l-172 56l3 18zM244 399l-173 55l3 18l172 -55zM249 438l-2 -18l-173 55l3 18zM464 13q-7 -2 -14.5 -4.5 t-15.5 -4.5l-84 27l2 18zM490 27q-5 -3 -10.5 -6t-10.5 -6l-116 37l2 19zM403 545l-58 -1l-240 77q2 5 5 8.5t6 7.5zM525 61q-2 -4 -5.5 -7.5l-7.5 -7.5l-153 49l2 18zM335 544h-58l-181 58q2 5 3.5 8.5t3.5 7.5zM261 523l-3 -18l-172 55l2 10l1 8zM510 43q-4 -4 -8 -7 l-8 -6l-138 44l2 18zM595 416l-1 -6h-37l-147 47l2 18zM559 161l-1 -8l-1 -10l-183 58l2 19zM546 391h45l-2 -14zM490 695l93 -30q12 -12 19 -25l-171 54l52 1h7zM170 678q2 1 5 2l6 2l432 -138v-3l-3 -15l-453 145q4 3 13 7zM228 245h-59l-77 24q-13 11 -22 26zM364 246 l-58 -1l-246 79q-2 11 -2 20zM427 3q-18 -3 -41 -3h-7l-32 10l2 18zM296 245h-58l-170 54q-4 9 -7 22zM267 544h-3l-2 -17l-173 55q2 5 3 8.5t3 8.5zM156 245q-29 3 -50 15h1q-2 1 -3.5 1.5t-3.5 1.5zM369 0h-23v7zM601 459l-3 -18l-182 58l2 19zM536 79q-3 -4 -5 -7.5 t-5 -7.5l-164 52l2 18zM607 502l-3 -19l-182 59v3h-9l-295 94q3 4 7 7.5t7 7.5zM610 523l-3 -18l-472 151q11 8 19 13zM409 454l138 -44h-60l-80 26zM598 438l-2 -18l-183 58l2 18zM612 611q3 -11 3 -20l-321 103h59zM604 636q2 -5 4 -10.5t3 -10.5l-248 79h58zM503 694 q45 -3 73 -23zM589 374l-2 -18l-110 35h59zM615 566q-1 -5 -1 -9.5t-1 -9.5l-426 137q8 3 16 4.5t18 3.5zM615 588v-9.5v-9.5l-387 124q4 0 7 0.5t6 0.5h43zM604 480l-3 -18l-182 59l2 18zM562 182l-2 -18l-183 59l2 18zM565 204l-2 -19l-183 59v2h-6l-317 101q1 5 1 9.5 t1 9.5zM556 140q-2 -5 -2.5 -9t-1.5 -9l-181 58l2 18zM586 353l-3 -19l-176 57h60zM544 99q-1 -5 -2.5 -8.5t-4.5 -8.5l-172 56l2 18zM551 119q-1 -5 -2.5 -9t-2.5 -8l-178 57l2 18zM568 225l-2 -18l-507 162l1 3l2 15zM583 331l-3 -18l-242 78h59zM580 310l-2 -18l-310 99 h60zM571 246l-2 -18l-507 162l3 18zM577 289l-2 -18l-507 162l3 18l172 -55l-1 -5h16zM574 267l-3 -18l-506 162l3 19z" glyph-name="nine" unicode="9"/>
<glyph d="M16 0l24 173h178l-24 -173h-178zM104 604l170 -54l-3 -18l-169 54zM95 540l38 -12h-39zM98 562l105 -34h-60l-47 16zM101 583l170 -54v-1h-58l-114 37zM292 681l-46 14h48zM236 695l56 -17l-3 -18l-112 35h59zM116 689l170 -54l-3 -18l-169 54zM167 695l122 -39l-3 -18 l-169 55v2h50zM113 668l170 -54l-3 -18l-169 54zM107 626l170 -55l-3 -18l-169 54zM110 647l170 -54l-3 -19l-169 55z" glyph-name="colon" horiz-adv-x="225" unicode=":"/>
<glyph d="M33 159h173l-24 -171l-94 -113h-64l18 125h-31zM100 604l170 -54l-3 -18l-169 54zM91 540l38 -12h-39zM94 562l105 -34h-60l-47 16zM97 583l170 -54v-1h-58l-114 37zM288 681l-46 14h48zM232 695l56 -17l-3 -18l-112 35h59zM112 689l170 -54l-3 -18l-169 54zM163 695 l122 -39l-3 -18l-169 55v2h50zM109 668l170 -54l-3 -18l-169 54zM103 626l170 -55l-3 -18l-169 54zM106 647l170 -54l-3 -19l-169 55z" glyph-name="semicolon" horiz-adv-x="216" unicode=";"/>
<glyph d="M333 509h-249l26 184l249 2zM140 151h190l-21 -151h-190zM156 270l-2 -18l178 -57l2 18zM150 227l-2 -18l80 -26h60zM193 392l-6 -8l-6 -8l267 -85q6 3 10.5 6t8.5 7zM180 374q-3 -5 -4.5 -9t-3.5 -8l246 -79q14 5 26 11zM147 206l-2 -18l12 -4h60zM410 695h-34v-3 l151 -48q-9 16 -23 26l-76 24q-5 1 -9 1h-9zM159 291l-2 -18l178 -57l2 18zM162 313l-2 -19l178 -57l2 19zM342 455l-2 -18l173 -56q1 7 2 10l2 8zM361 586l178 -57l2 12q0 4 -1 6l-177 57zM171 354q-4 -9 -5 -17l193 -62h44q2 1 4.5 1t4.5 1zM153 249l-2 -18l147 -48h32 l1 9zM145 185l-1 -1h3zM165 334v-4l-2 -14l178 -57l2 16h6zM345 476l-2 -18l174 -56q2 5 2.5 9t2.5 9zM211 408q-9 -6 -16 -14l275 -88q7 7 14 15zM357 562l-2 -19l179 -57l2 18zM369 647l-2 -18l176 -57v9.5v9.5zM360 583l-2 -18l179 -58l2 19zM494 677q-20 11 -50 16z M372 668l-2 -18l172 -55q-1 5 -1.5 10t-1.5 10zM375 689l-2 -18l164 -53q-1 6 -3 11.5t-5 10.5zM366 625l-2 -18l177 -57q1 5 1.5 9.5t-0.5 9.5zM339 434v-5h-44l211 -68q2 5 3 8.5t3 8.5zM285 429h-2q-23 0 -40 -6l255 -81q5 9 7 16zM354 540l-2 -18l178 -57q1 5 1.5 9 t1.5 9zM238 422q-14 -4 -24 -12l272 -87q2 4 5 8t5 8zM351 519l-2 -18l177 -57q1 5 2 9t1 9zM348 498l-2 -18l176 -57q1 5 2 9t1 9z" glyph-name="question" horiz-adv-x="480" unicode="?"/>
<glyph d="M159 0h-189q16 45 80.5 217.5t180.5 477.5h111l8 -166zM370 251h-59l267 -85l-1 19zM260 242l-6 -17l327 -105l-1 20zM253 222l-7 -17l337 -108l-1 20zM246 202l-6 -17l345 -110l-1 19zM380 337l1 -19l190 -61l-3 20zM385 269l1 -18h-6l196 -62l-1 19zM382 314l1 -19 l189 -61l-2 20zM384 292l1 -20l189 -61l-2 20zM378 360l1 -20l190 -60l-2 19zM392 22l2 -20l6 -2h59zM239 182l-6 -17l354 -113l-2 19zM218 122l-5 -14h48zM390 48l149 -48h52v3l-203 64zM224 142l-5 -17l52 -17h59zM390 45l2 -20l78 -25h59zM231 162l-5 -17l114 -37h45 l1 -14l203 -65l-2 19zM386 90l2 -19l202 -65l-1 20zM300 251h-37l-2 -6l319 -102l-2 19zM376 383l2 -20l189 -60l-2 19zM360 632l1 -19l185 -59l-1 19zM360 655v-19l185 -59l-2 19zM362 587l1 -19l187 -60l-1 20zM361 610l2 -19l185 -60l-1 19zM511 695h-59l85 -27l-1 19z M521 695l15 -4l-1 4h-14zM372 695h-15l1 -14l183 -59l-1 20zM441 695h-59l157 -50l-1 20zM359 678v-20l184 -59l-2 20zM372 451l1 -19l189 -61l-3 20zM370 474l1 -20l189 -60l-2 20zM363 565l1 -20l188 -60l-2 20zM374 405l3 -19l188 -60l-2 19zM374 428l1 -19l188 -61 l-2 20zM365 542l1 -19l188 -60l-2 19zM366 519l2 -19l188 -60l-2 19zM368 496l2 -19l188 -60l-2 19z" glyph-name="A" horiz-adv-x="578" unicode="A"/>
<glyph d="M265 439l-170 55l2 18l171 -55zM271 479l-3 -19l-170 55l2 18zM235 223l-3 -18l-170 55l3 18zM363 271h-59l-230 74l3 18zM274 500l-3 -18l-170 54l2 18zM238 244l-3 -18l-170 55l3 18zM241 266l-3 -18l-170 54l2 18zM292 628l-3 -19l-170 55l2 18zM341 567h-43l2 13z M118 661l171 -55l-3 -18l-170 55zM410 567h-59l-50 17l2 18zM232 202l-3 -18l-170 54l2 18zM283 564l-3 -18l-170 54l2 18zM286 585l-3 -18l-170 54l2 19zM280 542l-3 -18l-170 55l2 18zM277 521l-3 -18l-170 55l2 18zM439 2q-8 -1 -16 -1.5t-16 -0.5h-21l-345 111l3 18z M577 381q-8 -9 -17 -14l-188 60h23q10 1 19 6zM293 427l281 -90q7 -6 12 -12.5t10 -13.5l-504 161l3 19l170 -55l-1 -9h29zM426 232q-3 14 -10 22l206 -66v-3l-3 -15zM554 54q-4 -3 -8 -6.5t-9 -6.5l-277 89h60zM461 695q35 0 59 -7l16 -5q36 -13 60 -38l-158 50h23z M306 623l336 -107l-2 -16l-1 -3l-208 67q-4 2 -7 2l-120 39zM428 695l172 -55q12 -13 18 -25l-250 80h60zM229 181l-3 -19l-170 55l3 18zM58 146h-12l1 4zM128 146h-59l-22 7l3 18zM197 146h-59l-88 28l3 19zM226 159l-2 -13h-17l-154 50l3 18zM299 695h2h-2zM294 271h-52 l-1 -2l-170 54l3 19zM295 649l-3 -18l-170 54l1 10h27zM623 232q1 -7 1 -19l-544 174l2 18zM618 434l-4 -8t-5 -8l-162 52q3 7 6 17zM594 398l-14 -15l-162 52q8 6 16 14zM558 365q-2 -2 -5 -3.5t-6 -3.5q14 -8 22 -16l-266 85h59zM608 415q-3 -4 -6 -7.5t-6 -7.5l-160 51 q2 4 4.5 8t4.5 8zM599 307q6 -10 11 -23l-521 167l2 18zM624 210q0 -5 -0.5 -9.5t-1.5 -9.5l-209 68q-11 11 -27 12h-13l-296 95l2 18zM613 280q3 -9 6 -21l-533 171l2 18zM619 256q3 -9 5 -20l-541 173l3 18zM635 473q-2 -4 -3 -8t-3 -9l-173 56q1 8 -2 19zM633 585 q3 -11 5 -20l-325 104l2 18zM620 611q4 -5 6.5 -10.5t4.5 -11.5l-316 101l1 5h42zM639 561q3 -11 3 -20l-333 106l3 19zM642 538v-9.5v-9.5l-336 107l3 18zM619 167q-2 -5 -3 -8.5t-2 -8.5l-186 59v10t-1 10zM628 453l-4 -8l-4 -8l-167 53l2 9l1 9zM639 494q-1 -5 -1.5 -9 t-1.5 -8l-182 58q-5 15 -13 23zM605 127q-2 -5 -3.5 -8.5t-4.5 -7.5l-179 57q2 4 3.5 8t2.5 9zM237 0h-59l-146 47l3 18zM167 0h-59l-79 25l3 19zM306 0h-59l-212 68l3 18zM301 691l-3 -18l-69 22h60zM98 0h-59l-13 4l3 18zM376 0h-59l-279 89l3 18zM613 147q-2 -5 -3.5 -9 t-2.5 -8l-182 58l1 11l1 7zM29 0h-3v1zM596 108q-3 -5 -5 -8.5t-5 -7.5l-180 58q3 3 5.5 7t5.5 8zM298 670l-3 -18l-135 43h59zM584 89l-11 -15l-189 60q11 4 19 13zM480 11q-8 -2 -17 -4t-17 -4l-397 127h60zM510 24q-14 -7 -26 -11l-364 117h59zM534 39q-6 -4 -10 -7 t-10 -6l-324 104h60zM570 71q-3 -4 -6.5 -7t-6.5 -7l-227 73l36 -1q10 2 14 3z" glyph-name="B" horiz-adv-x="602" unicode="B"/>
<glyph d="M506 162l-22 -162h-319q-153 0 -132 156l1 6h472zM241 280l-3 -18l-178 57l3 18zM235 238l-3 -18l-178 57l3 18zM244 302l-3 -18l-178 57l3 18zM238 259l-3 -18l-178 57l3 18zM253 366l-3 -19l-178 57l3 19zM247 323l-3 -18l-178 57l3 18zM250 344l-3 -18l-178 57l3 18z M571 553l-2 -15h-12l-403 129q9 7 22 12zM256 387l-3 -18l-178 57l3 18zM336 539h-59l-174 56q2 5 3.5 8.5t3.5 8.5zM553 695h39l-2 -12zM232 217l-3 -19l-178 57l3 19zM215 177h-59l-111 36l3 18zM229 195l-3 -18h-1l-177 57l3 18zM146 177h-60l-44 15l3 18zM76 177h-36 l2 11zM581 616l-2 -18l-304 97h59zM476 539h-60l-295 94q3 5 6 8.5t6 7.5zM575 574q-1 -5 -2 -9t-1 -9l-392 125q14 6 31 9zM546 539h-59l-352 112q5 4 8.5 7.5t7.5 6.5zM578 595l-2 -18l-358 115q21 3 47 3zM584 638l-2 -18l-238 75h60zM590 680l-2 -18l-105 33h60z M259 408l-3 -18l-178 57l3 18zM587 659l-2 -18l-171 54h59zM265 451l-3 -18l-178 57l3 18zM262 429l-3 -18l-178 57l3 18zM406 539h-60l-235 76q2 4 4.5 8t4.5 8zM268 472l-3 -18l-178 57l3 18zM271 493l-3 -18l-178 57l3 17v1zM277 536l-3 -18l-177 56l6 18zM274 515 l-3 -19l-178 57q2 5 2.5 9.5t1.5 8.5z" glyph-name="C" horiz-adv-x="517" unicode="C"/>
<glyph d="M98 525h183l-50 -355h-183zM430 37l-12 -6t-12 -5l-362 116l2 13h16zM402 24q-7 -3 -13.5 -5.5t-13.5 -4.5l-334 106l3 19zM269 0h-59l-177 57l2 18zM370 12q-8 -2 -17 -4t-17 -4l-298 95l3 18zM547 155q-2 -4 -4.5 -7.5t-5.5 -7.5l-165 52l15 15zM453 52 q-6 -3 -10.5 -6.5t-9.5 -5.5l-361 115h58zM522 119q-2 -4 -5 -7.5t-7 -7.5l-188 60q11 4 25 11zM199 0h-59l-111 35l3 18zM473 68q-5 -4 -8.5 -7t-8.5 -7l-316 101l59 1zM508 101l-7.5 -7.5l-6.5 -6.5l-218 69q12 1 21.5 3t17.5 4zM536 137l-6 -8t-5 -8l-174 56q6 3 10.5 6 t8.5 7zM491 84q-3 -4 -7 -7t-8 -7l-267 86h50h8zM329 3q-20 -3 -40 -3h-10l-244 78l3 18zM438 438q0 12 -1 20l177 -57l-2 -16l-1 -2zM602 316l-1 -4l-2 -14l-170 54l3 18zM316 541h-2h-57l-150 48l3 18zM108 541h-7v2zM61 0h-36l1 11zM246 541h-59l-83 26l3 19zM177 541 h-59l-17 5l3 18zM130 0h-59l-45 14l3 18zM603 538q1 -5 2.5 -10.5t2.5 -10.5l-489 157l3 18zM609 514l2 -10l2 -10l-497 159l3 18zM613 490q1 -5 1 -9.5t1 -9.5l-502 160l3 18zM616 445q0 -5 -0.5 -9.5t-0.5 -9.5l-186 60q-7 13 -18 24zM594 563q2 -5 3.5 -10.5t4.5 -10.5 l-480 153h60zM615 467v-9.5v-9.5l-210 67q-26 23 -78 26l-217 69l3 18zM560 618q5 -5 9.5 -11.5t8.5 -12.5l-317 101h60zM402 695q66 -4 115 -37zM558 174q-3 -4 -5 -8l-4 -8l-160 51q2 4 5 8t5 8zM580 590q4 -6 6.5 -11.5t5.5 -11.5l-400 128h59zM615 423q0 -5 -0.5 -9.5 t-0.5 -9.5l-178 57l-6 21zM525 652q9 -7 17 -14t15 -15l-226 72h55h4zM611 380l-3 -18l-170 54q0 5 0.5 9.5t0.5 9.5zM583 233q-1 -5 -3 -9t-3 -8l-161 51q1 5 2 9t2 9zM575 213q-1 -5 -2.5 -8.5t-3.5 -8.5l-160 51q2 5 3 9t3 8zM568 193q-3 -4 -4.5 -8t-4.5 -8l-158 51 q5 9 7 16zM589 253q-2 -5 -3 -8.5t-2 -8.5l-164 52l2 17l1 1zM594 274q-1 -5 -2 -9t-3 -9l-166 54l3 18zM605 337l-3 -18l-170 54l3 19zM608 358l-3 -18l-170 55l3 18zM599 295q-2 -5 -2.5 -9t-1.5 -9l-169 54l3 18z" glyph-name="D" horiz-adv-x="569" unicode="D"/>
<glyph d="M100 538l22 157h482l-22 -157h-482zM233 160h308l-22 -160h-308zM40 91l-2 -18l164 -52l3 18zM34 49l-2 -18l95 -31h59zM31 28l-2 -19l29 -9h59zM28 6v-6h20zM46 134l-2 -18l164 -53l3 18zM49 155l-2 -18l164 -53l3 19zM226 521h-59l101 -32l3 18zM43 113l-2 -18l164 -53 l3 18zM524 429v1h-3zM85 411l-2 -18l394 -127h24l1 11zM52 177l-2 -19l164 -52l3 18zM73 326l-2 -19l164 -52l2 11h21zM265 464l-165 53l-2 -18l164 -53zM37 70l-2 -18l162 -52h3l2 17zM157 521h-56v-1l164 -52l3 18zM271 510l2 11h-36zM441 430h-59l136 -43l2 18zM91 453 l-2 -18l417 -133l2 18zM88 432l-2 -18l417 -134l2 18zM94 475l-2 -19l417 -133l2 18zM371 430h-59l203 -65l2 19zM510 430h-59l70 -22l2 18zM82 389l-2 -18l328 -105h59zM302 430h-42l2 13l-165 53l-2 -18l417 -134l2 18zM55 198l-2 -18l164 -53l3 18zM61 240l-2 -18 l164 -52l3 18zM58 219l-2 -18l164 -53l3 18zM64 262l-2 -18l164 -53l3 18zM79 368l-2 -18l261 -84h59zM76 347l-2 -18l195 -63h59zM70 304l-2 -18l164 -53l3 19zM67 283l-2 -18l164 -53l3 18z" glyph-name="E" horiz-adv-x="532" unicode="E"/>
<glyph d="M59 231h181l-32 -231h-181zM323 695h236l-24 -171h-236zM74 348l-2 -18l249 -80h59zM71 326l-2 -18l183 -58h59zM80 390l-2 -18l370 -118l3 18zM83 412l-2 -19l370 -118l3 18zM86 433l-2 -18l370 -119l3 18zM68 305l-2 -18l116 -37h59zM77 369l-2 -18l316 -101h57v0z M65 284l-2 -18l50 -16h59zM89 454l-2 -18l370 -119l3 19zM469 403l2 16h-53zM268 441l-173 56l-2 -18l173 -56zM98 518l-2 -18l173 -56l3 19zM62 263l-1 -13h42zM408 419h-60l118 -38l3 18zM122 688l-2 -18l173 -55l2 18zM116 646l-2 -18l173 -56l2 18zM171 695h-48v-4 l173 -55l2 18zM119 667l-2 -18l173 -55l3 18zM269 419h-4l1 1l-174 55l-2 -18l370 -118l3 18zM251 695l51 -16l1 16h-52zM240 695h-59l118 -38l3 19zM113 624l-2 -18l173 -55l2 18zM99 521l173 -55l3 18l-174 55zM338 419h-59l184 -59l3 18zM104 561l-2 -19l173 -55l2 18z M107 582l-2 -18l173 -56l2 18zM110 603l-2 -18l173 -55l3 18z" glyph-name="F" horiz-adv-x="470" unicode="F"/>
<glyph d="M302 237q6 42 10.5 79.5t10.5 79.5h288l-22 -159h-287zM321 695h335q-5 -40 -9.5 -73.5t-9.5 -73.5h-336zM40 139q0 -5 -0.5 -9.5t-0.5 -9.5l375 -120h59zM40 117v-10v-10l304 -97h60zM46 70q5 -11 11 -23l148 -47h60zM61 43q33 -43 114 -43h20zM41 94q1 -5 2 -10.5 t3 -10.5l229 -73h59zM265 133h-40l2 13l-178 57l-3 -19l509 -163l3 19zM73 373l-3 -18l178 -57l3 18zM389 138l-1 -5h-43l216 -69l3 18zM335 133h-59l283 -90l2 18zM43 160l-1 -6l-2 -12l443 -142h59zM61 288l-3 -18l178 -57l3 18zM230 167l-178 57l-3 -18l178 -57zM55 245 l-3 -18l178 -57l3 18zM46 181l-3 -18l510 -163l2 18zM258 695l44 -14l2 14h-32h-14zM582 213l2 8h-27zM58 266l-3 -18l178 -57l3 18zM64 309l-3 -18l178 -57l3 18zM67 330l-3 -18l178 -57l3 18zM392 159l-3 -18l175 -56l3 18zM70 352l-3 -19l178 -57l3 19zM408 221h-7 l-3 -16l175 -56l3 18zM123 624q-3 -5 -4 -8.5t-4 -8.5l169 -54l3 18zM113 604q-2 -4 -3 -8t-3 -8l174 -56l3 18zM101 564q-2 -5 -2.5 -9t-1.5 -9l178 -57l3 18zM106 585q-2 -5 -2.5 -9t-2.5 -9l177 -57l3 19zM136 642q-3 -4 -6 -7.5t-6 -8.5l163 -52l3 18zM175 674 q-5 -3 -9.5 -6l-10.5 -7l138 -44l3 18zM205 686q-17 -5 -25 -10l116 -38l3 18zM153 659l-7.5 -7.5l-7.5 -7.5l152 -48l3 18zM250 694q-22 -2 -39 -6l88 -29l3 19zM97 543l-3 -18l178 -57l3 18zM91 500l-3 -18l178 -57l3 19zM547 221h-59l91 -29l3 18zM73 376l178 -57l3 18 l-178 57zM477 221h-59l158 -51l3 19zM79 415l-3 -18l178 -57l3 18zM398 202l-3 -18l175 -56l3 18zM85 458l-3 -18l178 -57l3 18zM82 437l-3 -19l178 -56l3 18zM88 479l-3 -18l178 -57l3 18zM395 181l-3 -18l176 -56l2 18zM94 522l-3 -18l178 -57l3 18z" glyph-name="G" horiz-adv-x="592" unicode="G"/>
<glyph d="M268 431h-186l37 264h186zM375 230h188l-31 -230h-188zM64 275l-2 -18l178 -57l2 18zM61 254l-2 -19l178 -56l2 18zM58 232l-2 -18l178 -57l2 18zM118 413h-34l-1 -7l488 -156l2 18zM55 211l-2 -18l178 -57l2 18zM82 403l-3 -19l431 -138h60zM73 339l-2 -18l231 -75h59z M79 381l-2 -18l364 -117h59zM76 360l-2 -18l298 -96h59zM67 296l-2 -18l178 -57l2 18zM52 190l-2 -18l178 -57l2 18zM31 41l-2 -18l69 -23h60zM37 83l-2 -18l178 -57l2 18zM70 317l-2 -18l178 -57v4h46zM34 62l-2 -18l136 -44h44v5zM28 20l-2 -19l3 -1h59zM49 168l-2 -18 l178 -57l2 19zM46 147l-2 -18l178 -57l2 18zM40 105l-2 -18l178 -57l2 18zM43 126l-2 -18l178 -57l2 18zM420 517l-2 -18l179 -58l3 18zM441 666l-2 -18l179 -58l3 18zM435 623l-2 -18l179 -58l3 19zM429 581l-2 -18l179 -58l3 18zM432 602l-2 -18l179 -58l3 18zM438 645 l-3 -19l180 -57l3 18zM444 687l-2 -18l179 -58l3 18zM626 695h-59l63 -20l3 18zM557 695h-60l130 -41l3 18zM487 695h-42l-1 -5l180 -57l3 18zM417 496l-2 -19l180 -57l2 18zM327 413h-60l312 -100l3 19zM396 413h-59l246 -78l2 18zM408 432l-2 -18l180 -58l2 18zM257 413 h-59l379 -121l2 18zM188 413h-60l446 -142l2 18zM426 559l-2 -18l180 -57l2 18zM423 538l-2 -18l179 -58l3 18zM411 453l-2 -18l179 -58l3 18zM414 474l-2 -18l179 -58l3 19z" glyph-name="H" horiz-adv-x="586" unicode="H"/>
<glyph d="M57 226l174 -56l-2 -18l-174 56zM54 205l174 -56l-2 -18l-174 56zM51 184l174 -56l-2 -18l-174 56zM48 162l175 -55l-3 -18l-174 55zM60 248l174 -56l-2 -18l-174 55zM69 311l174 -55l-2 -19l-174 56zM72 333l174 -56l-2 -18l-174 56zM63 269l174 -56l-2 -18l-174 56z M66 290l174 -56l-2 -18l-174 56zM42 120l174 -56l-2 -18l-174 56zM33 56l174 -56h-59l-117 38zM45 141l174 -56l-2 -18l-174 56zM30 35l108 -35h-59l-51 17zM304 684l-35 11h36zM27 13l42 -13h-43zM36 77l175 -55l-3 -19l-174 56zM75 354l174 -56l-2 -18l-174 56zM39 99 l175 -56l-3 -18l-174 55zM108 588l174 -56l-2 -18l-174 56zM117 652l174 -56l-2 -18l-174 56zM105 567l174 -56l-2 -18l-174 56zM111 609l174 -55l-2 -19l-174 56zM120 673l174 -56l-2 -18l-174 56zM114 631l174 -56l-2 -18l-174 56zM259 695l44 -14l-2 -18l-101 32h59z M190 695l110 -35l-2 -18l-168 53h60zM123 695l174 -56l-2 -18l-174 55zM93 482l174 -56l-2 -18l-174 56zM84 418l174 -56l-2 -18l-174 56zM90 460l174 -55l-2 -19l-174 56zM87 439l174 -56l-2 -18l-174 56zM102 546l174 -56l-2 -18l-174 55zM81 397l174 -56l-2 -18l-174 55z M78 375l174 -56l-2 -18l-174 56zM99 524l174 -56l-2 -18l-174 56zM96 503l174 -56l-2 -18l-174 56z" glyph-name="I" horiz-adv-x="259" unicode="I"/>
<glyph d="M323 204l-2 -18l-177 56l2 19zM320 183l-2 -19l-177 57l2 18zM309 119q-1 -5 -2 -8.5t-3 -8.5l-172 55l2 18zM314 140q-2 -5 -2.5 -9t-1.5 -9l-175 57l2 18zM326 225l-2 -18l-177 57l2 18zM338 310l-2 -18l-177 57l2 18zM332 268l-2 -18l-177 56l2 18zM329 246l-2 -18 l-177 57l2 18zM302 99q-1 -5 -2.5 -8.5t-4.5 -7.5l-210 67h46v4zM335 289l-2 -18l-177 57l2 18zM268 44q-5 -4 -8.5 -7.5t-8.5 -6.5l-246 79l2 18zM185 3q-20 -3 -43 -3h-5l-139 45l2 18zM317 161l-1 -7l-1 -11l-177 57l2 18zM58 0h-60l-6 2l2 18zM294 80q-3 -5 -5 -8.5 t-5 -7.5l-268 86h59zM282 61q-2 -4 -5 -7.5t-7 -7.5l-262 84l2 18zM127 0h-59l-73 23l2 19zM248 28q-5 -4 -10.5 -7t-11.5 -5l-224 71l2 19zM221 14q-14 -6 -30 -9l-191 61l1 18zM374 566l-2 -18l-178 56l3 18zM377 587l-3 -18l-177 56l3 19zM341 332l-3 -19l-176 57l2 18z M380 608l-3 -18l-177 57l3 18zM371 544l-3 -18l-177 57l3 18zM392 693l-3 -18l-61 20h59zM389 672l-3 -18l-128 41h60zM386 651l-3 -18l-177 56l1 6h41zM383 630l-3 -19l-177 57l3 18zM368 523l-3 -18l-177 57l3 18zM350 395l-3 -18l-177 57l3 18zM365 502l-2 -18l-178 56 l3 19zM347 374l-2 -18l-177 57l2 18zM344 353l-2 -18l-178 56l3 19zM353 417l-2 -18l-178 56l3 18zM362 481l-3 -19l-177 57l3 18zM356 438l-2 -18l-177 57l2 18zM359 459l-3 -18l-177 57l3 18z" glyph-name="J" horiz-adv-x="337" unicode="J"/>
<glyph d="M59 231h186l-32 -231h-186zM191 694l113 -36l-3 -18l-169 54h59zM123 694l178 -57l-3 -18l-177 57zM261 694l46 -14l-2 -18l-103 32h59zM117 652l178 -57l-3 -19l-178 57zM120 673l178 -57l-2 -18l-178 57zM348 22l66 -22h-59l-2 1zM114 630l178 -57l-2 -18l-178 57z M324 118l218 -70l5 -20l-218 70zM318 142l220 -70l4 -20l-218 70zM342 46l142 -46h-59l-78 25zM313 166l219 -70l4 -20l-218 70zM336 70l217 -70h-59l-154 49zM331 94l217 -70l5 -20l-218 69zM69 311l195 -63h-58l-139 45zM271 424l-2 -18l-178 57l2 18zM66 290l130 -42h-58 l-74 24zM307 190l219 -70l5 -20l-219 70zM63 268l64 -20h-58l-8 2zM307 683l-36 11h38zM651 684l-36 11h41zM96 503l178 -57l-2 -19l-178 57zM111 609l178 -57l-2 -18l-178 57zM108 588l178 -57l-2 -18l-178 57zM105 566l178 -57l-2 -18l-178 57zM102 545l178 -57l-2 -18 l-178 57zM99 524l178 -57l-2 -18l-178 57zM370 504l162 -52l-8 -16l-162 51zM361 485l161 -52l-9 -16l-162 51zM421 599l160 -51l-9 -17l-160 52zM431 618l159 -51l-8 -17l-160 52zM400 561l161 -52l-8 -16l-161 52zM391 542l160 -52l-8 -16l-161 52zM381 523l161 -52 l-9 -16l-161 52zM411 580l160 -51l-9 -17l-159 52zM441 637l159 -51l-8 -16l-159 51zM471 694l159 -51l-8 -16l-159 51zM605 695l44 -14l-8 -16l-95 30h59zM535 695l105 -33l-9 -16l-155 49h59zM461 675l158 -51l-8 -16l-158 51zM451 656l159 -51l-9 -16l-159 51zM84 417 l404 -129l5 -20l-411 131zM350 466l162 -52l-9 -16l-161 51zM78 375l421 -135l4 -20l-427 137zM81 396l413 -132l4 -20l-419 134zM75 354l429 -138l5 -20l-436 139zM72 332l437 -140l6 -20l-220 70l-2 6h-18l-205 66zM296 238l219 -70l5 -20l-219 70zM302 214l219 -70l5 -20 l-219 70zM87 439l395 -127l6 -20l-403 129zM331 428l161 -52l-8 -17l-163 52zM340 447l162 -52l-8 -17l-162 52zM279 400l198 -64l5 -20l-394 126l2 18l178 -57v-4zM483 357l-7 -15v-2l-188 60h28l4 9z" glyph-name="K" horiz-adv-x="552" unicode="K"/>
<glyph d="M403 175l-24 -175h-354l24 175h354zM89 445l177 -57l-2 -18l-177 57zM80 381l177 -57l-2 -18l-177 57zM74 338l177 -56l-2 -18l-178 56zM71 317l177 -56l-2 -19l-177 57zM86 424l177 -57l-2 -18l-178 56zM83 402l177 -56l-2 -18l-178 56zM77 360l177 -57l-2 -18l-177 57z M62 253l177 -56l-1 -5h-44l-134 43zM68 296l177 -57l-2 -18l-177 57zM308 689l-17 6h18zM56 211l58 -19h-59l-1 1zM65 275l177 -57l-2 -18l-177 57zM59 232l125 -40h-59l-68 22zM142 695l160 -51l-3 -18l-177 56l2 13h18zM122 679l177 -57l-3 -18l-177 57zM92 466l177 -56 l-3 -19l-177 57zM116 636l177 -56l-3 -18l-177 56zM211 695l94 -30l-3 -18l-150 48h59zM280 695l28 -9l-3 -18l-84 27h59zM113 615l177 -56l-3 -19l-177 57zM119 658l177 -57l-3 -18l-177 57zM98 509l177 -57l-3 -18l-176 57zM110 594l177 -57l-3 -18l-177 57zM101 530 l177 -57l-3 -18l-177 57zM95 487l177 -56l-2 -18l-178 56zM104 551l177 -56l-2 -18l-178 56zM107 573l177 -57l-3 -18l-177 56z" glyph-name="L" horiz-adv-x="399" unicode="L"/>
<glyph d="M243 695l22 -288l-79 -407h-181l140 695h98zM462 401l-6 -18l139 -44l7 17zM376 695h-59l100 -32l-2 19zM456 380l-5 -17l138 -44l6 17zM473 441l-4 -17l140 -45l5 17zM443 340l-5 -17l138 -44l5 17zM285 368l3 -19l281 -91l5 18zM287 345l2 -19l273 -88l6 17zM480 462 l-5 -18l141 -45l5 17zM449 360l-5 -17l139 -44l5 17zM307 695h-46l1 -4l156 -51l-1 20zM262 687l1 -19l156 -50v19zM264 664l1 -19l156 -50l-1 19zM265 642l2 -20l156 -50l-1 20zM289 322l2 -19l264 -85l7 17zM268 596l2 -19l156 -50l-2 19zM492 502l-4 -17l141 -46l6 18z M266 619l3 -20l155 -49l-2 19zM271 554l155 -50l-1 20l-155 49zM486 482l-5 -17l141 -46l6 17zM468 421l-6 -17l140 -45l6 17zM279 459l1 -19l153 -49l-1 19zM281 436l1 -19l153 -49l-1 19zM277 482l2 -19l154 -50l-2 20zM275 505l2 -20l154 -49l-2 19zM604 47l148 -47h26 v10l-172 55zM274 528l1 -20l154 -49v19zM308 72l2 -20l164 -52h10l4 14zM283 414l1 -20l152 -49l-1 20zM437 342l-153 49l2 -20l152 -48zM303 140l2 -19l198 -64l5 17zM294 254l2 -19l240 -77l5 17zM296 231l1 -19l232 -74l5 17zM292 277l2 -20l249 -79l5 17zM298 209l1 -20 l223 -71l6 17zM291 300l1 -20l257 -82l6 17zM501 54l-196 63l1 -19l190 -61zM272 550l1 -19l155 -50l-1 20zM301 163l2 -19l206 -67l6 18zM300 186l1 -20l215 -68l6 17zM630 369l-1 -19l167 -53l1 18zM499 522l-6 -17l142 -45l3 8l-1 -9l166 -53l1 19zM505 543l-6 -18 l306 -97v18zM511 563l-5 -17l300 -96l1 18zM517 583l-5 -17l295 -95l1 19zM633 412l-1 -18l166 -53l2 18zM523 603l-5 -17l291 -93v19zM632 391l-1 -19l166 -53l2 18zM638 456l-2 -19l165 -53l2 19zM635 434l-1 -18l166 -54l1 19zM793 695h-59l85 -27l2 18zM724 695h-59 l153 -49l1 18zM628 347l-1 -18l168 -54l1 19zM654 695h-59l221 -71l2 19zM804 695l16 -6l1 6h-17zM529 624l-5 -18l286 -91l1 19zM542 664l-6 -17l277 -88l1 18zM536 644l-5 -17l280 -90l2 18zM585 695h-34l-2 -8l266 -85l2 19zM548 684l-6 -17l272 -87l1 19zM620 239 l-2 -19l170 -54l2 19zM604 44l-2 -19l80 -25h60zM626 326v-19l167 -54l2 19zM603 22l-2 -18l12 -4h59zM608 87l-2 -18l172 -56l1 19zM313 3l1 -3h11zM311 26l1 -19l23 -7h59zM609 109l-1 -19l171 -55l2 19zM309 49l3 -19l93 -30h59zM307 95l1 -20l181 -58l5 17zM601 0v0h2 h-2zM623 282l-1 -18l169 -54l1 18zM611 130l-2 -18l173 -55v19zM387 695l29 -9l-1 9h-28zM625 304l-1 -19l168 -54l2 19zM621 261l-1 -19l169 -54l1 18zM613 152l-2 -18l172 -55v18zM615 174l-2 -19l171 -54l1 18zM618 217l-2 -18l171 -55v19zM616 196l-2 -19l171 -55l1 19z " glyph-name="M" horiz-adv-x="788" unicode="M"/>
<glyph d="M172 695l87 -318l-50 -377h-178l97 695h44zM334 695l20 -6l-2 6h-18zM323 695h-59l97 -30l-6 20zM190 694l5 -21l180 -57l-6 20zM381 10l3 -10h27zM254 695h-59l173 -55l-6 21zM367 59l6 -21l117 -38h60zM339 156l7 -20l266 -86l2 19zM347 132l5 -21l257 -82l2 18z M333 181l6 -21l276 -88l2 18zM374 34l5 -21l42 -13h59zM197 669l6 -20l180 -58l-6 21zM354 108l6 -21l246 -79l2 18zM217 596l5 -21l181 -57l-6 20zM265 425l5 -21l183 -58l-6 21zM251 474l6 -21l182 -58l-6 21zM454 342l-182 59l6 -21l182 -58zM258 450l6 -21l182 -58 l-7 20zM360 83l6 -21l194 -62h45v5zM701 689l1 6h-21zM210 621l6 -21l181 -58l-6 21zM326 205l6 -21l286 -91l2 18zM203 645l6 -21l180 -57l-6 20zM224 572l6 -21l181 -58l-6 21zM230 547l6 -21l181 -57l-6 20zM244 498l6 -20l182 -58l-7 20zM237 523l6 -21l182 -58l-6 21z M484 444l-3 -18l176 -56l2 18zM509 614l-3 -18l174 -56l3 18zM320 230l5 -21l296 -95l2 18zM500 550l-3 -18l174 -56l3 18zM503 571l-3 -18l174 -56l3 19zM493 508l-3 -18l175 -56l3 18zM497 529l-4 -18l175 -56l3 18zM490 486l-3 -18l175 -56l3 18zM532 695h-12l-2 -14 l174 -56l3 18zM512 635l-3 -18l174 -56l3 18zM671 695h-59l86 -27l3 18zM601 695h-59l153 -49l3 19zM515 657l-3 -19l174 -55l3 18zM518 678l-3 -18l174 -56l3 18zM506 593l-3 -18l174 -56l3 18zM466 316l-2 -11l-3 13l-183 58l6 -21l355 -113l2 18zM299 303l6 -21l325 -104 l2 18zM285 352l6 -21l345 -110l2 18zM487 465l-3 -18l175 -56l3 18zM306 279l6 -21l315 -101l2 18zM312 254l6 -21l306 -97l2 18zM292 327l6 -20l334 -108l3 19zM478 401l-3 -18l175 -56l3 18zM481 423l-3 -19l175 -56l3 19zM472 359l-3 -18l176 -56l2 18zM475 380l-3 -18 l176 -56l2 18zM469 338l-3 -19l175 -56l3 18z" glyph-name="N" horiz-adv-x="653" unicode="N"/>
<glyph d="M359 0h-186q-156 0 -135 156l54 384q22 155 178 155h16l-77 -546h170zM390 104l-2 -18l135 -43q3 3 6 6.5t7 7.5zM393 125l-2 -18l146 -47q2 4 4.5 7.5t5.5 8.5zM396 146l-3 -18l157 -49q2 4 3.5 7.5t3.5 8.5zM402 189l-2 -18l165 -53q2 5 2.5 9t2.5 9zM399 168l-2 -18 l161 -52q2 4 3 8t3 9zM414 274l-3 -18l168 -54l3 19zM417 295l-3 -18l168 -53l3 18zM411 253l-2 -18l167 -54l2 18zM408 232l-3 -19l168 -53l3 18zM378 19l-2 -18l2 -1h19q9 0 17.5 0.5t16.5 1.5zM387 83l-3 -19l118 -37q11 7 17 13zM405 210l-3 -18l168 -53l2 17l1 1z M420 317l-2 -18l167 -54l2 18zM430 695l189 -60q-4 7 -8 13t-9 11l-113 36h-59zM285 560l-2 -17h56zM381 40l-2 -18l59 -19q8 2 16.5 4t16.5 4zM288 581l-2 -18l63 -20h60zM384 61l-2 -18l93 -30q12 4 24 12zM297 645l-2 -18l329 -105l2 18zM450 530l-3 -19l168 -53l2 18z M294 624l-2 -18l329 -106l2 18zM291 603l-2 -19l130 -41h33l-2 -10l168 -54l2 18zM303 688l-2 -18l328 -105q1 5 1 9t-1 9zM300 666l-2 -18l329 -105l2 18zM350 695h-46v-4l325 -104q0 5 -0.5 9.5t-1.5 9.5zM598 664q-33 29 -98 31zM420 695h-59l265 -85l-6 21zM444 487 l-3 -18l168 -54l2 18zM447 508l-3 -18l168 -54l2 19zM429 381l-3 -19l168 -53l2 18zM435 423l-3 -18l168 -54l3 19zM426 359l-3 -18l168 -53l3 18zM432 402l-3 -18l168 -54l2 18zM423 338l-3 -18l168 -54l2 18zM441 466l-3 -18l168 -54l2 18zM438 444l-3 -18l168 -53l2 18z " glyph-name="O" horiz-adv-x="589" unicode="O"/>
<glyph d="M237 197l-27 -197h-185l27 197h185zM294 594l-3 -18l-177 57l3 18zM89 215h-33l1 10zM114 629l177 -56l-2 -18l-178 56zM381 544h-59l-20 6l2 19zM311 544h-10v3zM288 552l-2 -18l-178 56l3 18zM307 695l-2 -12l-38 12h40zM305 680l-2 -19l-106 34h59zM300 637l-3 -18 l-177 56l3 18zM297 616l-3 -19l-177 57l3 18zM303 658l-3 -18l-172 55h59zM273 445l-2 -18l-177 57l2 18zM285 530l-3 -18l-177 57l3 18zM262 363l-177 57l2 18l177 -57zM465 695l106 -34q7 -5 12 -11.5t9 -13.5l-186 59h59zM267 403l-3 -19l-177 57l3 18zM532 251 q-8 -7 -18 -13l-436 139l3 18zM436 215h-8h-51l-308 98l3 19zM279 488l-2 -18l-178 56l3 18zM270 424l-2 -18l-178 56l3 18zM282 509l-2 -18l-178 56l3 19zM158 215h-59l-41 13l2 18zM276 466l-3 -18l-177 57l3 18zM577 326q-1 -5 -2.5 -9t-3.5 -8l-184 59q8 4 14 14z M607 516l-3 -18l-296 95l2 18zM604 495l-2 -18l-297 95l2 18zM595 431l-2 -18l-174 55l3 19zM601 474l-3 -19l-175 57q-2 14 -11 22zM228 215h-60l-108 34l3 19zM610 537l-3 -18l-296 95l2 18zM593 632q4 -5 6.5 -11t3.5 -11l-267 85h59zM479 695q55 -1 86 -29l-90 29h4z M613 559l-2 -18l-297 95l2 18zM611 582q2 -5 1.5 -10t0.5 -10l-296 95l2 18zM605 606q1 -5 2 -10.5t3 -10.5l-290 93l2 17h4zM598 452l-3 -18l-173 56v7q1 8 1 11zM482 223q-9 -3 -18.5 -4.5t-19.5 -2.5l-371 119l2 18zM548 268q-3 -4 -6.5 -7.5t-7.5 -6.5l-453 144l3 19z M511 236q-12 -8 -25 -12l-410 132l2 18zM297 215h-59l-174 56l2 18zM367 215h-60l-240 77l2 18zM592 410l-2 -18l-174 55l3 18zM586 367l-2 -18l-174 56l2 14l1 4zM589 388l-2 -18l-174 56l3 18zM582 346q-1 -7 -4 -17l-175 56q2 6 6 17zM570 306q-2 -5 -3.5 -8.5t-4.5 -8.5 l-228 73h30q11 0 19 4zM560 287q-3 -5 -5.5 -8.5t-4.5 -7.5l-286 91h60z" glyph-name="P" horiz-adv-x="557" unicode="P"/>
<glyph d="M237 333l-2 -18l-164 53l3 18zM240 355l-2 -18l-164 52l3 18zM231 291l-2 -18l-164 52l3 18zM234 312l-2 -18l-164 52l3 19zM228 270l-2 -19l-164 53l3 18zM222 227l-2 -18l-164 52l3 18zM243 376l-2 -18l-164 52l3 18zM225 248l-2 -18l-164 53l3 18zM219 206l-2 -18 l-164 52l3 18zM264 525l-2 -18l-164 52q2 5 2.5 9t2.5 9zM258 482l-2 -18l-164 53l3 18zM261 504l-2 -18l-164 52v2l3 16zM347 543h-59l-177 57q2 7 7 16zM416 543h-59l-237 76q6 9 11 15zM255 461l-2 -18l-164 52l3 19zM246 397l-2 -18l-164 53l3 18zM252 440l-2 -18 l-164 52l3 18zM249 419l-2 -19l-164 53l3 18zM189 -30l196 -62l2 -17h-9l-194 62zM518 43q-5 -4 -8.5 -7t-8.5 -6l-260 83l7 17zM434 3q-20 -3 -42 -3h-6l-166 53l6 17zM216 184l-2 -18l-164 53l3 18zM213 163l-2 -14h28l-4 -12l-188 60l3 19zM569 160l-1 -4q0 -4 -1 -7 t-2 -7l-168 55l3 18zM497 695l94 -30q12 -10 19 -25l-172 55h51h8zM169 670q5 3 11 6t12 5l431 -137l-1 -4l-2 -15zM277 543h-10l-2 -15l-161 52q1 5 2.5 8.5t2.5 8.5zM226 114l-7 -16l-178 57v1l3 17zM211 75l-6 -17l-167 53v9.5t1 9.5zM219 95l-7 -17l-174 55l3 19z M189 15l-5 -15h-6l-112 35q-4 5 -8 11t-8 14zM233 134l-6 -17l-183 59l3 18zM167 0q-63 1 -95 30zM196 35l-6 -17l-142 45q-3 9 -7 22zM203 55l-6 -17l-156 50q-3 11 -2 20zM578 224l-3 -18l-169 54l3 19zM605 416l-3 -18l-169 54l3 18zM599 373l-3 -18l-169 54l3 19z M602 395l-3 -19l-169 55l3 18zM608 437l-3 -18l-169 54l3 18zM611 458l-3 -18l-169 55l3 18zM590 309l-3 -18l-169 55l3 18zM596 352l-3 -18l-169 54l3 18zM593 331l-3 -18l-169 54l3 18zM613 636q4 -9 7 -22l-252 81h59zM614 480l-3 -18l-169 54l3 18zM587 288l-3 -18 l-169 54l3 18zM624 588v-10v-10l-387 125q8 1 16.5 1.5t18.5 0.5h17zM510 694q46 -3 74 -23zM621 611q3 -11 3 -20l-325 104h59zM617 501l-3 -18l-169 54l1 6h-19l-295 94q4 4 7 7.5t6 7.5zM624 565q0 -5 -0.5 -9t-1.5 -9l-426 136q17 6 34 9zM620 522l-3 -18l-469 150 q4 4 8.5 7.5t8.5 6.5zM471 14q-14 -6 -31 -9l-213 68l6 17zM373 0l2 -19l-163 52l7 17l157 -50h-3zM375 -22l3 -20l-173 55l7 17zM497 28q-9 -7 -21 -12l-241 77l6 17zM378 -45l2 -20l-181 58l5 17zM229 -109h-59l-8 3l6 17zM584 267l-3 -18l-169 54l3 18zM299 -109h-59 l-71 23l6 17zM368 -109h-59l-133 43l6 16zM381 -69l3 -20l-193 62l6 17zM565 139q-1 -7 -4 -17l-167 53l3 18zM572 182l-2 -18l-170 54l3 18zM575 203l-2 -18l-170 54l3 18zM581 246l-3 -19l-169 55l3 18zM533 61q-6 -8 -13 -15l-271 87l6 16h2zM545 79q-3 -4 -5.5 -8 t-5.5 -8l-267 86h59zM560 119q-1 -5 -2.5 -9t-2.5 -8l-164 52l3 18zM553 99q-2 -8 -7 -17l-209 67h53l1 2z" glyph-name="Q" horiz-adv-x="583" unicode="Q"/>
<glyph d="M235 222q-4 -24 -8 -52.5t-8.5 -58.5t-8.5 -58.5t-7 -52.5h-178l31 222h179zM414 537h-59l-243 78l2 18zM345 537h-59l-177 56l3 19zM270 472l-3 -18l-170 54l1 11h25zM108 590l167 -53h-59l-110 35zM273 493l-3 -18l-137 44h59zM276 515l-3 -19l-71 23h60zM355 0h-12 l-2 4zM502 86l6 -21l-202 65l-6 21zM516 37l6 -21l-203 65l-5 21zM508 62l6 -21l-202 65l-6 21zM494 0h-59l-102 32l-6 21zM425 0h-60l-24 8l-6 21zM557 291q-2 -4 -6 -7.5t-8 -7.5l-458 147l2 18zM272 519h4v-1zM320 78l203 -65q2 -5 5 -13h-24l-177 57zM495 111l6 -21 l-203 65l-6 21zM596 390l-1 -10l-1 -8l-172 54l3 19zM476 695l113 -36q4 -5 9 -11t9 -14l-190 61h59zM206 537h-59l-44 14l2 18zM230 240h-59l-107 34l3 18zM261 411l-170 55l3 18l170 -55zM267 451l-3 -18l-170 54l2 18zM91 240h-32l2 10zM136 537h-35l2 11zM161 240h-60 l-40 13l3 18zM608 475l-2 -18l-172 54l3 19zM617 539l-2 -18l-494 158l2 16h6zM614 517l-2 -18l-494 158l2 18zM611 496l-2 -18l-172 55l1 4h-13l-310 99l2 18zM488 135l7 -21l-203 65l-6 21zM605 454l-2 -19l-172 55l3 18zM602 432l-2 -18l-172 55l3 18zM608 630 q5 -11 8 -21l-268 86h59zM619 560q1 -5 0 -9t-1 -9l-479 153h59zM497 695q18 0 36.5 -4.5t31.5 -12.5q4 -3 9 -6.5t10 -7.5l-97 31h10zM617 606q1 -5 1.5 -10t0.5 -10l-341 109h59zM619 582q1 -5 0.5 -9.5t0.5 -9.5l-411 132h59zM599 411l-2 -18l-172 55l3 18zM459 233 q2 -5 3.5 -10t3.5 -11l-393 126l3 18zM467 209q1 -5 3 -10.5t4 -10.5l-404 129l3 18zM488 246q-7 -2 -15 -3.5t-16 -3.5q0 -1 0.5 -1t0.5 -1l-382 122l2 18zM482 159q1 -5 2.5 -10t2.5 -10l-203 65l-5 20zM474 184l6 -21l-202 65l-4 12h-34l-173 55l3 19zM571 309l-6 -8 t-5 -8l-472 151l3 19l170 -55l-2 -14h46zM518 259q-13 -7 -25 -11l-414 133l3 18zM588 348q-1 -5 -2.5 -9t-3.5 -8l-197 63h33l1 8zM581 328q-3 -5 -4.5 -8.5t-4.5 -7.5l-257 82h60zM593 368q-1 -4 -1.5 -8t-2.5 -9l-170 54l3 18zM540 274q-9 -8 -19 -13l-439 141l3 18z" glyph-name="R" horiz-adv-x="563" unicode="R"/>
<glyph d="M608 695l-23 -168l-308 1l23 167h308zM52 173h-18l-2 -12l427 -137q5 3 9.5 6l10.5 7zM29 136l-3 -18l362 -116q9 2 17.5 3.5t17.5 4.5zM192 173h-60l366 -117q6 5 12 15zM23 94l-3 -18l235 -76h59zM340 215l19 -16l-1 -9l173 -56l3 18zM20 72l-3 -18l169 -54h59z M333 172l-60 1l249 -80l2 8t3 9zM262 173h-59l309 -99q2 4 4 7.5t4 8.5zM86 443l4 -12l446 -143q-4 11 -13 20q-4 4 -6 5l-433 139zM122 173h-60l419 -134q4 3 7.5 6.5l7.5 7.5zM358 187l-2 -15h-13l184 -59q2 4 3 12l1 6zM239 695l44 -14l2 14h-25h-21zM32 158l-3 -19 l399 -128q4 2 7.5 3t7.5 2q3 2 5.5 3t6.5 3zM14 30l-3 -18l36 -12h59zM289 253l43 -33l202 -64l3 18zM17 51l-3 -18l102 -33h59zM11 9l-1 -9h27zM26 115l-3 -18l302 -97h42q5 1 14 1zM106 623q-3 -4 -4 -8t-3 -9l166 -53l3 18zM98 603q-4 -8 -5 -17l169 -54l3 18zM119 641 q-3 -4 -5.5 -7.5t-5.5 -7.5l160 -52l3 19zM92 583q-1 -5 -3 -16v-2l170 -54l3 18zM157 673q-5 -2 -10 -5.5t-10 -6.5l137 -44l3 18zM187 686q-7 -2 -13.5 -4.5t-13.5 -6.5l117 -37l3 18zM239 291l43 -32l255 -82l3 18zM231 694q-10 -1 -20 -2.5t-18 -4.5l87 -28l3 19z M88 562l-2 -18l224 -72q-11 8 -22.5 16.5t-22.5 17.5zM135 658q-8 -6 -14 -14l150 -48l3 18zM138 368l44 -33l361 -116q1 5 1 9.5v9.5zM107 400q12 -15 23 -26h1l413 -133v10t-1 10zM189 330l42 -33l309 -99l3 18zM92 427q3 -5 5.5 -11t5.5 -11l440 -141q-2 12 -5 21z M83 519q0 -5 -0.5 -9.5t0.5 -9.5l333 -106q-10 8 -21 16t-23 17zM86 541q-1 -5 -1.5 -9.5t-0.5 -9.5l279 -89q-10 8 -21 16t-24 17zM82 497q1 -5 0.5 -9.5t0.5 -9.5l382 -123q-8 8 -18.5 16t-23.5 17zM82 475q1 -5 1 -10v-10l428 -136q-7 5 -16.5 13t-21.5 18z" glyph-name="S" horiz-adv-x="542" unicode="S"/>
<glyph d="M103 695h420l-24 -170h-420zM152 185l-3 -18l168 -54l3 18zM371 496l2 11h-37zM148 163l-2 -18l168 -54l3 19zM154 206l-2 -18l168 -54l3 18zM160 249l-2 -19l168 -53l3 18zM157 227l-2 -18l168 -54l3 18zM145 142l-2 -18l168 -54l3 18zM127 14l-1 -14h47zM134 57l-3 -18 l122 -39h49v3zM143 121l-3 -18l168 -54l3 18zM131 36l-3 -18l55 -18h60zM136 78l-2 -18l168 -54l3 18zM163 270l-2 -18l168 -54l3 18zM140 100l-3 -19l168 -53l3 18zM196 504l-2 -18l168 -54l3 18zM193 483l-2 -18l168 -54l3 18zM187 440l-2 -18l168 -54l3 18zM190 461 l-2 -18l168 -54l3 19zM257 507h-60v0l168 -54l3 18zM326 507h-59l101 -32l3 18zM169 312l-2 -18l168 -54l3 19zM172 334l-2 -18l168 -54l3 18zM166 291l-2 -18l168 -54l3 18zM175 355l-2 -18l168 -54l3 18zM181 398l-2 -19l168 -53l3 18zM184 419l-2 -18l168 -54l3 18z M178 376l-2 -18l168 -54l3 18z" glyph-name="T" horiz-adv-x="448" unicode="T"/>
<glyph d="M220 0h-68q-126 1 -102 177l73 518h194zM393 206l-1 -7l-1 -11l182 -58q1 5 2 9t1 9zM391 185q-2 -5 -3 -9t-3 -8l182 -58q2 5 3 8.5t1 8.5zM384 165q-5 -9 -11 -15l186 -60q3 4 4 8t3 9zM370 147q-9 -8 -24 -11l203 -65q3 4 4.5 7.5t4.5 8.5zM397 228l-3 -18l184 -59 l2 18zM408 313l-2 -18l184 -59l2 18zM406 292l-3 -19l184 -58l2 18zM402 270l-2 -18l184 -59l2 18zM337 135h-1h-46q-14 0 -20.5 4.5t-12.5 13.5l-1 -10l282 -91q6 8 10 16zM237 12l-1 -12h38zM399 249l-2 -18l184 -59v5l2 13zM255 140l-2 -19l269 -86q4 4 7.5 7t6.5 8z M252 118l-2 -18l252 -81q6 3 10 6.5t8 7.5zM652 683l2 12h-41zM246 76l-2 -18l179 -58h8q19 0 37 5zM249 97l-2 -18l226 -73q12 4 26 11zM243 54l-2 -18l112 -36h60zM240 33l-2 -18l46 -15h59zM411 334l-2 -18l184 -59l2 18zM456 653l-2 -18l183 -59l3 19zM450 611l-2 -18 l184 -59l2 18zM453 632l-2 -18l184 -59l2 18zM447 590l-2 -19l184 -58l2 18zM459 675l-2 -18l184 -59l2 18zM603 695h-59l106 -33l2 18zM444 568l-2 -18l184 -59l2 18zM534 695h-60l172 -55l3 18zM464 695h-2l-2 -17l183 -59l3 18zM423 419l-2 -18l184 -59l2 18zM426 441 l-2 -19l184 -58l2 18zM420 398l-2 -18l184 -59l2 18zM414 355l-2 -18l184 -59l2 19zM417 377l-2 -18l184 -59l2 18zM429 462l-2 -18l184 -59l2 18zM435 504l-2 -18l184 -59l2 19zM438 526l-2 -18l184 -59l2 18zM441 547l-2 -18l184 -59l2 18zM432 483l-2 -18l184 -59l2 18z " glyph-name="U" horiz-adv-x="598" unicode="U"/>
<glyph d="M292 0h-180q-5 177 -15 347.5t-14 347.5h200zM314 195l-5 -17l171 -55l5 17zM320 215l-6 -17l172 -55l6 17zM332 256l-5 -18l172 -55l6 18zM327 235l-6 -17l171 -55l6 17zM338 276l-4 -17l171 -55l6 17zM358 337l-6 -18l173 -55l5 17zM364 357l-6 -17l173 -56l6 17z M351 316l-5 -17l172 -55l6 17zM345 296l-5 -17l172 -55l5 17zM307 153l-1 -19l161 -52l6 18zM307 64v-19l134 -43l5 17zM307 175v-3l-1 -16l167 -53l5 17zM307 41l1 -19l70 -22h59zM660 688l2 7h-24zM307 19l1 -19h1h59zM307 108v-19l146 -47l7 17zM369 377l-4 -17l172 -56 l6 18zM307 130v-19l153 -49l6 17zM307 86v-19l141 -45l5 17zM451 640l-5 -17l175 -56l6 17zM445 620l-6 -17l175 -56l7 17zM439 600l-6 -18l175 -56l6 18zM457 660l-5 -17l176 -56l5 17zM489 695h-21l-3 -11l176 -57l5 18zM464 681l-5 -18l175 -56l5 17zM559 695h-60 l148 -47l6 17zM628 695h-59l84 -27l6 17zM376 397l-5 -17l173 -55l6 17zM433 580l-6 -18l175 -56l5 17zM401 478l-5 -17l173 -56l6 18zM395 458l-6 -17l175 -56l5 17zM389 438l-5 -17l173 -56l5 17zM426 559l-5 -17l175 -56l5 17zM382 418l-5 -18l173 -55l6 17zM408 499 l-6 -18l174 -55l6 17zM420 539l-5 -17l174 -56l5 17zM413 519l-5 -17l174 -56l7 17z" glyph-name="V" horiz-adv-x="564" unicode="V"/>
<glyph d="M686 695h181l-140 -695h-95l-24 297zM84 502l-1 -19l169 -54l1 19zM86 524l-2 -19l170 -54l1 18zM88 567v-18l170 -55l1 19zM87 545v-18l169 -55l2 19zM296 412l-5 -18l139 -44l4 17zM277 351l-6 -17l140 -45l5 18zM270 331l-5 -17l139 -45l6 17zM263 311l-5 -17l140 -45 l6 17zM290 391l-6 -17l139 -44l5 17zM284 371l-7 -17l140 -44l5 17zM90 589l-1 -19l170 -54l2 18zM53 0v0h1h-1zM244 695h-59l86 -27l2 18zM255 695l18 -6v6h-18zM105 695h-9v-16l172 -55l2 19zM91 611l-1 -19l171 -55l2 19zM92 633v-19l171 -55l1 19zM94 654l-1 -18 l171 -55l2 18zM96 676l-2 -18l172 -55l2 18zM175 695h-59l153 -49l2 18zM79 414l-1 -18l168 -54v19zM78 393l-2 -19l168 -53l1 18zM77 371l-2 -19l167 -53l1 18zM81 436l-2 -18l168 -54l1 18zM82 458l-2 -18l169 -54l1 18zM59 87l-2 -18l215 -69h51l1 3zM238 252l-166 53 l-1 -18l165 -53zM75 349l-1 -19l166 -53l1 19zM73 327l-1 -18l166 -53l2 18zM244 251l-7 -18l143 -45l5 17zM342 63l-279 90l-2 -19l276 -88zM237 231l-1 -3v3l-166 53v-19l304 -97l6 17zM256 291l-5 -17l142 -46l5 18zM251 271l-7 -17l142 -46l5 18zM69 262v-19l298 -96 l6 18zM68 240l-1 -19l294 -94l6 17zM64 175l-2 -19l281 -90l5 18zM65 196v-18l285 -91l4 17zM67 218l-1 -18l290 -93l5 17zM82 461l169 -54l1 19l-169 54zM324 492l-7 -17l267 -86l-1 20zM336 532l-5 -17l250 -80l-2 19zM350 572l-5 -17l232 -74l-1 19zM439 344v-19l154 -50 l-1 20zM330 512l-6 -17l258 -83l-1 20zM317 472l-6 -17l275 -88l-1 19zM437 367l1 -20l153 -49l-1 20zM303 432l-5 -18l138 -44v4l1 -4l153 -49l-2 19zM310 452l-5 -17l283 -91l-1 19zM343 552l-5 -17l241 -77l-1 19zM522 695h-59l100 -32l-2 20zM453 695h-59l170 -55l-1 20 zM390 693l-5 -17l181 -59l-1 20zM532 695l29 -9l-1 9h-28zM357 593l-6 -18l224 -72l-1 20zM364 613l-7 -18l216 -69l-1 20zM370 633l-6 -17l208 -67l-2 20zM376 653l-5 -17l199 -64l-1 19zM383 673l-5 -17l190 -61l-1 19zM447 208l1 -19l156 -51l-1 20zM456 49l2 -19l92 -30 h60zM459 4v-4h12zM457 26l1 -19l23 -7h59zM455 72l1 -20l159 -50l-2 19zM56 44l-2 -19l80 -25h59zM61 131l-1 -19l271 -86l5 17zM57 66l-1 -19l147 -47h59zM454 94v-19l159 -51l-1 20zM60 109l-2 -18l266 -85l6 17zM445 231l1 -20l156 -50l-1 20zM444 253l1 -19l155 -50 l-1 19zM442 276l2 -19l155 -50l-2 19zM442 299v-20l155 -49l-2 19zM440 321l1 -19l154 -50l-1 20zM450 140l2 -19l157 -51l-1 19zM55 22l-2 -19l11 -3h59zM449 163l2 -20l157 -50l-2 19zM452 117l1 -19l158 -51l-1 20zM448 185l1 -19l157 -50l-2 19z" glyph-name="W" horiz-adv-x="791" unicode="W"/>
<glyph d="M346 539l97 156h192l-215 -348zM332 60l9 -22l119 -38h57zM342 34l8 -21l43 -14h28t29 1zM352 9l3 -10h28zM44 107l-10 -15l159 -51q3 4 5 7.5t4 7.5zM20 70l-10 -15l160 -52q3 5 5.5 8.5t4.5 7.5zM32 89l-9 -16l159 -51l4 8t5 8zM126 237l-10 -16l159 -51q3 4 5 7.5 t5 8.5l8 -22l205 -65l-9 21zM294 161l8 -22l206 -66l-8 22zM313 110l8 -21l207 -67l-8 22zM137 255l-10 -15l361 -116l-8 22zM303 135l9 -21l206 -66l-9 21zM67 144l-9 -15l158 -51q3 4 5.5 7.5t5.5 7.5zM215 75l-160 51l-9 -16l159 -51q4 8 10 16zM9 52l-9 -16l116 -37h51 q2 1 2 2zM79 163l-10 -16l159 -51q6 8 10 16zM331 63l196 -62h10l-8 18l-207 66zM91 181l-10 -15l160 -52q2 5 4.5 8.5t5.5 7.5zM-2 33l-10 -15l58 -19h60zM114 218l-10 -15l160 -52q2 5 4.5 8.5t5.5 7.5zM-13 15l-11 -16h2h58zM103 200l-11 -16l160 -51q3 4 5.5 7.5 t4.5 8.5zM158 694h-59l189 -61l-8 21zM106 599l7 -21l226 -72l-8 21zM97 624l7 -21l225 -72l-9 22zM149 274l-10 -16l340 -108l-9 21zM130 524l7 -21l232 -74l-9 22zM122 549l8 -21l228 -73l-8 21zM89 649l7 -21l223 -72l-8 22zM228 694h-60l111 -36l-9 22zM238 694l31 -10 l-4 10h-27zM80 674l7 -21l222 -71l-9 22zM89 694h-15l6 -16l219 -71l-9 22zM114 574l7 -21l228 -73l-9 22zM180 375l7 -21l241 -77l-9 21zM189 350l3 -8l-7 -10l254 -81l-9 22zM184 329l-10 -15l274 -88l-8 22zM161 292l-11 -15l318 -102l-8 22zM172 311l-10 -16l297 -95 l-9 22zM147 475l7 -22l235 -75l-9 22zM156 450l7 -21l235 -76l-8 22zM172 400l7 -21l239 -77l-8 22zM139 500l7 -22l232 -74l-8 22zM164 425l7 -21l238 -76l-9 21z" glyph-name="X" horiz-adv-x="525" unicode="X"/>
<glyph d="M382 215l-30 -215h-173l30 215h173zM449 237q-19 -4 -42 -6l-340 109v9.5t1 9.5zM280 624l-2 -18l-170 55l3 18zM274 582l-2 -18l-170 54l3 18zM277 603l-2 -18l-170 54l3 18zM286 667l-2 -18l-145 46h60zM289 688l-2 -18l-78 25h59zM397 231h-59l-269 86q0 5 -0.5 10 t-0.5 10zM328 231h-59l-193 62q-5 11 -5 21zM189 231h-4q-60 0 -89 30zM259 231h-60l-107 35q-9 9 -15 23zM283 646l-2 -18l-170 54l2 13h16zM278 695h12v-4zM81 466l171 -55q1 -16 9 -22l-183 59zM561 401l-2 -15l-1 -3l-172 55l3 18zM556 695h46l-2 -14zM271 561l-2 -19 l-170 55l3 18zM252 424q1 -3 0 -10l-171 55l3 18l169 -54zM256 454l-2 -18l-170 54l3 18zM262 497l-2 -18l-170 54l3 18zM265 518l-2 -18l-170 54l3 18zM259 475l-2 -18l-170 55l3 18zM268 539l-2 -18l-170 54l3 19zM588 593l-3 -18l-172 55l3 18zM585 571l-3 -18l-172 55 l3 19zM582 550l-3 -18l-172 55l3 18zM579 529l-3 -18l-172 55l3 18zM576 508l-3 -19l-172 56l3 18zM597 657l-3 -19l-172 56v1h54zM600 678l-3 -18l-110 35h59zM480 249q-6 -3 -12.5 -6t-13.5 -5l-387 124q1 5 1.5 9.5t0.5 9.5zM573 486l-3 -18l-172 55l3 18zM594 635 l-3 -18l-172 55l2 18zM591 614l-3 -18l-172 55l3 18zM541 319q-2 -5 -3.5 -9t-4.5 -8l-266 85h3h57zM532 299q-3 -4 -5.5 -7.5t-6.5 -7.5l-445 142l3 19zM570 465l-3 -18l-172 55l3 18zM503 264q-5 -4 -9.5 -7t-9.5 -6l-415 133l1 2l2 16zM549 338q-3 -4 -4 -8l-2 -8 l-206 65h19q10 0 17 8zM519 281l-7.5 -7.5l-6.5 -6.5l-433 138l3 18zM554 359q-1 -5 -2 -9t-3 -9l-174 56q3 4 4.5 8t3.5 9zM564 422l-3 -18l-172 55l3 19zM567 444l-3 -18l-172 55l3 18zM558 380l-3 -18l-172 55l1 8l2 10z" glyph-name="Y" horiz-adv-x="533" unicode="Y"/>
<glyph d="M385 695l-105 -180h-206l25 180h286zM321 163h198l-22 -163h-272zM148 254l-9 -16l166 -54l10 17zM105 179l-10 -16l168 -54l9 16zM115 198l-9 -16l167 -54l10 16zM126 216l-9 -16l167 -53l9 16zM159 273l-9 -16l166 -54l9 16zM138 235l-11 -16l168 -53l9 16zM192 329 l-10 -16l167 -53l9 16zM202 348l-9 -16l167 -54l9 16zM169 291l-9 -16l168 -53l8 16zM181 310l-9 -16l166 -53l10 16zM17 29l-10 -16l41 -13h59zM597 692l1 3h-12zM6 10l-6 -10h38zM39 67l-9 -16l157 -51h13l7 13zM28 48l-10 -16l99 -32h60zM49 85l-9 -16l169 -54l9 16z M82 141l-9 -16l168 -53l9 16zM72 123l-9 -16l167 -54l9 16zM60 104l-9 -16l168 -54l10 16zM93 160l-9 -16l168 -53l9 16zM235 404l-9 -16l166 -53l9 16zM367 629l-9 -16l163 -53l9 16zM377 647l-9 -16l164 -52l9 16zM356 610l-9 -16l164 -52l9 16zM389 666l-9 -16l163 -52 l9 16zM334 572l-9 -15l164 -53l10 16zM345 591l-10 -16l165 -52l9 16zM506 695h-59l128 -41l10 16zM214 366l-9 -16l165 -53l9 16zM437 695h-32l-4 -7l164 -53l9 16zM400 685l-9 -16l162 -52l9 16zM576 695h-60l70 -22l9 16zM268 460l-9 -16l165 -53l10 16zM247 423l-9 -16 l164 -53l10 16zM257 441l-9 -16l166 -53l9 16zM225 385l-10 -16l166 -53l9 16zM301 516l-9 -16l164 -52l10 16zM323 554l-9 -16l164 -53l9 16zM312 535l-10 -16l165 -53l9 16zM290 498l-9 -16l165 -53l9 16zM280 479l-10 -16l165 -53l9 16z" glyph-name="Z" horiz-adv-x="505" unicode="Z"/>
<glyph d="M164 0h-189q16 45 80.5 217.5t180.5 477.5h111l8 -166zM375 251h-59l267 -85l-1 19zM265 242l-6 -17l327 -105l-1 20zM258 222l-7 -17l337 -108l-1 20zM251 202l-6 -17l345 -110l-1 19zM385 337l1 -19l190 -61l-3 20zM390 269l1 -18h-6l196 -62l-1 19zM387 314l1 -19 l189 -61l-2 20zM389 292l1 -20l189 -61l-2 20zM383 360l1 -20l190 -60l-2 19zM397 22l2 -20l6 -2h59zM244 182l-6 -17l354 -113l-2 19zM223 122l-5 -14h48zM395 48l149 -48h52v3l-203 64zM229 142l-5 -17l52 -17h59zM395 45l2 -20l78 -25h59zM236 162l-5 -17l114 -37h45 l1 -14l203 -65l-2 19zM391 90l2 -19l202 -65l-1 20zM305 251h-37l-2 -6l319 -102l-2 19zM381 383l2 -20l189 -60l-2 19zM365 632l1 -19l185 -59l-1 19zM365 655v-19l185 -59l-2 19zM367 587l1 -19l187 -60l-1 20zM366 610l2 -19l185 -60l-1 19zM516 695h-59l85 -27l-1 19z M526 695l15 -4l-1 4h-14zM377 695h-15l1 -14l183 -59l-1 20zM446 695h-59l157 -50l-1 20zM364 678v-20l184 -59l-2 20zM377 451l1 -19l189 -61l-3 20zM375 474l1 -20l189 -60l-2 20zM368 565l1 -20l188 -60l-2 20zM379 405l3 -19l188 -60l-2 19zM379 428l1 -19l188 -61 l-2 20zM370 542l1 -19l188 -60l-2 19zM371 519l2 -19l188 -60l-2 19zM373 496l2 -19l188 -60l-2 19z" glyph-name="a" horiz-adv-x="581" unicode="a"/>
<glyph d="M270 439l-170 55l2 18l171 -55zM276 479l-3 -19l-170 55l2 18zM240 223l-3 -18l-170 55l3 18zM368 271h-59l-230 74l3 18zM279 500l-3 -18l-170 54l2 18zM243 244l-3 -18l-170 55l3 18zM246 266l-3 -18l-170 54l2 18zM297 628l-3 -19l-170 55l2 18zM346 567h-43l2 13z M123 661l171 -55l-3 -18l-170 55zM415 567h-59l-50 17l2 18zM237 202l-3 -18l-170 54l2 18zM288 564l-3 -18l-170 54l2 18zM291 585l-3 -18l-170 54l2 19zM285 542l-3 -18l-170 55l2 18zM282 521l-3 -18l-170 55l2 18zM444 2q-8 -1 -16 -1.5t-16 -0.5h-21l-345 111l3 18z M582 381q-8 -9 -17 -14l-188 60h23q10 1 19 6zM298 427l281 -90q7 -6 12 -12.5t10 -13.5l-504 161l3 19l170 -55l-1 -9h29zM431 232q-3 14 -10 22l206 -66v-3l-3 -15zM559 54q-4 -3 -8 -6.5t-9 -6.5l-277 89h60zM466 695q35 0 59 -7l16 -5q36 -13 60 -38l-158 50h23z M311 623l336 -107l-2 -16l-1 -3l-208 67q-4 2 -7 2l-120 39zM433 695l172 -55q12 -13 18 -25l-250 80h60zM234 181l-3 -19l-170 55l3 18zM63 146h-12l1 4zM133 146h-59l-22 7l3 18zM202 146h-59l-88 28l3 19zM231 159l-2 -13h-17l-154 50l3 18zM304 695h2h-2zM299 271h-52 l-1 -2l-170 54l3 19zM300 649l-3 -18l-170 54l1 10h27zM628 232q1 -7 1 -19l-544 174l2 18zM623 434l-4 -8t-5 -8l-162 52q3 7 6 17zM599 398l-14 -15l-162 52q8 6 16 14zM563 365q-2 -2 -5 -3.5t-6 -3.5q14 -8 22 -16l-266 85h59zM613 415q-3 -4 -6 -7.5t-6 -7.5l-160 51 q2 4 4.5 8t4.5 8zM604 307q6 -10 11 -23l-521 167l2 18zM629 210q0 -5 -0.5 -9.5t-1.5 -9.5l-209 68q-11 11 -27 12h-13l-296 95l2 18zM618 280q3 -9 6 -21l-533 171l2 18zM624 256q3 -9 5 -20l-541 173l3 18zM640 473q-2 -4 -3 -8t-3 -9l-173 56q1 8 -2 19zM638 585 q3 -11 5 -20l-325 104l2 18zM625 611q4 -5 6.5 -10.5t4.5 -11.5l-316 101l1 5h42zM644 561q3 -11 3 -20l-333 106l3 19zM647 538v-9.5v-9.5l-336 107l3 18zM624 167q-2 -5 -3 -8.5t-2 -8.5l-186 59v10t-1 10zM633 453l-4 -8l-4 -8l-167 53l2 9l1 9zM644 494q-1 -5 -1.5 -9 t-1.5 -8l-182 58q-5 15 -13 23zM610 127q-2 -5 -3.5 -8.5t-4.5 -7.5l-179 57q2 4 3.5 8t2.5 9zM242 0h-59l-146 47l3 18zM172 0h-59l-79 25l3 19zM311 0h-59l-212 68l3 18zM306 691l-3 -18l-69 22h60zM103 0h-59l-13 4l3 18zM381 0h-59l-279 89l3 18zM618 147q-2 -5 -3.5 -9 t-2.5 -8l-182 58l1 11l1 7zM34 0h-3v1zM601 108q-3 -5 -5 -8.5t-5 -7.5l-180 58q3 3 5.5 7t5.5 8zM303 670l-3 -18l-135 43h59zM589 89l-11 -15l-189 60q11 4 19 13zM485 11q-8 -2 -17 -4t-17 -4l-397 127h60zM515 24q-14 -7 -26 -11l-364 117h59zM539 39q-6 -4 -10 -7 t-10 -6l-324 104h60zM575 71q-3 -4 -6.5 -7t-6.5 -7l-227 73l36 -1q10 2 14 3z" glyph-name="b" horiz-adv-x="604" unicode="b"/>
<glyph d="M512 162l-22 -162h-319q-153 0 -132 156l1 6h472zM247 280l-3 -18l-178 57l3 18zM241 238l-3 -18l-178 57l3 18zM250 302l-3 -18l-178 57l3 18zM244 259l-3 -18l-178 57l3 18zM259 366l-3 -19l-178 57l3 19zM253 323l-3 -18l-178 57l3 18zM256 344l-3 -18l-178 57l3 18z M577 553l-2 -15h-12l-403 129q9 7 22 12zM262 387l-3 -18l-178 57l3 18zM342 539h-59l-174 56q2 5 3.5 8.5t3.5 8.5zM559 695h39l-2 -12zM238 217l-3 -19l-178 57l3 19zM221 177h-59l-111 36l3 18zM235 195l-3 -18h-1l-177 57l3 18zM152 177h-60l-44 15l3 18zM82 177h-36 l2 11zM587 616l-2 -18l-304 97h59zM482 539h-60l-295 94q3 5 6 8.5t6 7.5zM581 574q-1 -5 -2 -9t-1 -9l-392 125q14 6 31 9zM552 539h-59l-352 112q5 4 8.5 7.5t7.5 6.5zM584 595l-2 -18l-358 115q21 3 47 3zM590 638l-2 -18l-238 75h60zM596 680l-2 -18l-105 33h60z M265 408l-3 -18l-178 57l3 18zM593 659l-2 -18l-171 54h59zM271 451l-3 -18l-178 57l3 18zM268 429l-3 -18l-178 57l3 18zM412 539h-60l-235 76q2 4 4.5 8t4.5 8zM274 472l-3 -18l-178 57l3 18zM277 493l-3 -18l-178 57l3 17v1zM283 536l-3 -18l-177 56l6 18zM280 515 l-3 -19l-178 57q2 5 2.5 9.5t1.5 8.5z" glyph-name="c" horiz-adv-x="521" unicode="c"/>
<glyph d="M104 525h183l-50 -355h-183zM436 37l-12 -6t-12 -5l-362 116l2 13h16zM408 24q-7 -3 -13.5 -5.5t-13.5 -4.5l-334 106l3 19zM275 0h-59l-177 57l2 18zM376 12q-8 -2 -17 -4t-17 -4l-298 95l3 18zM553 155q-2 -4 -4.5 -7.5t-5.5 -7.5l-165 52l15 15zM459 52 q-6 -3 -10.5 -6.5t-9.5 -5.5l-361 115h58zM528 119q-2 -4 -5 -7.5t-7 -7.5l-188 60q11 4 25 11zM205 0h-59l-111 35l3 18zM479 68q-5 -4 -8.5 -7t-8.5 -7l-316 101l59 1zM514 101l-7.5 -7.5l-6.5 -6.5l-218 69q12 1 21.5 3t17.5 4zM542 137l-6 -8t-5 -8l-174 56q6 3 10.5 6 t8.5 7zM497 84q-3 -4 -7 -7t-8 -7l-267 86h50h8zM335 3q-20 -3 -40 -3h-10l-244 78l3 18zM444 438q0 12 -1 20l177 -57l-2 -16l-1 -2zM608 316l-1 -4l-2 -14l-170 54l3 18zM322 541h-2h-57l-150 48l3 18zM114 541h-7v2zM67 0h-36l1 11zM252 541h-59l-83 26l3 19zM183 541 h-59l-17 5l3 18zM136 0h-59l-45 14l3 18zM609 538q1 -5 2.5 -10.5t2.5 -10.5l-489 157l3 18zM615 514l2 -10l2 -10l-497 159l3 18zM619 490q1 -5 1 -9.5t1 -9.5l-502 160l3 18zM622 445q0 -5 -0.5 -9.5t-0.5 -9.5l-186 60q-7 13 -18 24zM600 563q2 -5 3.5 -10.5t4.5 -10.5 l-480 153h60zM621 467v-9.5v-9.5l-210 67q-26 23 -78 26l-217 69l3 18zM566 618q5 -5 9.5 -11.5t8.5 -12.5l-317 101h60zM408 695q66 -4 115 -37zM564 174q-3 -4 -5 -8l-4 -8l-160 51q2 4 5 8t5 8zM586 590q4 -6 6.5 -11.5t5.5 -11.5l-400 128h59zM621 423q0 -5 -0.5 -9.5 t-0.5 -9.5l-178 57l-6 21zM531 652q9 -7 17 -14t15 -15l-226 72h55h4zM617 380l-3 -18l-170 54q0 5 0.5 9.5t0.5 9.5zM589 233q-1 -5 -3 -9t-3 -8l-161 51q1 5 2 9t2 9zM581 213q-1 -5 -2.5 -8.5t-3.5 -8.5l-160 51q2 5 3 9t3 8zM574 193q-3 -4 -4.5 -8t-4.5 -8l-158 51 q5 9 7 16zM595 253q-2 -5 -3 -8.5t-2 -8.5l-164 52l2 17l1 1zM600 274q-1 -5 -2 -9t-3 -9l-166 54l3 18zM611 337l-3 -18l-170 54l3 19zM614 358l-3 -18l-170 55l3 18zM605 295q-2 -5 -2.5 -9t-1.5 -9l-169 54l3 18z" glyph-name="d" horiz-adv-x="572" unicode="d"/>
<glyph d="M106 538l22 157h482l-22 -157h-482zM239 160h308l-22 -160h-308zM46 91l-2 -18l164 -52l3 18zM40 49l-2 -18l95 -31h59zM37 28l-2 -19l29 -9h59zM34 6v-6h20zM52 134l-2 -18l164 -53l3 18zM55 155l-2 -18l164 -53l3 19zM232 521h-59l101 -32l3 18zM49 113l-2 -18l164 -53 l3 18zM530 429v1h-3zM91 411l-2 -18l394 -127h24l1 11zM58 177l-2 -19l164 -52l3 18zM79 326l-2 -19l164 -52l2 11h21zM271 464l-165 53l-2 -18l164 -53zM43 70l-2 -18l162 -52h3l2 17zM163 521h-56v-1l164 -52l3 18zM277 510l2 11h-36zM447 430h-59l136 -43l2 18zM97 453 l-2 -18l417 -133l2 18zM94 432l-2 -18l417 -134l2 18zM100 475l-2 -19l417 -133l2 18zM377 430h-59l203 -65l2 19zM516 430h-59l70 -22l2 18zM88 389l-2 -18l328 -105h59zM308 430h-42l2 13l-165 53l-2 -18l417 -134l2 18zM61 198l-2 -18l164 -53l3 18zM67 240l-2 -18 l164 -52l3 18zM64 219l-2 -18l164 -53l3 18zM70 262l-2 -18l164 -53l3 18zM85 368l-2 -18l261 -84h59zM82 347l-2 -18l195 -63h59zM76 304l-2 -18l164 -53l3 19zM73 283l-2 -18l164 -53l3 18z" glyph-name="e" horiz-adv-x="535" unicode="e"/>
<glyph d="M64 231h181l-32 -231h-181zM328 695h236l-24 -171h-236zM79 348l-2 -18l249 -80h59zM76 326l-2 -18l183 -58h59zM85 390l-2 -18l370 -118l3 18zM88 412l-2 -19l370 -118l3 18zM91 433l-2 -18l370 -119l3 18zM73 305l-2 -18l116 -37h59zM82 369l-2 -18l316 -101h57v0z M70 284l-2 -18l50 -16h59zM94 454l-2 -18l370 -119l3 19zM474 403l2 16h-53zM273 441l-173 56l-2 -18l173 -56zM103 518l-2 -18l173 -56l3 19zM67 263l-1 -13h42zM413 419h-60l118 -38l3 18zM127 688l-2 -18l173 -55l2 18zM121 646l-2 -18l173 -56l2 18zM176 695h-48v-4 l173 -55l2 18zM124 667l-2 -18l173 -55l3 18zM274 419h-4l1 1l-174 55l-2 -18l370 -118l3 18zM256 695l51 -16l1 16h-52zM245 695h-59l118 -38l3 19zM118 624l-2 -18l173 -55l2 18zM104 521l173 -55l3 18l-174 55zM343 419h-59l184 -59l3 18zM109 561l-2 -19l173 -55l2 18z M112 582l-2 -18l173 -56l2 18zM115 603l-2 -18l173 -55l3 18z" glyph-name="f" horiz-adv-x="472" unicode="f"/>
<glyph d="M307 237q6 42 10.5 79.5t10.5 79.5h288l-22 -159h-287zM326 695h335q-5 -40 -9.5 -73.5t-9.5 -73.5h-336zM45 139q0 -5 -0.5 -9.5t-0.5 -9.5l375 -120h59zM45 117v-10v-10l304 -97h60zM51 70q5 -11 11 -23l148 -47h60zM66 43q33 -43 114 -43h20zM46 94q1 -5 2 -10.5 t3 -10.5l229 -73h59zM270 133h-40l2 13l-178 57l-3 -19l509 -163l3 19zM78 373l-3 -18l178 -57l3 18zM394 138l-1 -5h-43l216 -69l3 18zM340 133h-59l283 -90l2 18zM48 160l-1 -6l-2 -12l443 -142h59zM66 288l-3 -18l178 -57l3 18zM235 167l-178 57l-3 -18l178 -57zM60 245 l-3 -18l178 -57l3 18zM51 181l-3 -18l510 -163l2 18zM263 695l44 -14l2 14h-32h-14zM587 213l2 8h-27zM63 266l-3 -18l178 -57l3 18zM69 309l-3 -18l178 -57l3 18zM72 330l-3 -18l178 -57l3 18zM397 159l-3 -18l175 -56l3 18zM75 352l-3 -19l178 -57l3 19zM413 221h-7 l-3 -16l175 -56l3 18zM128 624q-3 -5 -4 -8.5t-4 -8.5l169 -54l3 18zM118 604q-2 -4 -3 -8t-3 -8l174 -56l3 18zM106 564q-2 -5 -2.5 -9t-1.5 -9l178 -57l3 18zM111 585q-2 -5 -2.5 -9t-2.5 -9l177 -57l3 19zM141 642q-3 -4 -6 -7.5t-6 -8.5l163 -52l3 18zM180 674 q-5 -3 -9.5 -6l-10.5 -7l138 -44l3 18zM210 686q-17 -5 -25 -10l116 -38l3 18zM158 659l-7.5 -7.5l-7.5 -7.5l152 -48l3 18zM255 694q-22 -2 -39 -6l88 -29l3 19zM102 543l-3 -18l178 -57l3 18zM96 500l-3 -18l178 -57l3 19zM552 221h-59l91 -29l3 18zM78 376l178 -57l3 18 l-178 57zM482 221h-59l158 -51l3 19zM84 415l-3 -18l178 -57l3 18zM403 202l-3 -18l175 -56l3 18zM90 458l-3 -18l178 -57l3 18zM87 437l-3 -19l178 -56l3 18zM93 479l-3 -18l178 -57l3 18zM400 181l-3 -18l176 -56l2 18zM99 522l-3 -18l178 -57l3 18z" glyph-name="g" horiz-adv-x="595" unicode="g"/>
<glyph d="M273 431h-186l37 264h186zM380 230h188l-31 -230h-188zM69 275l-2 -18l178 -57l2 18zM66 254l-2 -19l178 -56l2 18zM63 232l-2 -18l178 -57l2 18zM123 413h-34l-1 -7l488 -156l2 18zM60 211l-2 -18l178 -57l2 18zM87 403l-3 -19l431 -138h60zM78 339l-2 -18l231 -75h59z M84 381l-2 -18l364 -117h59zM81 360l-2 -18l298 -96h59zM72 296l-2 -18l178 -57l2 18zM57 190l-2 -18l178 -57l2 18zM36 41l-2 -18l69 -23h60zM42 83l-2 -18l178 -57l2 18zM75 317l-2 -18l178 -57v4h46zM39 62l-2 -18l136 -44h44v5zM33 20l-2 -19l3 -1h59zM54 168l-2 -18 l178 -57l2 19zM51 147l-2 -18l178 -57l2 18zM45 105l-2 -18l178 -57l2 18zM48 126l-2 -18l178 -57l2 18zM425 517l-2 -18l179 -58l3 18zM446 666l-2 -18l179 -58l3 18zM440 623l-2 -18l179 -58l3 19zM434 581l-2 -18l179 -58l3 18zM437 602l-2 -18l179 -58l3 18zM443 645 l-3 -19l180 -57l3 18zM449 687l-2 -18l179 -58l3 18zM631 695h-59l63 -20l3 18zM562 695h-60l130 -41l3 18zM492 695h-42l-1 -5l180 -57l3 18zM422 496l-2 -19l180 -57l2 18zM332 413h-60l312 -100l3 19zM401 413h-59l246 -78l2 18zM413 432l-2 -18l180 -58l2 18zM262 413 h-59l379 -121l2 18zM193 413h-60l446 -142l2 18zM431 559l-2 -18l180 -57l2 18zM428 538l-2 -18l179 -58l3 18zM416 453l-2 -18l179 -58l3 18zM419 474l-2 -18l179 -58l3 19z" glyph-name="h" horiz-adv-x="588" unicode="h"/>
<glyph d="M62 226l174 -56l-2 -18l-174 56zM59 205l174 -56l-2 -18l-174 56zM56 184l174 -56l-2 -18l-174 56zM53 162l175 -55l-3 -18l-174 55zM65 248l174 -56l-2 -18l-174 55zM74 311l174 -55l-2 -19l-174 56zM77 333l174 -56l-2 -18l-174 56zM68 269l174 -56l-2 -18l-174 56z M71 290l174 -56l-2 -18l-174 56zM47 120l174 -56l-2 -18l-174 56zM38 56l174 -56h-59l-117 38zM50 141l174 -56l-2 -18l-174 56zM35 35l108 -35h-59l-51 17zM309 684l-35 11h36zM32 13l42 -13h-43zM41 77l175 -55l-3 -19l-174 56zM80 354l174 -56l-2 -18l-174 56zM44 99 l175 -56l-3 -18l-174 55zM113 588l174 -56l-2 -18l-174 56zM122 652l174 -56l-2 -18l-174 56zM110 567l174 -56l-2 -18l-174 56zM116 609l174 -55l-2 -19l-174 56zM125 673l174 -56l-2 -18l-174 56zM119 631l174 -56l-2 -18l-174 56zM264 695l44 -14l-2 -18l-101 32h59z M195 695l110 -35l-2 -18l-168 53h60zM128 695l174 -56l-2 -18l-174 55zM98 482l174 -56l-2 -18l-174 56zM89 418l174 -56l-2 -18l-174 56zM95 460l174 -55l-2 -19l-174 56zM92 439l174 -56l-2 -18l-174 56zM107 546l174 -56l-2 -18l-174 55zM86 397l174 -56l-2 -18l-174 55z M83 375l174 -56l-2 -18l-174 56zM104 524l174 -56l-2 -18l-174 56zM101 503l174 -56l-2 -18l-174 56z" glyph-name="i" horiz-adv-x="262" unicode="i"/>
<glyph d="M328 204l-2 -18l-177 56l2 19zM325 183l-2 -19l-177 57l2 18zM314 119q-1 -5 -2 -8.5t-3 -8.5l-172 55l2 18zM319 140q-2 -5 -2.5 -9t-1.5 -9l-175 57l2 18zM331 225l-2 -18l-177 57l2 18zM343 310l-2 -18l-177 57l2 18zM337 268l-2 -18l-177 56l2 18zM334 246l-2 -18 l-177 57l2 18zM307 99q-1 -5 -2.5 -8.5t-4.5 -7.5l-210 67h46v4zM340 289l-2 -18l-177 57l2 18zM273 44q-5 -4 -8.5 -7.5t-8.5 -6.5l-246 79l2 18zM190 3q-20 -3 -43 -3h-5l-140 45l2 18zM322 161l-1 -7l-1 -11l-177 57l2 18zM63 0h-60l-6 2l2 18zM299 80q-3 -5 -5 -8.5 t-5 -7.5l-268 86h59zM287 61q-2 -4 -5 -7.5t-7 -7.5l-262 84l2 18zM132 0h-59l-73 23l1 19zM253 28q-5 -4 -10.5 -7t-11.5 -5l-224 71l2 19zM226 14q-14 -6 -30 -9l-191 61l1 18zM379 566l-2 -18l-178 56l3 18zM382 587l-3 -18l-177 56l3 19zM346 332l-3 -19l-176 57l2 18z M385 608l-3 -18l-177 57l3 18zM376 544l-3 -18l-177 57l3 18zM397 693l-3 -18l-61 20h59zM394 672l-3 -18l-128 41h60zM391 651l-3 -18l-177 56l1 6h41zM388 630l-3 -19l-177 57l3 18zM373 523l-3 -18l-177 57l3 18zM355 395l-3 -18l-177 57l3 18zM370 502l-2 -18l-178 56 l3 19zM352 374l-2 -18l-177 57l2 18zM349 353l-2 -18l-178 56l3 19zM358 417l-2 -18l-178 56l3 18zM367 481l-3 -19l-177 57l3 18zM361 438l-2 -18l-177 57l2 18zM364 459l-3 -18l-177 57l3 18z" glyph-name="j" horiz-adv-x="339" unicode="j"/>
<glyph d="M64 231h186l-32 -231h-186zM196 694l113 -36l-3 -18l-169 54h59zM128 694l178 -57l-3 -18l-177 57zM266 694l46 -14l-2 -18l-103 32h59zM122 652l178 -57l-3 -19l-178 57zM125 673l178 -57l-2 -18l-178 57zM353 22l66 -22h-59l-2 1zM119 630l178 -57l-2 -18l-178 57z M329 118l218 -70l5 -20l-218 70zM323 142l220 -70l4 -20l-218 70zM347 46l142 -46h-59l-78 25zM318 166l219 -70l4 -20l-218 70zM341 70l217 -70h-59l-154 49zM336 94l217 -70l5 -20l-218 69zM74 311l195 -63h-58l-139 45zM276 424l-2 -18l-178 57l2 18zM71 290l130 -42h-58 l-74 24zM312 190l219 -70l5 -20l-219 70zM68 268l64 -20h-58l-8 2zM312 683l-36 11h38zM656 684l-36 11h41zM101 503l178 -57l-2 -19l-178 57zM116 609l178 -57l-2 -18l-178 57zM113 588l178 -57l-2 -18l-178 57zM110 566l178 -57l-2 -18l-178 57zM107 545l178 -57l-2 -18 l-178 57zM104 524l178 -57l-2 -18l-178 57zM375 504l162 -52l-8 -16l-162 51zM366 485l161 -52l-9 -16l-162 51zM426 599l160 -51l-9 -17l-160 52zM436 618l159 -51l-8 -17l-160 52zM405 561l161 -52l-8 -16l-161 52zM396 542l160 -52l-8 -16l-161 52zM386 523l161 -52 l-9 -16l-161 52zM416 580l160 -51l-9 -17l-159 52zM446 637l159 -51l-8 -16l-159 51zM476 694l159 -51l-8 -16l-159 51zM610 695l44 -14l-8 -16l-95 30h59zM540 695l105 -33l-9 -16l-155 49h59zM466 675l158 -51l-8 -16l-158 51zM456 656l159 -51l-9 -16l-159 51zM89 417 l404 -129l5 -20l-411 131zM355 466l162 -52l-9 -16l-161 51zM83 375l421 -135l4 -20l-427 137zM86 396l413 -132l4 -20l-419 134zM80 354l429 -138l5 -20l-436 139zM77 332l437 -140l6 -20l-220 70l-2 6h-18l-205 66zM301 238l219 -70l5 -20l-219 70zM307 214l219 -70l5 -20 l-219 70zM92 439l395 -127l6 -20l-403 129zM336 428l161 -52l-8 -17l-163 52zM345 447l162 -52l-8 -17l-162 52zM284 400l198 -64l5 -20l-394 126l2 18l178 -57v-4zM488 357l-7 -15v-2l-188 60h28l4 9z" glyph-name="k" horiz-adv-x="554" unicode="k"/>
<glyph d="M408 175l-24 -175h-354l24 175h354zM94 445l177 -57l-2 -18l-177 57zM85 381l177 -57l-2 -18l-177 57zM79 338l177 -56l-2 -18l-178 56zM76 317l177 -56l-2 -19l-177 57zM91 424l177 -57l-2 -18l-178 56zM88 402l177 -56l-2 -18l-178 56zM82 360l177 -57l-2 -18l-177 57z M67 253l177 -56l-1 -5h-44l-134 43zM73 296l177 -57l-2 -18l-177 57zM313 689l-17 6h18zM61 211l58 -19h-59l-1 1zM70 275l177 -57l-2 -18l-177 57zM64 232l125 -40h-59l-68 22zM147 695l160 -51l-3 -18l-177 56l2 13h18zM127 679l177 -57l-3 -18l-177 57zM97 466l177 -56 l-3 -19l-177 57zM121 636l177 -56l-3 -18l-177 56zM216 695l94 -30l-3 -18l-150 48h59zM285 695l28 -9l-3 -18l-84 27h59zM118 615l177 -56l-3 -19l-177 57zM124 658l177 -57l-3 -18l-177 57zM103 509l177 -57l-3 -18l-176 57zM115 594l177 -57l-3 -18l-177 57zM106 530 l177 -57l-3 -18l-177 57zM100 487l177 -56l-2 -18l-178 56zM109 551l177 -56l-2 -18l-178 56zM112 573l177 -57l-3 -18l-177 56z" glyph-name="l" horiz-adv-x="402" unicode="l"/>
<glyph d="M249 695l22 -288l-79 -407h-181l140 695h98zM468 401l-6 -18l139 -44l7 17zM382 695h-59l100 -32l-2 19zM462 380l-5 -17l138 -44l6 17zM479 441l-4 -17l140 -45l5 17zM449 340l-5 -17l138 -44l5 17zM291 368l3 -19l281 -91l5 18zM293 345l2 -19l273 -88l6 17zM486 462 l-5 -18l141 -45l5 17zM455 360l-5 -17l139 -44l5 17zM313 695h-46l1 -4l156 -51l-1 20zM268 687l1 -19l156 -50v19zM270 664l1 -19l156 -50l-1 19zM271 642l2 -20l156 -50l-1 20zM295 322l2 -19l264 -85l7 17zM274 596l2 -19l156 -50l-2 19zM498 502l-4 -17l141 -46l6 18z M272 619l3 -20l155 -49l-2 19zM277 554l155 -50l-1 20l-155 49zM492 482l-5 -17l141 -46l6 17zM474 421l-6 -17l140 -45l6 17zM285 459l1 -19l153 -49l-1 19zM287 436l1 -19l153 -49l-1 19zM283 482l2 -19l154 -50l-2 20zM281 505l2 -20l154 -49l-2 19zM610 47l148 -47h26 v10l-172 55zM280 528l1 -20l154 -49v19zM314 72l2 -20l164 -52h10l4 14zM289 414l1 -20l152 -49l-1 20zM443 342l-153 49l2 -20l152 -48zM309 140l2 -19l198 -64l5 17zM300 254l2 -19l240 -77l5 17zM302 231l1 -19l232 -74l5 17zM298 277l2 -20l249 -79l5 17zM304 209l1 -20 l223 -71l6 17zM297 300l1 -20l257 -82l6 17zM507 54l-196 63l1 -19l190 -61zM278 550l1 -19l155 -50l-1 20zM307 163l2 -19l206 -67l6 18zM306 186l1 -20l215 -68l6 17zM636 369l-1 -19l167 -53l1 18zM505 522l-6 -17l142 -45l3 8l-1 -9l166 -53l1 19zM511 543l-6 -18 l306 -97v18zM517 563l-5 -17l300 -96l1 18zM523 583l-5 -17l295 -95l1 19zM639 412l-1 -18l166 -53l2 18zM529 603l-5 -17l291 -93v19zM638 391l-1 -19l166 -53l2 18zM644 456l-2 -19l165 -53l2 19zM641 434l-1 -18l166 -54l1 19zM799 695h-59l85 -27l2 18zM730 695h-59 l153 -49l1 18zM634 347l-1 -18l168 -54l1 19zM660 695h-59l221 -71l2 19zM810 695l16 -6l1 6h-17zM535 624l-5 -18l286 -91l1 19zM548 664l-6 -17l277 -88l1 18zM542 644l-5 -17l280 -90l2 18zM591 695h-34l-2 -8l266 -85l2 19zM554 684l-6 -17l272 -87l1 19zM626 239 l-2 -19l170 -54l2 19zM610 44l-2 -19l80 -25h60zM632 326v-19l167 -54l2 19zM609 22l-2 -18l12 -4h59zM614 87l-2 -18l172 -56l1 19zM319 3l1 -3h11zM317 26l1 -19l23 -7h59zM615 109l-1 -19l171 -55l2 19zM315 49l3 -19l93 -30h59zM313 95l1 -20l181 -58l5 17zM607 0v0h2 h-2zM629 282l-1 -18l169 -54l1 18zM617 130l-2 -18l173 -55v19zM393 695l29 -9l-1 9h-28zM631 304l-1 -19l168 -54l2 19zM627 261l-1 -19l169 -54l1 18zM619 152l-2 -18l172 -55v18zM621 174l-2 -19l171 -54l1 18zM624 217l-2 -18l171 -55v19zM622 196l-2 -19l171 -55l1 19z " glyph-name="m" horiz-adv-x="792" unicode="m"/>
<glyph d="M178 695l87 -318l-50 -377h-178l97 695h44zM340 695l20 -6l-2 6h-18zM329 695h-59l97 -30l-6 20zM196 694l5 -21l180 -57l-6 20zM387 10l3 -10h27zM260 695h-59l173 -55l-6 21zM373 59l6 -21l117 -38h60zM345 156l7 -20l266 -86l2 19zM353 132l5 -21l257 -82l2 18z M339 181l6 -21l276 -88l2 18zM380 34l5 -21l42 -13h59zM203 669l6 -20l180 -58l-6 21zM360 108l6 -21l246 -79l2 18zM223 596l5 -21l181 -57l-6 20zM271 425l5 -21l183 -58l-6 21zM257 474l6 -21l182 -58l-6 21zM460 342l-182 59l6 -21l182 -58zM264 450l6 -21l182 -58 l-7 20zM366 83l6 -21l194 -62h45v5zM707 689l1 6h-21zM216 621l6 -21l181 -58l-6 21zM332 205l6 -21l286 -91l2 18zM209 645l6 -21l180 -57l-6 20zM230 572l6 -21l181 -58l-6 21zM236 547l6 -21l181 -57l-6 20zM250 498l6 -20l182 -58l-7 20zM243 523l6 -21l182 -58l-6 21z M490 444l-3 -18l176 -56l2 18zM515 614l-3 -18l174 -56l3 18zM326 230l5 -21l296 -95l2 18zM506 550l-3 -18l174 -56l3 18zM509 571l-3 -18l174 -56l3 19zM499 508l-3 -18l175 -56l3 18zM503 529l-4 -18l175 -56l3 18zM496 486l-3 -18l175 -56l3 18zM538 695h-12l-2 -14 l174 -56l3 18zM518 635l-3 -18l174 -56l3 18zM677 695h-59l86 -27l3 18zM607 695h-59l153 -49l3 19zM521 657l-3 -19l174 -55l3 18zM524 678l-3 -18l174 -56l3 18zM512 593l-3 -18l174 -56l3 18zM472 316l-2 -11l-3 13l-183 58l6 -21l355 -113l2 18zM305 303l6 -21l325 -104 l2 18zM291 352l6 -21l345 -110l2 18zM493 465l-3 -18l175 -56l3 18zM312 279l6 -21l315 -101l2 18zM318 254l6 -21l306 -97l2 18zM298 327l6 -20l334 -108l3 19zM484 401l-3 -18l175 -56l3 18zM487 423l-3 -19l175 -56l3 19zM478 359l-3 -18l176 -56l2 18zM481 380l-3 -18 l176 -56l2 18zM475 338l-3 -19l175 -56l3 18z" glyph-name="n" horiz-adv-x="656" unicode="n"/>
<glyph d="M364 0h-186q-156 0 -135 156l54 384q22 155 178 155h16l-77 -546h170zM395 104l-2 -18l135 -43q3 3 6 6.5t7 7.5zM398 125l-2 -18l146 -47q2 4 4.5 7.5t5.5 8.5zM401 146l-3 -18l157 -49q2 4 3.5 7.5t3.5 8.5zM407 189l-2 -18l165 -53q2 5 2.5 9t2.5 9zM404 168l-2 -18 l161 -52q2 4 3 8t3 9zM419 274l-3 -18l168 -54l3 19zM422 295l-3 -18l168 -53l3 18zM416 253l-2 -18l167 -54l2 18zM413 232l-3 -19l168 -53l3 18zM383 19l-2 -18l2 -1h19q9 0 17.5 0.5t16.5 1.5zM392 83l-3 -19l118 -37q11 7 17 13zM410 210l-3 -18l168 -53l2 17l1 1z M425 317l-2 -18l167 -54l2 18zM435 695l189 -60q-4 7 -8 13t-9 11l-113 36h-59zM290 560l-2 -17h56zM386 40l-2 -18l59 -19q8 2 16.5 4t16.5 4zM293 581l-2 -18l63 -20h60zM389 61l-2 -18l93 -30q12 4 24 12zM302 645l-2 -18l329 -105l2 18zM455 530l-3 -19l168 -53l2 18z M299 624l-2 -18l329 -106l2 18zM296 603l-2 -19l130 -41h33l-2 -10l168 -54l2 18zM308 688l-2 -18l328 -105q1 5 1 9t-1 9zM305 666l-2 -18l329 -105l2 18zM355 695h-46v-4l325 -104q0 5 -0.5 9.5t-1.5 9.5zM603 664q-33 29 -98 31zM425 695h-59l265 -85l-6 21zM449 487 l-3 -18l168 -54l2 18zM452 508l-3 -18l168 -54l2 19zM434 381l-3 -19l168 -53l2 18zM440 423l-3 -18l168 -54l3 19zM431 359l-3 -18l168 -53l3 18zM437 402l-3 -18l168 -54l2 18zM428 338l-3 -18l168 -54l2 18zM446 466l-3 -18l168 -54l2 18zM443 444l-3 -18l168 -53l2 18z " glyph-name="o" horiz-adv-x="591" unicode="o"/>
<glyph d="M243 197l-27 -197h-185l27 197h185zM300 594l-3 -18l-177 57l3 18zM95 215h-33l1 10zM120 629l177 -56l-2 -18l-178 56zM387 544h-59l-20 6l2 19zM317 544h-10v3zM294 552l-2 -18l-178 56l3 18zM313 695l-2 -12l-38 12h40zM311 680l-2 -19l-106 34h59zM306 637l-3 -18 l-177 56l3 18zM303 616l-3 -19l-177 57l3 18zM309 658l-3 -18l-172 55h59zM279 445l-2 -18l-177 57l2 18zM291 530l-3 -18l-177 57l3 18zM268 363l-177 57l2 18l177 -57zM471 695l106 -34q7 -5 12 -11.5t9 -13.5l-186 59h59zM273 403l-3 -19l-177 57l3 18zM538 251 q-8 -7 -18 -13l-436 139l3 18zM442 215h-8h-51l-308 98l3 19zM285 488l-2 -18l-178 56l3 18zM276 424l-2 -18l-178 56l3 18zM288 509l-2 -18l-178 56l3 19zM164 215h-59l-41 13l2 18zM282 466l-3 -18l-177 57l3 18zM583 326q-1 -5 -2.5 -9t-3.5 -8l-184 59q8 4 14 14z M613 516l-3 -18l-296 95l2 18zM610 495l-2 -18l-297 95l2 18zM601 431l-2 -18l-174 55l3 19zM607 474l-3 -19l-175 57q-2 14 -11 22zM234 215h-60l-108 34l3 19zM616 537l-3 -18l-296 95l2 18zM599 632q4 -5 6.5 -11t3.5 -11l-267 85h59zM485 695q55 -1 86 -29l-90 29h4z M619 559l-2 -18l-297 95l2 18zM617 582q2 -5 1.5 -10t0.5 -10l-296 95l2 18zM611 606q1 -5 2 -10.5t3 -10.5l-290 93l2 17h4zM604 452l-3 -18l-173 56v7q1 8 1 11zM488 223q-9 -3 -18.5 -4.5t-19.5 -2.5l-371 119l2 18zM554 268q-3 -4 -6.5 -7.5t-7.5 -6.5l-453 144l3 19z M517 236q-12 -8 -25 -12l-410 132l2 18zM303 215h-59l-174 56l2 18zM373 215h-60l-240 77l2 18zM598 410l-2 -18l-174 55l3 18zM592 367l-2 -18l-174 56l2 14l1 4zM595 388l-2 -18l-174 56l3 18zM588 346q-1 -7 -4 -17l-175 56q2 6 6 17zM576 306q-2 -5 -3.5 -8.5t-4.5 -8.5 l-228 73h30q11 0 19 4zM566 287q-3 -5 -5.5 -8.5t-4.5 -7.5l-286 91h60z" glyph-name="p" horiz-adv-x="560" unicode="p"/>
<glyph d="M242 333l-2 -18l-164 53l3 18zM245 355l-2 -18l-164 52l3 18zM236 291l-2 -18l-164 52l3 18zM239 312l-2 -18l-164 52l3 19zM233 270l-2 -19l-164 53l3 18zM227 227l-2 -18l-164 52l3 18zM248 376l-2 -18l-164 52l3 18zM230 248l-2 -18l-164 53l3 18zM224 206l-2 -18 l-164 52l3 18zM269 525l-2 -18l-164 52q2 5 2.5 9t2.5 9zM263 482l-2 -18l-164 53l3 18zM266 504l-2 -18l-164 52v2l3 16zM352 543h-59l-177 57q2 7 7 16zM421 543h-59l-237 76q6 9 11 15zM260 461l-2 -18l-164 52l3 19zM251 397l-2 -18l-164 53l3 18zM257 440l-2 -18 l-164 52l3 18zM254 419l-2 -19l-164 53l3 18zM194 -30l196 -62l2 -17h-9l-194 62zM523 43q-5 -4 -8.5 -7t-8.5 -6l-260 83l7 17zM439 3q-20 -3 -42 -3h-6l-166 53l6 17zM221 184l-2 -18l-164 53l3 18zM218 163l-2 -14h28l-4 -12l-188 60l3 19zM574 160l-1 -4q0 -4 -1 -7 t-2 -7l-168 55l3 18zM502 695l94 -30q12 -10 19 -25l-172 55h51h8zM174 670q5 3 11 6t12 5l431 -137l-1 -4l-2 -15zM282 543h-10l-2 -15l-161 52q1 5 2.5 8.5t2.5 8.5zM231 114l-7 -16l-178 57v1l3 17zM216 75l-6 -17l-167 53v9.5t1 9.5zM224 95l-7 -17l-174 55l3 19z M194 15l-5 -15h-6l-112 35q-4 5 -8 11t-8 14zM238 134l-6 -17l-183 59l3 18zM172 0q-63 1 -95 30zM201 35l-6 -17l-142 45q-3 9 -7 22zM208 55l-6 -17l-156 50q-3 11 -2 20zM583 224l-3 -18l-169 54l3 19zM610 416l-3 -18l-169 54l3 18zM604 373l-3 -18l-169 54l3 19z M607 395l-3 -19l-169 55l3 18zM613 437l-3 -18l-169 54l3 18zM616 458l-3 -18l-169 55l3 18zM595 309l-3 -18l-169 55l3 18zM601 352l-3 -18l-169 54l3 18zM598 331l-3 -18l-169 54l3 18zM618 636q4 -9 7 -22l-252 81h59zM619 480l-3 -18l-169 54l3 18zM592 288l-3 -18 l-169 54l3 18zM629 588v-10v-10l-387 125q8 1 16.5 1.5t18.5 0.5h17zM515 694q46 -3 74 -23zM626 611q3 -11 3 -20l-325 104h59zM622 501l-3 -18l-169 54l1 6h-19l-295 94q4 4 7 7.5t6 7.5zM629 565q0 -5 -0.5 -9t-1.5 -9l-426 136q17 6 34 9zM625 522l-3 -18l-469 150 q4 4 8.5 7.5t8.5 6.5zM476 14q-14 -6 -31 -9l-213 68l6 17zM378 0l2 -19l-163 52l7 17l157 -50h-3zM380 -22l3 -20l-173 55l7 17zM502 28q-9 -7 -21 -12l-241 77l6 17zM383 -45l2 -20l-181 58l5 17zM234 -109h-59l-8 3l6 17zM589 267l-3 -18l-169 54l3 18zM304 -109h-59 l-71 23l6 17zM373 -109h-59l-133 43l6 16zM386 -69l3 -20l-193 62l6 17zM570 139q-1 -7 -4 -17l-167 53l3 18zM577 182l-2 -18l-170 54l3 18zM580 203l-2 -18l-170 54l3 18zM586 246l-3 -19l-169 55l3 18zM538 61q-6 -8 -13 -15l-271 87l6 16h2zM550 79q-3 -4 -5.5 -8 t-5.5 -8l-267 86h59zM565 119q-1 -5 -2.5 -9t-2.5 -8l-164 52l3 18zM558 99q-2 -8 -7 -17l-209 67h53l1 2z" glyph-name="q" horiz-adv-x="585" unicode="q"/>
<glyph d="M241 222q-4 -24 -8 -52.5t-8.5 -58.5t-8.5 -58.5t-7 -52.5h-178l31 222h179zM420 537h-59l-243 78l2 18zM351 537h-59l-177 56l3 19zM276 472l-3 -18l-170 54l1 11h25zM114 590l167 -53h-59l-110 35zM279 493l-3 -18l-137 44h59zM282 515l-3 -19l-71 23h60zM361 0h-12 l-2 4zM508 86l6 -21l-202 65l-6 21zM522 37l6 -21l-203 65l-5 21zM514 62l6 -21l-202 65l-6 21zM500 0h-59l-102 32l-6 21zM431 0h-60l-24 8l-6 21zM563 291q-2 -4 -6 -7.5t-8 -7.5l-458 147l2 18zM278 519h4v-1zM326 78l203 -65q2 -5 5 -13h-24l-177 57zM501 111l6 -21 l-203 65l-6 21zM602 390l-1 -10l-1 -8l-172 54l3 19zM482 695l113 -36q4 -5 9 -11t9 -14l-190 61h59zM212 537h-59l-44 14l2 18zM236 240h-59l-107 34l3 18zM267 411l-170 55l3 18l170 -55zM273 451l-3 -18l-170 54l2 18zM97 240h-32l2 10zM142 537h-35l2 11zM167 240h-60 l-40 13l3 18zM614 475l-2 -18l-172 54l3 19zM623 539l-2 -18l-494 158l2 16h6zM620 517l-2 -18l-494 158l2 18zM617 496l-2 -18l-172 55l1 4h-13l-310 99l2 18zM494 135l7 -21l-203 65l-6 21zM611 454l-2 -19l-172 55l3 18zM608 432l-2 -18l-172 55l3 18zM614 630 q5 -11 8 -21l-268 86h59zM625 560q1 -5 0 -9t-1 -9l-479 153h59zM503 695q18 0 36.5 -4.5t31.5 -12.5q4 -3 9 -6.5t10 -7.5l-97 31h10zM623 606q1 -5 1.5 -10t0.5 -10l-341 109h59zM625 582q1 -5 0.5 -9.5t0.5 -9.5l-411 132h59zM605 411l-2 -18l-172 55l3 18zM465 233 q2 -5 3.5 -10t3.5 -11l-393 126l3 18zM473 209q1 -5 3 -10.5t4 -10.5l-404 129l3 18zM494 246q-7 -2 -15 -3.5t-16 -3.5q0 -1 0.5 -1t0.5 -1l-382 122l2 18zM488 159q1 -5 2.5 -10t2.5 -10l-203 65l-5 20zM480 184l6 -21l-202 65l-4 12h-34l-173 55l3 19zM577 309l-6 -8 t-5 -8l-472 151l3 19l170 -55l-2 -14h46zM524 259q-13 -7 -25 -11l-414 133l3 18zM594 348q-1 -5 -2.5 -9t-3.5 -8l-197 63h33l1 8zM587 328q-3 -5 -4.5 -8.5t-4.5 -7.5l-257 82h60zM599 368q-1 -4 -1.5 -8t-2.5 -9l-170 54l3 18zM546 274q-9 -8 -19 -13l-439 141l3 18z" glyph-name="r" horiz-adv-x="568" unicode="r"/>
<glyph d="M615 695l-23 -168l-308 1l23 167h308zM59 173h-18l-2 -12l427 -137q5 3 9.5 6l10.5 7zM36 136l-3 -18l362 -116q9 2 17.5 3.5t17.5 4.5zM199 173h-60l366 -117q6 5 12 15zM30 94l-3 -18l235 -76h59zM347 215l19 -16l-1 -9l173 -56l3 18zM27 72l-3 -18l169 -54h59z M340 172l-60 1l249 -80l2 8t3 9zM269 173h-59l309 -99q2 4 4 7.5t4 8.5zM93 443l4 -12l446 -143q-4 11 -13 20q-4 4 -6 5l-433 139zM129 173h-60l419 -134q4 3 7.5 6.5l7.5 7.5zM365 187l-2 -15h-13l184 -59q2 4 3 12l1 6zM246 695l44 -14l2 14h-25h-21zM39 158l-3 -19 l399 -128q4 2 7.5 3t7.5 2q3 2 5.5 3t6.5 3zM21 30l-3 -18l36 -12h59zM296 253l43 -33l202 -64l3 18zM24 51l-3 -18l102 -33h59zM18 9l-1 -9h27zM33 115l-3 -18l302 -97h42q5 1 14 1zM113 623q-3 -4 -4 -8t-3 -9l166 -53l3 18zM105 603q-4 -8 -5 -17l169 -54l3 18zM126 641 q-3 -4 -5.5 -7.5t-5.5 -7.5l160 -52l3 19zM99 583q-1 -5 -3 -16v-2l170 -54l3 18zM164 673q-5 -2 -10 -5.5t-10 -6.5l137 -44l3 18zM194 686q-7 -2 -13.5 -4.5t-13.5 -6.5l117 -37l3 18zM246 291l43 -32l255 -82l3 18zM238 694q-10 -1 -20 -2.5t-18 -4.5l87 -28l3 19z M95 562l-2 -18l224 -72q-11 8 -22.5 16.5t-22.5 17.5zM142 658q-8 -6 -14 -14l150 -48l3 18zM145 368l44 -33l361 -116q1 5 1 9.5v9.5zM114 400q12 -15 23 -26h1l413 -133v10t-1 10zM196 330l42 -33l309 -99l3 18zM99 427q3 -5 5.5 -11t5.5 -11l440 -141q-2 12 -5 21z M90 519q0 -5 -0.5 -9.5t0.5 -9.5l333 -106q-10 8 -21 16t-23 17zM93 541q-1 -5 -1.5 -9.5t-0.5 -9.5l279 -89q-10 8 -21 16t-24 17zM89 497q1 -5 0.5 -9.5t0.5 -9.5l382 -123q-8 8 -18.5 16t-23.5 17zM89 475q1 -5 1 -10v-10l428 -136q-7 5 -16.5 13t-21.5 18z" glyph-name="s" horiz-adv-x="546" unicode="s"/>
<glyph d="M109 695h420l-24 -170h-420zM158 185l-3 -18l168 -54l3 18zM377 496l2 11h-37zM154 163l-2 -18l168 -54l3 19zM160 206l-2 -18l168 -54l3 18zM166 249l-2 -19l168 -53l3 18zM163 227l-2 -18l168 -54l3 18zM151 142l-2 -18l168 -54l3 18zM133 14l-1 -14h47zM140 57l-3 -18 l122 -39h49v3zM149 121l-3 -18l168 -54l3 18zM137 36l-3 -18l55 -18h60zM142 78l-2 -18l168 -54l3 18zM169 270l-2 -18l168 -54l3 18zM146 100l-3 -19l168 -53l3 18zM202 504l-2 -18l168 -54l3 18zM199 483l-2 -18l168 -54l3 18zM193 440l-2 -18l168 -54l3 18zM196 461 l-2 -18l168 -54l3 19zM263 507h-60v0l168 -54l3 18zM332 507h-59l101 -32l3 18zM175 312l-2 -18l168 -54l3 19zM178 334l-2 -18l168 -54l3 18zM172 291l-2 -18l168 -54l3 18zM181 355l-2 -18l168 -54l3 18zM187 398l-2 -19l168 -53l3 18zM190 419l-2 -18l168 -54l3 18z M184 376l-2 -18l168 -54l3 18z" glyph-name="t" horiz-adv-x="451" unicode="t"/>
<glyph d="M227 0h-68q-126 1 -102 177l73 518h194zM400 206l-1 -7l-1 -11l182 -58q1 5 2 9t1 9zM398 185q-2 -5 -3 -9t-3 -8l182 -58q2 5 3 8.5t1 8.5zM391 165q-5 -9 -11 -15l186 -60q3 4 4 8t3 9zM377 147q-9 -8 -24 -11l203 -65q3 4 4.5 7.5t4.5 8.5zM404 228l-3 -18l184 -59 l2 18zM415 313l-2 -18l184 -59l2 18zM413 292l-3 -19l184 -58l2 18zM409 270l-2 -18l184 -59l2 18zM344 135h-1h-46q-14 0 -20.5 4.5t-12.5 13.5l-1 -10l282 -91q6 8 10 16zM244 12l-1 -12h38zM406 249l-2 -18l184 -59v5l2 13zM262 140l-2 -19l269 -86q4 4 7.5 7t6.5 8z M259 118l-2 -18l252 -81q6 3 10 6.5t8 7.5zM659 683l2 12h-41zM253 76l-2 -18l179 -58h8q19 0 37 5zM256 97l-2 -18l226 -73q12 4 26 11zM250 54l-2 -18l112 -36h60zM247 33l-2 -18l46 -15h59zM418 334l-2 -18l184 -59l2 18zM463 653l-2 -18l183 -59l3 19zM457 611l-2 -18 l184 -59l2 18zM460 632l-2 -18l184 -59l2 18zM454 590l-2 -19l184 -58l2 18zM466 675l-2 -18l184 -59l2 18zM610 695h-59l106 -33l2 18zM451 568l-2 -18l184 -59l2 18zM541 695h-60l172 -55l3 18zM471 695h-2l-2 -17l183 -59l3 18zM430 419l-2 -18l184 -59l2 18zM433 441 l-2 -19l184 -58l2 18zM427 398l-2 -18l184 -59l2 18zM421 355l-2 -18l184 -59l2 19zM424 377l-2 -18l184 -59l2 18zM436 462l-2 -18l184 -59l2 18zM442 504l-2 -18l184 -59l2 19zM445 526l-2 -18l184 -59l2 18zM448 547l-2 -18l184 -59l2 18zM439 483l-2 -18l184 -59l2 18z " glyph-name="u" horiz-adv-x="603" unicode="u"/>
<glyph d="M297 0h-180q-5 177 -15 347.5t-14 347.5h200zM319 195l-5 -17l171 -55l5 17zM325 215l-6 -17l172 -55l6 17zM337 256l-5 -18l172 -55l6 18zM332 235l-6 -17l171 -55l6 17zM343 276l-4 -17l171 -55l6 17zM363 337l-6 -18l173 -55l5 17zM369 357l-6 -17l173 -56l6 17z M356 316l-5 -17l172 -55l6 17zM350 296l-5 -17l172 -55l5 17zM312 153l-1 -19l161 -52l6 18zM312 64v-19l134 -43l5 17zM312 175v-3l-1 -16l167 -53l5 17zM312 41l1 -19l70 -22h59zM665 688l2 7h-24zM312 19l1 -19h1h59zM312 108v-19l146 -47l7 17zM374 377l-4 -17l172 -56 l6 18zM312 130v-19l153 -49l6 17zM312 86v-19l141 -45l5 17zM456 640l-5 -17l175 -56l6 17zM450 620l-6 -17l175 -56l7 17zM444 600l-6 -18l175 -56l6 18zM462 660l-5 -17l176 -56l5 17zM494 695h-21l-3 -11l176 -57l5 18zM469 681l-5 -18l175 -56l5 17zM564 695h-60 l148 -47l6 17zM633 695h-59l84 -27l6 17zM381 397l-5 -17l173 -55l6 17zM438 580l-6 -18l175 -56l5 17zM406 478l-5 -17l173 -56l6 18zM400 458l-6 -17l175 -56l5 17zM394 438l-5 -17l173 -56l5 17zM431 559l-5 -17l175 -56l5 17zM387 418l-5 -18l173 -55l6 17zM413 499 l-6 -18l174 -55l6 17zM425 539l-5 -17l174 -56l5 17zM418 519l-5 -17l174 -56l7 17z" glyph-name="v" horiz-adv-x="566" unicode="v"/>
<glyph d="M692 695h181l-140 -695h-95l-24 297zM90 502l-1 -19l169 -54l1 19zM92 524l-2 -19l170 -54l1 18zM94 567v-18l170 -55l1 19zM93 545v-18l169 -55l2 19zM302 412l-5 -18l139 -44l4 17zM283 351l-6 -17l140 -45l5 18zM276 331l-5 -17l139 -45l6 17zM269 311l-5 -17l140 -45 l6 17zM296 391l-6 -17l139 -44l5 17zM290 371l-7 -17l140 -44l5 17zM96 589l-1 -19l170 -54l2 18zM59 0v0h1h-1zM250 695h-59l86 -27l2 18zM261 695l18 -6v6h-18zM111 695h-9v-16l172 -55l2 19zM97 611l-1 -19l171 -55l2 19zM98 633v-19l171 -55l1 19zM100 654l-1 -18 l171 -55l2 18zM102 676l-2 -18l172 -55l2 18zM181 695h-59l153 -49l2 18zM85 414l-1 -18l168 -54v19zM84 393l-2 -19l168 -53l1 18zM83 371l-2 -19l167 -53l1 18zM87 436l-2 -18l168 -54l1 18zM88 458l-2 -18l169 -54l1 18zM65 87l-2 -18l215 -69h51l1 3zM244 252l-166 53 l-1 -18l165 -53zM81 349l-1 -19l166 -53l1 19zM79 327l-1 -18l166 -53l2 18zM250 251l-7 -18l143 -45l5 17zM348 63l-279 90l-2 -19l276 -88zM243 231l-1 -3v3l-166 53v-19l304 -97l6 17zM262 291l-5 -17l142 -46l5 18zM257 271l-7 -17l142 -46l5 18zM75 262v-19l298 -96 l6 18zM74 240l-1 -19l294 -94l6 17zM70 175l-2 -19l281 -90l5 18zM71 196v-18l285 -91l4 17zM73 218l-1 -18l290 -93l5 17zM88 461l169 -54l1 19l-169 54zM330 492l-7 -17l267 -86l-1 20zM342 532l-5 -17l250 -80l-2 19zM356 572l-5 -17l232 -74l-1 19zM445 344v-19l154 -50 l-1 20zM336 512l-6 -17l258 -83l-1 20zM323 472l-6 -17l275 -88l-1 19zM443 367l1 -20l153 -49l-1 20zM309 432l-5 -18l138 -44v4l1 -4l153 -49l-2 19zM316 452l-5 -17l283 -91l-1 19zM349 552l-5 -17l241 -77l-1 19zM528 695h-59l100 -32l-2 20zM459 695h-59l170 -55l-1 20 zM396 693l-5 -17l181 -59l-1 20zM538 695l29 -9l-1 9h-28zM363 593l-6 -18l224 -72l-1 20zM370 613l-7 -18l216 -69l-1 20zM376 633l-6 -17l208 -67l-2 20zM382 653l-5 -17l199 -64l-1 19zM389 673l-5 -17l190 -61l-1 19zM453 208l1 -19l156 -51l-1 20zM462 49l2 -19l92 -30 h60zM465 4v-4h12zM463 26l1 -19l23 -7h59zM461 72l1 -20l159 -50l-2 19zM62 44l-2 -19l80 -25h59zM67 131l-1 -19l271 -86l5 17zM63 66l-1 -19l147 -47h59zM460 94v-19l159 -51l-1 20zM66 109l-2 -18l266 -85l6 17zM451 231l1 -20l156 -50l-1 20zM450 253l1 -19l155 -50 l-1 19zM448 276l2 -19l155 -50l-2 19zM448 299v-20l155 -49l-2 19zM446 321l1 -19l154 -50l-1 20zM456 140l2 -19l157 -51l-1 19zM61 22l-2 -19l11 -3h59zM455 163l2 -20l157 -50l-2 19zM458 117l1 -19l158 -51l-1 20zM454 185l1 -19l157 -50l-2 19z" glyph-name="w" horiz-adv-x="794" unicode="w"/>
<glyph d="M350 539l97 156h192l-215 -348zM336 60l9 -22l119 -38h57zM346 34l8 -21l43 -14h28t29 1zM356 9l3 -10h28zM48 107l-10 -15l159 -51q3 4 5 7.5t4 7.5zM24 70l-10 -15l160 -52q3 5 5.5 8.5t4.5 7.5zM36 89l-9 -16l159 -51l4 8t5 8zM130 237l-10 -16l159 -51q3 4 5 7.5 t5 8.5l8 -22l205 -65l-9 21zM298 161l8 -22l206 -66l-8 22zM317 110l8 -21l207 -67l-8 22zM141 255l-10 -15l361 -116l-8 22zM307 135l9 -21l206 -66l-9 21zM71 144l-9 -15l158 -51q3 4 5.5 7.5t5.5 7.5zM219 75l-160 51l-9 -16l159 -51q4 8 10 16zM13 52l-10 -16l117 -37 h51q2 1 2 2zM83 163l-10 -16l159 -51q6 8 10 16zM335 63l196 -62h10l-8 18l-207 66zM95 181l-10 -15l160 -52q2 5 4.5 8.5t5.5 7.5zM1 33l-9 -15l58 -19h60zM118 218l-10 -15l160 -52q2 5 4.5 8.5t5.5 7.5zM-9 15l-11 -16h2h58zM107 200l-11 -16l160 -51q3 4 5.5 7.5 t4.5 8.5zM162 694h-59l189 -61l-8 21zM110 599l7 -21l226 -72l-8 21zM101 624l7 -21l225 -72l-9 22zM153 274l-10 -16l340 -108l-9 21zM134 524l7 -21l232 -74l-9 22zM126 549l8 -21l228 -73l-8 21zM93 649l7 -21l223 -72l-8 22zM232 694h-60l111 -36l-9 22zM242 694l31 -10 l-4 10h-27zM84 674l7 -21l222 -71l-9 22zM93 694h-15l6 -16l219 -71l-9 22zM118 574l7 -21l228 -73l-9 22zM184 375l7 -21l241 -77l-9 21zM193 350l3 -8l-7 -10l254 -81l-9 22zM188 329l-10 -15l274 -88l-8 22zM165 292l-11 -15l318 -102l-8 22zM176 311l-10 -16l297 -95 l-9 22zM151 475l7 -22l235 -75l-9 22zM160 450l7 -21l235 -76l-8 22zM176 400l7 -21l239 -77l-8 22zM143 500l7 -22l232 -74l-8 22zM168 425l7 -21l238 -76l-9 21z" glyph-name="x" horiz-adv-x="527" unicode="x"/>
<glyph d="M388 215l-30 -215h-173l30 215h173zM455 237q-19 -4 -42 -6l-340 109v9.5t1 9.5zM286 624l-2 -18l-170 55l3 18zM280 582l-2 -18l-170 54l3 18zM283 603l-2 -18l-170 54l3 18zM292 667l-2 -18l-145 46h60zM295 688l-2 -18l-78 25h59zM403 231h-59l-269 86q0 5 -0.5 10 t-0.5 10zM334 231h-59l-193 62q-5 11 -5 21zM195 231h-4q-60 0 -89 30zM265 231h-60l-107 35q-9 9 -15 23zM289 646l-2 -18l-170 54l2 13h16zM284 695h12v-4zM87 466l171 -55q1 -16 9 -22l-183 59zM567 401l-2 -15l-1 -3l-172 55l3 18zM562 695h46l-2 -14zM277 561l-2 -19 l-170 55l3 18zM258 424q1 -3 0 -10l-171 55l3 18l169 -54zM262 454l-2 -18l-170 54l3 18zM268 497l-2 -18l-170 54l3 18zM271 518l-2 -18l-170 54l3 18zM265 475l-2 -18l-170 55l3 18zM274 539l-2 -18l-170 54l3 19zM594 593l-3 -18l-172 55l3 18zM591 571l-3 -18l-172 55 l3 19zM588 550l-3 -18l-172 55l3 18zM585 529l-3 -18l-172 55l3 18zM582 508l-3 -19l-172 56l3 18zM603 657l-3 -19l-172 56v1h54zM606 678l-3 -18l-110 35h59zM486 249q-6 -3 -12.5 -6t-13.5 -5l-387 124q1 5 1.5 9.5t0.5 9.5zM579 486l-3 -18l-172 55l3 18zM600 635 l-3 -18l-172 55l2 18zM597 614l-3 -18l-172 55l3 18zM547 319q-2 -5 -3.5 -9t-4.5 -8l-266 85h3h57zM538 299q-3 -4 -5.5 -7.5t-6.5 -7.5l-445 142l3 19zM576 465l-3 -18l-172 55l3 18zM509 264q-5 -4 -9.5 -7t-9.5 -6l-415 133l1 2l2 16zM555 338q-3 -4 -4 -8l-2 -8 l-206 65h19q10 0 17 8zM525 281l-7.5 -7.5l-6.5 -6.5l-433 138l3 18zM560 359q-1 -5 -2 -9t-3 -9l-174 56q3 4 4.5 8t3.5 9zM570 422l-3 -18l-172 55l3 19zM573 444l-3 -18l-172 55l3 18zM564 380l-3 -18l-172 55l1 8l2 10z" glyph-name="y" horiz-adv-x="537" unicode="y"/>
<glyph d="M390 695l-105 -180h-206l25 180h286zM326 163h198l-22 -163h-272zM153 254l-9 -16l166 -54l10 17zM110 179l-10 -16l168 -54l9 16zM120 198l-9 -16l167 -54l10 16zM131 216l-9 -16l167 -53l9 16zM164 273l-9 -16l166 -54l9 16zM143 235l-11 -16l168 -53l9 16zM197 329 l-10 -16l167 -53l9 16zM207 348l-9 -16l167 -54l9 16zM174 291l-9 -16l168 -53l8 16zM186 310l-9 -16l166 -53l10 16zM22 29l-10 -16l41 -13h59zM602 692l1 3h-12zM11 10l-6 -10h38zM44 67l-9 -16l157 -51h13l7 13zM33 48l-10 -16l99 -32h60zM54 85l-9 -16l169 -54l9 16z M87 141l-9 -16l168 -53l9 16zM77 123l-9 -16l167 -54l9 16zM65 104l-9 -16l168 -54l10 16zM98 160l-9 -16l168 -53l9 16zM240 404l-9 -16l166 -53l9 16zM372 629l-9 -16l163 -53l9 16zM382 647l-9 -16l164 -52l9 16zM361 610l-9 -16l164 -52l9 16zM394 666l-9 -16l163 -52 l9 16zM339 572l-9 -15l164 -53l10 16zM350 591l-10 -16l165 -52l9 16zM511 695h-59l128 -41l10 16zM219 366l-9 -16l165 -53l9 16zM442 695h-32l-4 -7l164 -53l9 16zM405 685l-9 -16l162 -52l9 16zM581 695h-60l70 -22l9 16zM273 460l-9 -16l165 -53l10 16zM252 423l-9 -16 l164 -53l10 16zM262 441l-9 -16l166 -53l9 16zM230 385l-10 -16l166 -53l9 16zM306 516l-9 -16l164 -52l10 16zM328 554l-9 -16l164 -53l9 16zM317 535l-10 -16l165 -53l9 16zM295 498l-9 -16l165 -53l9 16zM285 479l-10 -16l165 -53l9 16z" glyph-name="z" horiz-adv-x="508" unicode="z"/>
</font>
</defs>
</svg>
